<mxfile host="drawio-plugin" modified="2024-01-27T08:27:54.655Z" agent="5.0 (Windows NT 6.2; Win64; x64) AppleWebKit/537.36 (KHTML, like Gecko) Chrome/104.0.5112.102 Safari/537.36" version="20.5.3" etag="Y700GH6_nE8dQBuay13K" type="embed"><diagram id="nr4pmyGPExrIUuWaOm-Q" name="Page-1"><mxGraphModel dx="869" dy="751" grid="0" gridSize="10" guides="1" tooltips="1" connect="1" arrows="1" fold="1" page="0" pageScale="1" pageWidth="850" pageHeight="1100" math="0" shadow="0"><root><mxCell id="0"/><mxCell id="1" parent="0"/><mxCell id="3" value="" style="shape=image;verticalLabelPosition=bottom;labelBackgroundColor=default;verticalAlign=top;aspect=fixed;imageAspect=0;image=data:image/png,iVBORw0KGgoAAAANSUhEUgAAAhIAAAKhCAYAAAAFY0dkAAAAAXNSR0IArs4c6QAAAARnQU1BAACxjwv8YQUAAAAJcEhZcwAAEnQAABJ0Ad5mH3gAANqYSURBVHhe7J0HeBTV18YPCb230Lt0kF6linSwAFKkiAIKig3/KhYQxEax8dmQZgEUUClKF6T3LtKl995DZ759b+6EybJJNpud2ST7/vLMs3PPTHbK7s5977nn3JssW/achhBCCCGE+ECIfiWEEEIIiTMUEoQQQgjxmWSGC70ehWTJkuk150iePLncunVLl4gdpEuXTq5cuaJLxN9kypRJLly4oEvOkTt3bjl69KguEUKIvWQPy6XXYvFIQGM4uVSrVk0+/vhjj9vsWg4fPiypUqXyuM3OpWfPntK2bVuP2+xaDh06JCEhIR632bm0adNGevXq5XGbXcv06dMlf/78HrfZuWTPnl2mTZvmcZtdy8qVK/UvlhBCnIddG4QQQgjxGQoJQgghhPgMhQQhhBBCfIZCghBCCCE+QyFBCCGEEJ+hkCCEEEKIz1BIEEIIIcRnKCQIIYQQ4jMUEoQQQgjxGb8JieXLl6thtbFUqFBBdu7cqbfYD46NkROvXr2qLfYyYcIEx6/Ven+bNm0qZ86c0VucAfcW9xjXbjfvv/9+5LUG6h5jsfNazftpPZ654PoJISSx4BchgYf8oEGDZMeOHWrI3q+//lpefvllRyo7PPxr166tS/aDymXcuHFy+vRpx64V19i7d+/I+9ulSxd55513HBNOYMqUKfLdd9/pkn3gPh45ciTy/mLZtGmTlChRQu9hD/gO4x4vW7ZMHRPHx+eMe28HadKkkREjRkReIxYcu3z58tKuXTu9FyGEJHz8IiQmT56sKnPzYV+pUiUpVKiQqvjsAhUOWuZ4+L/++uvaai+ouJcuXaoq8mzZsimbE9f6999/q/kqzPtbpUoV2bdvnxw8eFCV7QaVLK67Q4cO2mIfqMAzZswoadOm1RZnwHcY97hWrVqqjM93zpw5kWW7wfcZngh8l+0WTYQQ4k/iLSRQuaIFWaRIEW2JaG3lzZtXVYB28r///U+1VtGKcwKzFdmpUydtEQkPD5f9+/frkj30799fLSbr1q2TwoULS4ECBbTFPvD5jhkzRrnhMbOl3UBIQCBBSMDN70S3BipxeB4aNGigLc4D0QJB2rp1a20hhJDEgd9iJPAQtGIVFnaAFmOjRo10KXCYFQA8E3Zj9uEPGzZM+vTpo4SN3WzYsEEyZMjgWCsZouz8+fNRuo7at29vu5jIkiWLeoWXy4xVsKtbwx0IGXSjwNPlxGdKCCH+xG9CIhhBvISTlTrc7KhcFyxYoOIy7K7ozAru+eef1xb7gbcH4szsOsI1o8sBXQ92cu7cOdW1gM8U9xhdVeg2c0JMmN1iJUuWVK+EEJKY8JuQcHfv7927V68lTUwRMWnSJMf7tFHJooK1u+vom2++iRIPEijs9m4BeCSGDx8eea34TCFg7L7HAMfA5xno+0wIIb4QbyFhxkNYhYMZNxHIPmc7QcsVLXV4BuwWEbiXTqVdWjHjBhBECzc/YhaQtdG5c2fb0hOju1Z8t+wUE7g2xH+gO8VpEkJ8BiGExAe/eCSQrobUNbMfG/3q8FAkRVctKjk8+PHqRAsSQg1eAQgXVDoAx//9999tTRPEtaGLwUxNRFBpz549Zfz48VECP/0JrrVOnTr3XCsWxC7YhXmPIZDM4+K7jHtsdwVvxoJkz55dWwghJHHhFyGBVvm7776rhANar+hbtrqJkwqoZFDJzZ07Vz34zaA8LHZ6DOD2RkVnHhP3NxBdKk6AGAn3a3Xiu4R7DIFkHhffZQR6wm4nEBI4HoUEISSx4rcYCTxwzdarEwMIWUHlg7RMuwMe3Vvp1sWaEmoHeH/zWE7fX4B76576aheBulbrdxiL3SIC4BjW4FJCCEls+E1IEEIIIST4oJAghNgCYk7QbYMAWgTSWkE3oTlmh9OBxPHBjNcxY2n8Aa4f9yEu74vzwP9Ed38JcRIKCUII8QJU+E7O6xMT1rTkVatWOTZcPiGeoJAghJBEBLwW8EiYbN68WQ2bT0igoJAgJMhAa/axxx7TpYSFtTsEgbaYa8V04buPX2KOO2JuxxLT3Czme5uLe5eAtbtl5MiRke9drlw5NWEdxlABZtaW9f9xTOu5RtdN4b6fL906CM7FOTRp0kSlZANryrRJdNeD469evTrabeb9M7tcrIt5vtb3dr+GmLaRpAmFBCFBwuzZs6VatWry8MMPK3d4QgaDn1WsWFG1tk2QYm6KCVTgGJrefWp77O8+N4tZseH/reB/a9as6VF4oII23xv3LH369GrdE/AOIF3Yeq6o6B966KEo7+1pP4gTU6B4A64bM/ECZPzgHmDSQhwvphmIrddTo0YNyZcvn1oH7tswGSAEgKfzgg3bkGWENG2A87EKMpwHzgfnhZmKSdKHQoKQJM706dNVpYwBzNauXSspUqSQL774Qm9NuGDwM6ThYqwNtL4BKmMIA8QEmGIIg+FZ90NFPdkyNwuGejcrNlRy7vt+/vnnUSpCYN139OjRasH5APwf/h/p0BiozRQ3gwYNUvubg7dZzwPvD68BMP8f++Lc44L1ujFYGip9VP4gpuHcrdeD806dOrXecu82nL95rua9Na8JmMIBIgH/6x6jYZ6HKUpI0ieZ60ti6PUowC312muv6ZIz4EvrdDDTjRs3lBp/8cUXtcUZMMPlvn371APeSfCggBvTSf777z91n0uXLq0t9oPK5q+//lIuaSf59ddfpW3btrrkHGPHjlXXbAXTv3/66afqIX/lyhVtFSlWrJjs2rVLl+wDFSy8AKiAUFlbx3nBuWK8EFTwqKDN8UnM/0Fla7Z8gdlCNu2oiOF5QGWNyiy6AdqiOw6AKMHzxvx/dFeY+0IUuI/g6n4OODf39zDPwbR7Ol/384jumj3h6RxMm/s5WK/d/Xpi2uaOeS0m5ucJTK+QeU0x3W+StMgelkuvxSIknB5tD5VrSEiIZMyYUVvs586dO3L27NmAXGtoaKiaotspbt26JRcuXIjxQWUHmFkTreCY3MP+BsLl0qVLjl8rvkto7WH+DifBPcbna+Xxxx+XP//8U92L6Khfv74sWrRIl+IP+t7RFQDiIyTc/8dTBWrua8W9UkTXglmBo6FiHWTMfRu6HWKqBGOqxKPDrNxBdOfh6X09Yb1n0WE975gq9dgqfHfxYMX62ZjnbtowPYJVQDn9+yPOYRUScFt5JIZNtlGjRg2jadOmuuQMhw8fNlyiSZeco1y5coar5apLzrBmzRrDJV50yTkKFy5s9OrVS5ecYfr06UaqVKl0yTly5cplvP3227rkDKNGjTJcIk2XouKqEIzGjRsbLnGuftNYXGLdOHHihN7DPlyVujqeq1IxXC1ybY0AZdix3VWRaevd/3FVTEZ4eLi2GmofT++FfbAvtlkX8z137NhhuCpzZXNV4Mpm4r4tunMy8XQOpi26Be+P48R0HtFdmzv4P+t7e1qs7xHT9cS0zXquWHBc6322fjbmvuZ1mp8fXknSJlv2nJELYyQIScI88MADqtU5bdo05X1Ily6d8voNGTJE72Ef5oytOD7iFKyYcQvxxRy63fVcUws8EsDMYoCn0SXulA0TCVpxVaaRXSO+eiQLFSqkXvEeroo08jzMxdMQ7+7nYZ05OSZiioEwwT3FecQH8764hIZaj2moeFwbptvH/vBIwJMBOJttcEEhQUgQ8OCDD8rChQvVjKZ4+CN4EN1cdmJWsgBdEOguNRezSwIVsC+R/aiwzPcyKy9gipfjx4+rShCudbMiHDZsWGQWBUQGukZAfIIC0R2CChcV6WRLgCfeG+eGeCQEJlqDIq3ngXN3757xBM7XvE6IJXfBgmvFeQBvBIc3WEUJuizMzA53TNGA7fgfnAfuCwkeKCQICSLwkP/3339l1qxZkilTJm21B1TgpocgOtCadW+xe0OlSpVUvzxAn7wpKsx4Bev7Pv/885GVPSo47AcPhFnpffjhh1HiN6LDFEb4P/w/RAJiYcw0SKtYMsUBtuG9sZj7Wc8jujgEd8yxI4Cn1r5VMEEsWtNO44opjoB5b2M6T+v+AOfB2IjggkKCkCAkJne1P0Hg47JlnlMcYY8pWyAmzC6N8eMjUjKtwGZ9X1RqqIjdRQ2EyNSpU72u9KziBaCLAmmRCFREyx3eFROzq8N6n7Huvh/OydM1WIFHwxw7AhV2dK19U2BAqMRnpEvcD0zdbz1PnKP5Obqne1pFDGC3RhBiREMMm2yDwZb2wmBL+0lowZaEOIFLEKk6wyV0YgwYJUkHvwdbXrhxQZ5b9pykG5tOko1MJvkm5JNP//lUbtyJPu0svtw2bsv43eOl+KTiEjoqVFKPSS2NZzWWbee26T3swbzWLD9kUdeKV5RhdwLD9Tdw/UDJ/ENmWX1ytbbaz/Hw41J6cmkZtCFmV3V8OXD5gDy58Mko36VP/vlEwm+F6z38y5ErR6TgzwXVsaJb7LrXuy7skkfnPhp5rXht81cbdQ8ISSygGwXdKYDdGsFJvIXE3ot7pcqUKjJy+0hpmr+pjKk3RmrlrCV9V/eVZ5Y8Y4uYQGX60caPpOuirpIrTS4ZVXeU9C7TW5YfXy5NZzeV3Rd26z39y/kb5+WRuY/IqO2jpHG+xupa8Yoy7NhuNyuOr5Avtjg7KiE+w75r+sr289u1xR7wXWo4o6H8vu936Vyss/xY/0epnqO6+i5BrNnxXUqbPK20Ltxaniz+5D1Lk3xNJHlIckmTPI2kT+HfMTBWnFghD0x/QOYfma+udUKDCep1zqE5Um1qNVl/er3ek5CECQQE5uZAVwu6U9AVgtFTSRCivRT3EMOmSO64/not7WWEjAwxBq0fpMqmHeXko5IbrkpP2bzB266NBUcWGOnGpDNcLVfj+u3r2moYP+36yUgxKoXRY3GPyHOJjbh0bQzfMtyQ78QYsG5A5PvjFWXYsd1bfOnaOHf9nFFzWk11rEzfZzJWnVilt3iHL10bV25eMZ5f+rz6jHHc99a/p7d4jzddG7iP+NxSjU5l/Lz7Z229+x3D5/rH/j+0NXbi27WB79Wjcx+953xiw5uujfCb4Ubz2c3VZ7jsWNQxBczvdut5rY0bt29oa8ywa4MEgh0expsgwYPfujbg7p57aK7cn/V+6VW6lyRz/QG89izVU4pmLCq/7v1VLt64qOz+AN6I0TtGS5ZUWaR/pf6SMiSl3iLSokALKZu1rOw4v8OvxzRZe2qtZEqZSZrlbxblWlGGHa1Mu8B1f/nvl+raGuZtqK328s/Zf6TOH3VkxPYRUi5rOW21B3xeh68clgrZKkiT/HcjwHF/cb0379yUjWc2aqv9jNs1Tv488Kd0LNpRHi/yuLb6B3SDHbp8SH1X8duxUiV7FamQvYKsO7VOTl49qa2EJDyQFYNxMlx1ilqcCuAlCY94CYmDlw/K2etnpWTmkhKWOkxbIwhLE6YelHBXn7h6Qlvjz6mrp2Tj6Y1SMXtFKZi+oLZGkDVVVtnQeoMsfWSpqtj9TbFMxeTSzUuqErCCBz768POmy6st/mfliZUy/N/h8lLZl6R2LvvnI0HF/vyy52Xrua3ycbWP5a2Kb+kt9oDPa3az2bLqsVXqc7Sy/1LEAD750t2dsdBOIJAR44Nus77l+0qKkBR6i3/IlTaX/PP4P7LskWWSMaVzw8ETQogd2J7+iQoWYsNfQJScuXZGtVwRE4H+5OSjkqtgy1bzWtkaqNaqUCvJmSanvLH6DdVihJdgw+kN8tqq11SF0OE+eyaIQqX+ztp3lHB6ocwLKq/bCXCP17RaI2+Uf0NCk4Vqq3NcvXVVRu0YJe9veF/KZysvzfM311vsZeSOkSoepGfpnlIic9zHOIgPey/tVV6n/OnzS4YUzs3DQgghvhIvIZE7bW71sINL2r0r4dz1c7Ln4h5d8h8QJgi6Q0Be8znN1QN3bL2x0rV4V5l3eJ5yxcNjYQdwQy9+eLEK0Ks6taqEjAyRylMqS0iyEFnUcpFUDauq9/QvX239SgmWYTWGSfbUzkwuBmH0Va2vbO/SiI7/rfqfpB2bVp5d8qxqwU9rPE292s2x8GMyYfcEuS/jffJksSe11RnwvR66eaj67bQt0pbeCkJIoiDeQqJajmqqdT7z4ExtjQDlf8/+q0v+B622tyq8Jb81+k1F2H9X5zsZXXe06mb4YOMHqk/d36CbBul6+y7tk2dLPasi7fGKLp5289up7f5m85nNqksDffUP5nlQW5M+D+R8IPL+oiup+rTqsurkKr3VPiBG/7v4n4qLKJTh7hDPdoN0ZmQiTdozSRrlbSTPlHxGbyGEkIRNvIQE+o6HVR8m+dPlly4Lu0j7+e1l7M6x6rXX0l4qpsAuEMjZo2QPFYxn8mihR1XqKeIJzH51fwFPCGIG4HqGYIFwQeWO15lNZ8rR8KNquz/HO8B7IfUxW6psMqDSgCjXmtRpU7hN5P2d0niKXLl5RV5c/qKtKbboSpnw3wTlZUM3llPAE4GuK3ThIP5lYsOJyutFCCGJgXjHSBTJWETmt5wvDxd8WKYfmK5c0YeuHJKVj61UlQHc/sjF9zcI5kyXPJ0uRYCHL+z+jssA6KZB90Ld3HXlsUKPaWsEtXLVUvY1p9b4dawFxAcsOb5EBlUZ5IhbP6FSN1ddeSDXA2p8kJ3nfZ9DIDbgidh0epMKEi6VuZS22gu+qz2X9JRhm4dJvdz1ZEqjKZI5ZWa9lRBCEj5+CbZEEODUxlPlWvdrcuuZW7Li0RXqQbzpzCYVnAiPhb8w4zKcBg98tByRUYABiqzAM1MlrIrcMe7IrTu3tDV+IOYEqbNoJbed3zbKSIsD1g1QKYQ1ptVwfITLQID77Z7JYQfIUDl17ZQaZMyJ+AR4V55Y8IT8sOsHJbqnN5ku2VJzVEBCSOIiXkLi8s3L0nJOSxVw6O4BQPaEmaYJL4G/QJppqSylPKaVmmMRoEWXJ20ebfUPqMjg8UD6qXv3BbI3tpzd4lfvCypPdGcgTsB9Qf89tr9X5T01qie6eRI7GLOixKQS8ti8x+6JbzE/V9x/OwXFwqMLlSi0K2jWCkTE4389LjMOzpCnij8lP9T/gVkahJBESbyEBIYNxtgJaMmtOnE3EA4t98//+VxFn7vHMcQXVKDti7RXIgJBlTiWCQI8EfjZrEAzyZfev2MOIPCuZs6asvzEcpm+f7q2RoCYDFRC1cKq+c0ljgqtUb5GKk7AfUH2CAbiwhDOiO5PCq1YiCGME7Ho6CJZc3KNtkaALjPYHsr7kG0BkBDFCOBFVozdwgzC88MNH8qCIwvUsNjf1f2OMRGEkERLvLs2MGCPGWzZb20/FWzZZFYTlYvft0JfWzINuhTvoh7AmLQLx8Ixey7tKT2W9FDn8nq51/0emGgNLH168dPSYUEH+WnXT+q4jWY2UuMsDKwykBWCj+C+vV/1feXRweRruK+4vwjcfXrR06pyf6/ye+pzsAN4mZDxg1gUu4UZJpYb/994dS2nr51Wc9Jg3hjr0mdlHyXECSEkoeOXYMs5zeeoNFDM0oiHImZU/Kn+T9KvUj+/V+gArXG49IdWH6oC8Lov7q5EBfqZFz+yWJ2THZiBpe2KtFNDg+OBbx4XAzfVyFFD70l8ASmfiK/BkNi4r7i/C44uUINwIXjXrs8VoDsFYgKCJnky/wcHW4HnA6Nn4pizDs5Sgsl9mbJvyj1daIQQkhBRs1Xp9Shg9MRoNtlGzZo1JXPmzDJ79mxtsZ8jR45I/vz55c6dO9riDJgpD2PVT548WVvsZ+3ateoe37rln4BQbylSpIg0adJEvv32W22xnz/++EPNRHjt2jVtcYbcuXNLt27d5MMPP9QW+xk9erT06dNHLl26pC2EEGIv2cPuZhL6JWuDEEIIIcEJhQQhhBBCfIZCghBCCCE+QyFBCCGEEJ+hkCCEEEKIz8SYtXHw4EFdcoY2bdpIpkyZZOzYsdpiP1euXJHSpUvLgQMHtMUZmjVrJsWKFZP/+7//0xb72bNnjzRs2FD27dunLc5Qp04dddwBAwZoi/0sX75cnnrqKdm9e7e2OEPVqlWlc+fO8vLLL2uL/cydO5dZG4QQR7FmbcQoJLA4iXkqgThuMBwT8FrtJVDXmi5dOgoJQohjeC0kotlECCGEkCCG40gQQgghxC9QSBBCCCHEZygkCCGEEOIzFBKEEEII8RkKCUIIIYT4DIUEIYQQQnyGQoIQQgghPkMhQQghhBCfoZAghBBCiM9QSBBCCCHEZygkCCGEEOIzFBKEEEII8RkKCUIIIYT4DIUEIYQQQnyGQoIQQgghPkMhQQghhBCfib+Q2L5dpEULkdOntYEQQgghwUL8hATEw9NPi5w5ow2EEEIICSZ8FxKLF4uEhYmsXq0NhBBC7Ob999+XZMmSRbtUqFBBdu7cGWXfXr16ydWrV5XNXyxfvlyaNm3qakfG3JC04xyie0/3ezNhwgS9hdiJb0ICIqJ+fZExYyIWQgghQQMq6Nq1a+tSwgDC5t1339WlCAoVKqTXiJ0kM1zo9ShAzUWzKSpjx4qMHCkyY4ZI9uza6Bs1a9aU1QHwcOA6cb1OEohjgkAcF8cLCQlRS7p06eS5555T9nPnzrl0aIQQtcN+5coV+fbbb9V6ixYtpFSpUmp96tSpsmfPHrXub/vt27fl888/V7YsWbJI9+7d1fqJEydk3Lhxat0O+59//hnZCm3durUUKVJErU+cOFEOHz6s1u2wN2rUyNWmcDUqiGOg1e1eYVopX768TJo0SUqUKKEt/gdConPnztKkSRO1ni1bNr3lXszz7dmzp/ptpEmTRm/xHU/vCSEBcePE9RNXdR+WS68lQCGROXNm11u63tMhLl68qCqAI0eOaIsz4AFcvHhx+frrr7XFfnbt2iUPPfSQHDp0SFucoW7dulKvXr3ICjZDhgzq9dKlS+rVxJ/2f//9Vz3kduzYoa3OHBcPsbfeeksJC9MG7Dzm6NGjZdasWfLjjz9qqzPHrVq1qnTq1EleeeUVbSVOEJeK2X3f8PBw9ZnNnTtXvvvuO9mwYYN6NSvfAgUKSJ8+fZTNxFoxoxvBfTuI6Vys54CuiKeeeko2b96stg0aNEj69++v1k1MkWJl/Pjx6rxN3K/rk08+UWUr3ogc4jtWIQGx4JEYNkVlzBjDqF7dME6d0gbfqVGjhtG0aVNdcgZXK8twiSZdco5y5coZbdu21SVnWLNmjREaGqpLzlG4cGHD9QDRJWfYsmWL4XqA6JJz3Hfffca0adN0yRlGjRpllC1bVpeco0qVKobrIa5LxClcla96PrsqUcMlDLTVM+77nj592nBVsMpmXbD9zJkz6tV9GxaXmDBcoly9h6d9YjoX8xyiW1wiQe9pqHVP+2Cx7ud+XZ6OgevE9RJ7yJY9Z+TCcSQIISQRAq9A2rRplffYusDF7w3wNMBj56oTZMSIEXLq1ClZtWqV2rZs2TJld1XEqmUPD8LkyZOVxwH7wkMAsA37wOZNlwX+D+/rqvyVNwEsXbpUeToQtGl225nH97SfJ+DVwP8A87rmzJlDb4RDUEgQ2wnEjzlXrlzy1Vdf6ZJzPPPMM3rNOfLnzy/dunXTJecYNmyYFC5cWJdIYqNNmzbRxhH07t1bxdzgt4sKGZW6exdEXIHoQJYHgOioU6eOWt+/f78SDNZj1apVSwkiCCX3bhSS8KCQILZTsmRJ9WBwkuzZs0uHDh10yTn69u0rjz76qC45Ax7Q6Ld2GsQzZcqUSZdIYsMMmDWBqIC4APBA4HcLDwfiEfwBMiggDGIC4sH0rCS0rBASPRQShBCSCIHLHy15tOCtS3xEO7wO1u4EgCBGVOwIXLQTeEDgCTFBV4X7uZCECYUEsZ1169Z53W/rL5C1kS9fPl1yjkqVKsn06dN1yRmQtdG+fXtdcg5042zatEmXSFLBjIMwhcmgQYOUHfELsQ0+FR8QawFPiBl34bQXk/hO/IUE+mYRoBPP1M+4cuHGBXlu2XOSbmw6STYymeSbkE8+/edTuXHnht7DHm4bt2X87vFSfFJxCR0VKqnHpJbGsxrLtnPb9B7+x7zWLD9kUdeKV5RhdwrXI0UGrh8omX/ILKtPxm2sj+vXr+s1Z7l27Zpecw6kEweCbdvs+/6R4MDarWAV/mYXyPHjx1UFbzdITTXTts30VJKwSZQeib0X90qVKVVk5PaR0jR/UxlTb4zUyllL+q7uK88secY2MYHK9KONH0nXRV0lV5pcMqruKOldprcsP75cms5uKrsv7NZ7+o/zN87LI3MfkVHbR0njfI3VteIVZdix3QlWHF8hX2z5QpcIIUkNeNPMbgTEJ5iiwhzTwRqcaY4YiUof8UjuQ1X7AmIy4I0A5vEZJ5E4SHRCApX5sH+Gyd5Le2Vg5YHyW6PfpFuJbjKx4UQZUHmA/Pzfz/LttojRDP3NwqMLZcimIdK5WGeZ33K+Ou6nNT6VEXVGyPHw4zJ081B1fv7kp10/yZJjS6RfpX7qGs1rRRl2bLcbiJXXV7/usweEWRv2wqwN4g/cUzutwGbN2rCKDmBmXsQHPCeGDx+u0jdNcFwzrROpqQcPHlTrJIFhREMMm3zmv//+M3r06GHcuXNHW6LizYBUR68cNQr/XNgo/1t54+TVk9oawYnwE0bJSSWNWtNrGReuX9DWmPF2QKo7rr8nFjxh5Bufz9h9Ybe2RnDm2hmj4u8VjdrTaxvnr5/X1pjxdkCqzn93NjJ9n8lYdWKVtkSAMuzt57fXltjxZUAqXPeg9YOMLD9kMRrOaOjxXGLD1aIxxo0bp0skqbBx40Zj4cKFuhSVvXv3Gg8++KAuEUKSGgEbkArBOuaQpZ999pkK5IkrBy8flLPXz0rJzCUlLHWYtkYQliZMymYtq7o+Tlw9oa3+4dTVU7Lx9EapmL2iFExfUFsjyJoqq2xovUGWPrJUMqX0bzpcsUzF5NLNS3LoctRhrV0iSsJvhUvedHm1xR5Wnlgpw/8dLi+VfUlq56KbkcQMWqZoqRYrVkwWLVokLrGhtxBCkiqOComBAwdKnjx51CRLSCmKj6CICVSwEBv+BMLkzLUzUiFbBRUTUW1qNUk+KrkKtmw1r5UcuHxA7+lfWhVqJTnT5JQ3Vr8h606tU10nG05vkNdWvSYZU2aUDvfZN1bCxRsX5Z217yjh9EKZF1SfpS8wa8NeEkLWhikgihYtKj/99JOEhoaqcsWKFdV2QkjSJcZJu1ABuBNbpR/b9pkzZyrxYE4ChNkaU6ZMqYJ1Fi5cqAa5mT17ttrmCXgkak2vJQUzFJRZTWepytQE4qHhzIbKIzG3+VypnqO63hI9mKwLfcx37tzRFs8gU6HJrCbKA7Dv0j5plr+ZPFrwUVl+YrnK4siWOptMbzxdeSy8Af2ACFzCsLOxgSBOiJWt57ZqiyiPzK8Nf1UeGG9Zu3atmhjt1q1b2hIzCCwdsnmITG08VRrkaSCDNgySz/75zOt7a4KobwRRmTNxOgGEBGaldCLK3Aoq0k8//dTRQakgJNC3vGXLFm1xBkza1axZMxXNj4n2UqRIEZkpg+fHtGnTVKxKYqJatWp6jRASE17P/lm5cmVduktsrdKYtmPbjRs3VGqPNTUPDyCA1hymRo5JSNy8c1M6LOggMw/OlO/rfS9PFH1CbxEZt3ucdF/cXdImT2ubkEA3A4I8EeyYzPUHfvnvF3l68dPSokALmfjQREkREnE9MeGtkIAoajmnpfJ4IMizXu56svjYYiVe4CmY0XSGFMkYdYS66IiLkNh8ZrNKa21duLV8U/sbda0UErETbELi/vvvVwFxN2/e1NYI8JtObN6I119/XR5//HFdIoTEhH9n/4wjvXv3NlKlSqXeP2XKlEby5MmNV199Vc3S5u3sn3su7DGK/lLUCB0ZarT7q50xZscY9Zp2TFqj9OTScQoI9DbY0gxuLD6xuAr4tHLl5hWjwZ8NjNzjchu7zu/S1pjxJtgS79tkZhMj1ehUxs+7f9bWCBYeWajOB9uxnzd4G2xpHrfUpFLGsSvHtNUw3lv/nk/Blpgl0unZP0+dOmX88ssvuuQcgwcPdnz2zzlz5hifffaZLjkHAi1xrevWrTNcwslIkyaN+l1jyZAhgzF9+nS9JyEkqRGwYMujR4/K119/rVr/6EN94YUXlFsULbi4pAiiBY70y4cLPizTD0yXZ5c8K4euHJKVj62UNoXbSEiyEEkeklzv7V8Q0JkueTpdigAeENj9HZux5+IeFQ9RN3ddeazQY9oaQa1ctZR9zak1sv38dm31D6N2jJIlx5fIoCqDJFfa+LumOdeGvQR6rg14LtGNgdkZce1II0TXZXwneSKEJA4cFRIYRz0kJERefPFFOXHiRJwFhBW49dF3f637Nbn1zC1Z8egKKZW5lGw6s0kFJ+ZPl1/v6R9yp80tGVJk0CVngDDB4FrICkmTPOoUveg+qRJWRe4Yd+TWHe9iHrwBAZa/7v1Vrt66Km3nt1UjaZrLgHUD1FgSNabV8GmES5K0cRcUW7dulZ9//llvJYQkVRwVElOnTlXpYPEREJdvXlYxA5WnVL6n9Y84AjNFEx4Cf4JU01JZSnlMLUXle/jKYcmcMrPkSZtHW+MPBAS8HUg9haiwguyNLWe3+N37AsEyoNIAmdBgwj3L40UeV9vfq/KeGtWzaMai+r9ihlkb9pLQ5tqwCoqOHTtqa+IGc0xgCmwsWDfLiPuyezKr6MCsnDi+P0aV9AZcJ45nLoG67rjgj88Jk4lVqFAh8rrN70BMuH9fkjqOCglQrlw5veYb6VOkV5kTyGBYdWKVtopquX/+z+dy7vo56VGyR2QgpL9ABdq+SHslIj7Y+EGUYbgR+InUzGYFmkm+9P6rvAplKCQ1c9ZUmSHT90etnDC+A0barBZWTXli/AU8HY3yNZKORTves9yf9X5JGZJSmuRrIm2LtFWZKt7AuTbsJyHOtYHA3qTCnDlz1HDQ6KLztRGUmIFoMYfKNkE5MYiJ+AARAZGOycRM8D3o1KlTjAIB3xF8V7AvvjtJHceFhD/oW76v6rrosrCL9FvbT8buHKsyKkbuGCl9K/SVB/M8qPf0L12Kd1GZE8iYwPFw3J5Le0qPJT3U+bxe7nW/ChhU6sOqD1PvjawQZKtgSGwcs9HMRhKaLFQGVhmovBaEEHtAax/eFdCgQQP1mhBADIphGGpYa8Sl2AUq099//12tY7hqHNMcRhvDpGN7UmXy5MlRZiRFxiEy7rwRCOZ3Bd8dJzxGgSRRCgkEW85pPkeq5agmn/zziZqo68iVI/JT/Z+ipGX6G7TG4dIfWn2oGtsBqaYQFQjwXPzIYq/TMOOCGVjarkg7mXtorpowzDzmmlZrpEaOGnrPhEsgWnCca8N+gmWuDXMGSlQmCBz2hNXtDze4p8rVWxe5+37oFjTf3/o/nro2rDZ0O1nfB9tMrDN9RreY74uuSbMyNa8f54Ey7L6mWJvnai7u3g3rfcD5WveP7h5b9/F0f3E9uC5zn+gWHA//a3bJdunSRT3HChQoIDVqRDxz9+7dq16jw5yEDN8dfIeSNCqPwwMxbLINb9M//Ym36Z/+xtu5NvyJL3Nt+APOtZE0iWmujaTEoEGD1POwZ8+eRnh4uLIhXd1VSUSmu3paXK13tS/Auqd9XK1bw9XK1XtFv5+54Jg4NvB0XqYtugXbQWzHwWK+r6fj4BVl2MePH69s3mL9X/fFPD+A+4L742k/LNZ7F9N7mgvO05v9sFg/OyvW+xbdPibWY1mvK6kQsPRPQghJTKAFi0HrQN68eaPtQnBVKsrlj9Y5WqEArWO0arGY3gBXhaL2c1UyaghxtOgn60HpcCzMRwTwHngv7Iv39gV0P7ifk9nS9iextczdmTJlimqlo4sAXQXWa0QXiidPg/V+mN0quHfm6Mum1wiY123eY3+Bz9Cc1hzHiC2lHd8VfGcAvkOm1ygpQiFBbIdZG/aS0LI2khKojDCPCMAIrZ6AODArFbi/zfEzMEYOKj9UluhTR8XZrl07tQ2VDNzlwKzcMUU2psoGpisd4L1xjLiAiheufYD3MY9lgvdEZRvTYkfsBSpTM96kTZs2anRfYE5LbhUHVqz3w+xWsfL333+rV+t149wxvgruuwlsuC5P12td3EWCVVACCD5vBJn5nfHHNOsJGQoJYjvM2rCfhJi1kRSAEIAgAIUKFVKv7rgLDAyGhsrLjB8whQjK6Dc3++HN1q0pOKy4Hys6ERMd+P+0aRNeELZVmGHiRvNe4FxNj4InD0d0994d9+vGZ+GP+V5MAWJ6OSAM33nnnVi9DOZ5e/qMkxIUEoQQEmTAC2JW4tEtZrBlbMRV5AQSXI+3wZaesHqS4D2CF4lQSBAHMF2STsKsDfsJlqyN2HBvQaPlCe8DvBJoEZutUmtMgHVB95Dp4jcxW+0mcY1D8Cee3PNWz4K33gIAb4G5vxkv4r7EZ2h16zkCq0cprrhnjcQHPI/wXUiq2DMhRTy4ffu2NG7cWJfsBzNh4svr5DHByZMn1UyoTh4Xrv5AXCuGRUef44cffqgtEdM1N2rUSK3bZYfreNGiRVEeAnBHArvsaO1AOFnP5aGHHopMGbPLjnlFEJuB2BAT8xztsrdo0UKvJV1M1ziEASop975zABc9xgzANmtgJT4rpAviPdB3D3c4AivNihL74X/hKv/8888jUwtxLPTBo68f3yV8v7BfoKhSpYoSQTh/CCFcpzlAlymWACpec/AmBE96uldo0depU0d1YyCwEjEjEFHe/G9M4P7jHuGcvvnmG3WP4X3AfcV7+oL1s8fngTgOYAbEmp9vTLgLwqRKjNOIR7PJNpInT66OW72691NUxxcIl8OHD0vBggW1xRkOHDggKVOmlNy5c2uL/UC4HDt2zPFrhZDAj9LaR4hzMFs6CxcuVK/An/ZixYrJnj17ZN++fdoq8uCDEYOV4Qduh71hw4bqO2U9F5yHGfhplx3XizgJTIxnYp4jHtJ22bFguvakCiojBOyh4kML2hQBEAwY3RAVV3RYK0SMkeA+MqSJdT+IBjN2wgoq2UmTJilBgveCwHAXIqikPdmAeXzr/8cF833dQfYC7gPwVgzEdO+s5x3d+1n/3zy+9XOKDuu5ekt0nwfwRvBE93kkBQI6jXhMpE+f3nBVOLpECCGBx1UBqeehqzJQYwMAlyiOHEcC2819sLha6VHGhjCBDdvisp+5j/n+OCaODVzCRtms5+XJBjz9f1yxXiMWlK1Yz9tVyWpr9Jjnai4oW4nu/dzvvRXre+J/8X/R7est1vPA4u09xP3H5xCfYydkrONIJIPBdaH3EAiPRIYMGSR16tRy6tQpbSGEkMBitkpdFYhPrXl/EF+PglPAW/DCCy/IwIED74n7CDasnhNvvBeJDatHgsGWhBASA+YYB6gQXK1TbfU/qHgQF4FGHF5RBnDbm2MvoDJKqCICIHYiU6ZMscYOBAP4ruA7g++OGV+RVKGQIISQGDADBIE58JEdQCCYrVZUQIgrgqiwjrGQkCYNcwcxDTNmzFCBwEkpFsBXzO8KvjtJ/X6wa4MQQmLBdFMDu7sWzG4MK+XLl1fBlsHeXZBYcPL7EiisXRsUEoQQQgiJE4yRIIQQQohfoJAghBBCiM9QSBBCCCHEZygkCCGEEOIzFBKEEEII8RkKCUIIIYT4DIUEIYQQQnyGQoIQQgghPpOghAQGwSKEEEJI4oEeCUIIIYT4DIUEIYQQQnyGQoIQQgghPkMhQQghhBCfoZAghJBEBqapbtq0qSxfvlxb4s/7778f6/thHxwXx/dEbNs9YV4Lpts2wXkg+B5Lr1695OrVq3oLSYgkqGnEM2bMKKlSpXJ0GvFjx47JgAEDdMk5du/erV6LFSumXp0Cx7Ues1atWurV/QHiT/vJkycjrxeY+9ptt55LihQppFq1amrdTvuBAwfk8OHD2nr3XOy2W88Fv6P7779frdtp37VrV5TfqnkudttB165d9VrwgUq1T58+8t1338myZcui3Bdf2blzp7Rv316+/vrrGN/PFBuo9LNly6atd4ltuycgJDp16iRdunRRr+b15c2bV/r376/3IgkN6zTiCU5IpEyZUk6fPq0t9gMhgS9skSJFtMUZcI2ofDJlyqQtzoCKqGDBgmo9Z86ckaJixYoVcufOHbXub/v27dvVcdOnT6/stWvXVq+XLl2SzZs3q3XgT/v58+fl0KFDkef10EMPyWOPPabWX3zxRfUK/G3/9ddf5ZdfflHfKfDll1+q1y1btsjIkSPVOvCnff369fLtt99KmjRplK1Vq1bSoEEDtW49R3/bccytW7dGpm2b57hq1aoorUt/2hcvXizff/+9zJw5U1uDC7PCN7/vSVFIuJdJwsQqJCAWPBLDJtvIkCGD4fry6ZIbV64YRseOhrFokTa4sW2bYTRvbhinTmmDdxw9etRwPQh1yTnKlStntG3bVpecYc2aNUZoaKguOUfhwoWNXr166ZIzTJ8+3UiVKpUuOUfDhg2Nt99+W5ecYdSoUUbZsmV1yTny589vzJ8/X5ecYd68eUaBAgV0KbjYsWOHUb58eWPQoEGR6y4hobfGjLk/nuvmYv4vXq32nj17GuHh4WqbOzh2kyZNDFdDSFui4mm7p2OPHz9ebzXUvvgf2NzPBYu310icJVv2nJFL4omRGDRI5OefdcENeDCefhrSVhsIISRpUaJECdm0aVOc3f2mt+H1119XXmYsrspZevfurbbBA+Gq7MVV2Sv7iBEjIr1b8cXq6bAeu3PnzlG6y0xwLvDWuoSFuISF2t8fHhdiLwlfSEAk1KghMmSINrixeLFIWJjI6tXaQEgEiLdxmkAcE4SEOP9TTp48uV5zltSpU+s14g2omEGVKlXUK0DlDFECcRJX5s6dK9mzZ48MhrQu7777rt4rgsmTJ7se3zWkUqVK2iJqvWfPnvL3339rC0nsJGwhgR9Ay5Yi990nsnatiO7bjwQion59kTFjIhYSIzly5JDcuXPrknMgEPKrr77SJWdo0aKFnD17Vpec488//5RB8J45yNNPPy0bNmzQJefA51ofvz8HadSokTRv3lyXiDeULFlScuXKpV4RwxBf4C2AODE9DNbF/bsP74np4YAHAmIjbdq0KlCUJB0StpBwqV5ZtUoEAVfp0mmjhXr1xPXtFenWTRtITISGhuo1Z8FxnT52II4J8KAMlmsN1HGJZ8w0SquHAMIBQY9z5sxRlTw8BtZtdoOujQoVKqjjIQga3RXh4eHKI0GSDoknRoIkWiZNmqQWJ/n3338dPybAMadPn65LzoDshuPHj+uScwTCNf3XX3+ptFByL6ZgsHoIrPEUWDftqNAhKuwUE0jj/Pzzz1XXBsQDjsssjKQJhUQcuXDjgjy37DlJNzadJBuZTPJNyCef/vOp3LhzQ+/hf24bt2X87vFSfFJxCR0VKqnHpJbGsxrLtnPb9B7egVRXLE7z1ltvyaJFi3TJGfbu3RuQsQZGjx4ta9as0SVngGiCy99pnnrqKVmwYIEuOQeul8SP1q1bK6/AkSNHbBvsCeJh//79KhXaGrx58OBBJX5J0oFCIg7svbhXqkypIiO3j5Sm+ZvKmHpjpFbOWtJ3dV95ZskztogJV/tBPtr4kXRd1FVypcklo+qOkt5lesvy48ul6eymsvvC3YGYCCHEHTM2wZolYVbmderUUZU8gicRR4GK318gFqJQoULquOh2AaaXwjruC0n8UEh4CSr0Yf8Mk72X9srAygPlt0a/SbcS3WRiw4kyoPIA+fm/n+Xbbd/qvf3HwqMLZcimIdK5WGeZ33K+OuanNT6VEXVGyPHw4zJ081B1buRemLVhL8zaSBwgQwMpl4hRMOMjEHiJdFCzqwHdItgPaZlxHeI6OiBQIBogJswsD4gLDDSFeA2rwCCJm8QzsuX27SLNmon8+GNEkKU7Y8eKYMS/GTMigjQtwM0d3ciV5siW5miM0XEs/JjUml5LMqbMKH+1+EvCUofpLSInr56Uen/Wk2yps8msprPUPrGBnG2kXiE9KjogEDr93UmWHlsqCx9eKEUzFtVbRM5ePysNZzaUdMnTyYymMyRTythHyMTokniYYMRHJ7l9+7Z6dTIwLxDHBPjN4LsUDNcaqONi+GRUUISQwGEd2TLJeyTQX405EJ555hnZs2ePtsadg5cPqsq7ZOaSUUQECEsTJmWzllVdHyeuntDW+HPq6inZeHqjVMxeUQqmj5r6mjVVVtnQeoMsfWSpVyICOP3AN8FxnT52II4JIMCD5VoDddzomD17thoSvZ6nhgYhxDaSvJCAiMBALD/88INy5/Xo0SNegiImwm+FK7HhLyBKzlw7IxWyVVAxEdWmVpPko5KrYMtW81rJgcsH9J4JG2Zt2EuwZ21AQOA33q5dOzl69KhqNBBCnCPxCIlSpUQQCBRdawNjSSAS2K1bA3zwwQdqgqxbt26pyWQgKLp37y7//fef3iN2cqfNLRlSZJDDVw7LxRsXtTWCc9fPyZ6L/hcnECYI4Px93+/SfE5zyZ8+v4ytN1a6Fu8q8w7Pkzp/1FEeC29h1ob9MGvDfsysDauAwMRlly9fVt2U6OcnhDhHgouRuHnzpjz55JNRju2PdcwWaI29QMAWjtWmTRs1Y2NsMRI379yUDgs6yMyDM+X7et/LE0Wf0FtExu0eJ90Xd5e0ydPK3OZzpXqO6npL9HgTI7H65GppMquJXLp5SQV49qvUT5K5/sAv//0iTy9+WloUaCETH5ooKUJSKHtMrF27VmrWrKkElZMgPgWj4WG2SKf4448/VAVz7do1bXEGVOjwgn344YfaYj8QL8OHD1czgzpJgQIF1EycmPnUKeCRgFcR8Rnnzp1TKYYmCO7D8MtFi96NJUrsvPrqq1KuXDldIiThkGCnEc+XL5+q5BDRi+Ob+GP9jTfekJMnT6p1kDlzZhWp/Oyzz8qbb74Zq5AAiIFAxb7v0j5pU7iNNMnfROYemiszDs6QQhkKyZErR2wREjnT5JRFDy9SXhETeCsenvOwbD+/XRY/vFiKZYqYLjsmgk1IIDr8woUL2uIMLVu2VJ+t00ICU2w7nVKHz3XUqFGOCwlMNgWvIuZ8ADduRKRdI2Pm4YcfVp9BUqFixYoUEiRBkmCnEc+bN69RvHhxXfIfU6dOVVOU45pcAsJwtViMn376SW2L6zTi+y/tNx6b+5iRanQqI3RkqFFzWk1j85nNRv+1/Y0sP2Qx1p1ap/eMGW+mEV91YpWR6ftMRq3ptYwL1y9o613az2+vtmM/b9i/f7/hEmu65Bwu4aIWJwnEMYFLkAbNtQbquK+88op6dYlEo2/fvkbKlCnVgt93+vTpjWvXrqnthBD7SJzTiMcDuAfhcbjvvvuUCxiTDaG16gvInpjaeKpc635Nbj1zS1Y8ukJKZS4lm85sUp6D/Ony6z3jjxmX4S8CFWEfiOj+QGUUwAMWLNcaqOOaoCt08ODBcurUKZUSitRxdFfCw0gIcY4kLyTg9syaNat88803KrgS8Re+cPnmZWk5p6VUnlL5nswMZE+YaZpIBfUXSDMtlaWUx7RSBHwi8DNzysySJ20ebU2YMGvDXoI9a8MqKDp27BilazMpgoGcvBk0CvNo4F5gwcRZmEDL35gThVlHzQQo9+rVy7bht0nCIskLCbRS1q1b57OAMEmfIr3kTZdXtp7bKqtO3B0nHlkVn//zucrc6FGyR2QwpD9IkzyNtC/SXomIDzZ+EGUIbgR9rju1TpoVaCb50ufT1phh1ob9MGvDfsysDXcgKMaOHSufffaZtiQ9UHFDIGACLsR4RQf2wTwa5mRZGMWyffv2fhUTEAnvvPNOZKyKFYySiQyaTz75RFtIUiYoujb8Rd/yfVXXRZeFXaTf2n4ydudYFQw5csdI6VuhrzyY50G9p//oUryLGh4bk3bhWDhmz6U9pceSHupcXi/3ul/FCyEk4QLPKippLNEBbwBm9kT3rTlZFibpwiycMQV3xwUIEgRuf/fdd9pyL8iawtDcdnhCSMIiwQkJqOeESpGMRWRO8zlSLUc1+eSfT9REXcjU+Kn+T1FSM/1JypCUaqKuodWHqgm6kGYKUYGskcWPLFbnRDzDuTbshXNtOAsq5N9//10aNGigLZ7BxFvIkkJmiwkEBSbo8sf8FjgPeDeQOr9jxw6VpeQJZKVhSH5/iReSgFHhlx6IYZNtIGujWLFiuuQMcc3a8BfeZG34G2Zt2A+zNuzHzNoINsaPH2+4BIJx+vRpbfHMoEGDjJ49exrh4eHaEgH+31XpG67KX1viD94L77ls2TJtiQrs/j4mSRgEXdYGiSBQEfaBiO4PVEYBszaIXSDuBzNpYgZNX8D/Og1m/QQeJ2IkSQYKCWI7zNqwl2DP2ggGENiI4EkEMJpxD4kBCIlcuXKp7haSdKGQCCKYtWE/zNqwn+iyNpIyyL6Ib2XMypzYBYUEIYQkcNCd4W3XBIYuh2iwzkNiAu+A2d1AiL+gkCBJFmZt2AuzNpwD3Rno1kD3RmyDPEFwoKvLGpeA/1m6dKlKG41p/Al/g3PAuQQiPoM4B4VEEJEjRw7JnfvuxF9OgSHJv/rqK11yhhYtWsjZs1FHIHWCP//8U0065yRPP/20bNiwQZecA59r/fr1dckZ0IXTvHlzXQouYvI0WMEMqBgz4uWXX45M9ZwyZYqKpcHYDk5iihl6QZI2CW72T7jwnAymQvAWcq6dbtFh7g9z+FqnwZDhZiWL6w4LixjWG/MU2GnHQ+2WnnkUs6+arXe77JhXZfv27WoQHwC3LkbiA3bZMZIfprceOHCgOh+AB7o5tbVddowRMGPGDPnhhx+UDZUO5p8A69evt8X+8ccfqxl1MbfFlStXlL1v377qdwzssqOF+/nnn6tyMIHPu1OnTmpUy5gGpDLB6JYYmApgrAcEAmNsh+gw3x/vjWN4gzmmxNdff+3xnHAOwNv3I4mHBD2NeCCEROPGjR1v0WFeAGBWsoEkZ86c6vXEiajzeSQFeyCOCQJhD8QxQSDsefIk7Pll7MIc+hpCyo7sDQiDWbNmRYrH+ID3eumll+T//u//YhQwJHFCIWFh48aNyhXo9LUSQkhciatXIq5MmDBBveIY8YXeiKSNVUgEfYwEBQQhJLGAQElUzKikza4tf4GATKRNYzbP+IKhuOE5ee2117SFJGWC3iOBft8qVapQUBBCCCFeQo+EBQoIQgghxHeY/kkIIYQQn6GQIIQQQojPUEgQQgghxGcYI8EYCUIIIcRn6JEghBBCiM/QI0GPBCGEEOIz9EgQQgghxGfokaBHghBCCPEZeiQIIYQQ4jP0SNAjQQghhPgMhQSFBCGEEOIzFBIUEoQQQojPUEhQSBBCCCE+w2BLQgghhPgMPRL0SBBCCCE+Q48EIYQQQnwmmatF7rFJnixZMsdb6/ny5ZO0adPKrl27tMV+li1bJnXq1HH8WsuXLy979uzRJee4fv26pEqVSq3nyJFDwsLC1Pq+ffskPDxcrfvbfu3atSjXWqZMGfVqt/2///5T1wty584tWbNmVet22rNnzy4bNmxQNtChQwf1eurUKVmwYIFaB/62nzt3TubOnavWa9asKQULFlTr06ZNU/cH+NuO38ykSZOULTQ0VNq2bavWjxw5IkuXLlXrdtinT58uV69eVet169aVPHnyqPXJkyfLnTt31Lod9s6dO0vlypXVOiHBTvawXHqNQiKgQqJEiRLSvHlzbbEfVDb9+vWTr7/+WltESpcurV63bdumXk38accDGJ/tk08+GWkDhw8flosXL6p14E87KqChQ4fKkCFDtPXu/nZea7t27eTBBx+U5557TtmqVaumXjdu3Cg3b95U68Cf9lWrVkmXLl1kwoQJ2np3/zVr1qhXE3/aUal269ZNqlatGmkDdh4Tn+fOnTulV69e2urMcfF7ff3119V3mRASVUigAvVIDJtsI2/evEaxYsV0yRmWLFni+VpPnTKM5s0NY9s2bdCgDDu2WxkzxjD69tWF2ClXrpzhamHpkjO4HpCGq2WnS85RuHBhw/Xg1yVncLVajVSpUumSc+TKlct4++23dckZVq5caeTOnVuXnCN//vzG/PnzdckZBg8ebNSsWVOXnMMl+o1x48bpEiEkW/ackQuDLT15Ik6fFmnZUmTrVm3QbN8u0qyZyJkz2qAZO1ake3ddIIQQQoIHBlu6A7FQpYrI//6HznZtdLF4cYSIGDZMJFs2bXTx5psi6LMePlwbEjapU6fWa84BtzBiB5ymGT4vh6lRo4akT59el5yjffv2es05ECvhNClTpozsWnKSF198Ua8RQtxJUDES+fPnlzRp0jgaI7FkyRKpV6/evdcKr0TXriKffCJSqpQ2uoDQeO01kR9/FFftqI0u4JXAeQ8erA0xY8ZIILDLKRBLgIf/oUOHtIUQ4g2IuUH8FoMtCYnAGiMR9B4JMzqbEEIIIXGHXRtBxLFjx+TKlSu65BzVq1ePzGJwij/++EOKFSumS84BT9M777yjS86ArI2yZcvqknM0aNAgSiqqEyBr491339Ul53jhhRdkO7yRhJB7oJBIBFy4cUGeW/acpBubTpKNTCb5JuSTT//5VG7cuaH38B5rmqRTYOyDQBCILpyTJ0/qNWc5e/asXnMOjKMRCObPn6/XnMMcL4QQci8UEgmcvRf3SpUpVWTk9pHSNH9TGVNvjNTKWUv6ru4rzyx5xicxQQghhPgLxkgk4BgJw/U37J9hsvfSXhlYeaD81ug36Vaim0xsOFEGVB4gP//3s3y77Vu9t3cwa8NemLVhL8zaICThEfRZG3///bc89NBDfr9WDCc8YsQIeeWVV7QlKt5kbRwLPya1pteSjCkzyl8t/pKw1BHDUIOTV09KvT/rSbbU2WRW01lqn9hg1gYhvhFT1gYaIxAa1hFjnQAjmRYqVEhq1aqlLXHn/fffV7Eu8XkPEpwwa8MBnn76aXnzzTelYsWKMmPGDG2NGwcvH5Sz189Kycwlo4gIEJYmTMpmLau6Pk5cPaGthBCngID45JNPJEuWLKrR4GTg6fLly2XYsGHx8vRhqHEM816yZEltIcQ3gl5I2OV1+fHHHyVFihSyadMmeeKJJ6RSpUoyc+ZMvdV/hN8KV2LDG5i1YT/M2rCXhJC1gWcGBAQmaRs4cKDyPnbt2lV5Nu0Gk5VhnpHatWtLrly5YhUSZ86ckaZNmyoPMxZ4IACECATExIkTpVOnTmo/QnyFHgkNKlksx48fV8uJEyfUgih8c0H2AZbTp0+rBT8+LIiYx4JJscwFM2D26dNH0qVLJ5cvX1aTLWGmxipVqnjtocidNrdkSJFBDl85LBdvRM22OHf9nOy5eHfGS29h1oa9MGvDfgKVteEuIC5cuKCEOexvvfWWWr906ZJarLFX/rJDROCZgkkGd+zYIU2aNJFs1lF23cD+ELWY0A3niGcWBAS6RNCVMWjQIBk/frzMmTMnxvchJDYoJDTo+4TXAF0RFSpUUC1LLPfff79a0OLD9NRYSpUqpRbEOGApXry4av0WLVpU7rvvPrUUKVJEhrsNmw1BsX79+sjpkGMDQqJajmqy7tQ6mXkwqjcD5X/P/qtLhBC7QZwEvCHnz59Xlb0JppDH779hw4aSN29etVjHnPCXHfFj6EKBB2HdunVqmn5vQBcIujEgFiAa8P8QGZimHTEWhMSXoBcSpmvw6NGj93glvPVMePJOYHn66afl1q1b6v0BMiZatWolK1as0JaYSRGSQoZVHyb50+WXLgu7SPv57WXszrHqtdfSXlIsU9xd98zasBdmbdhLILM26tatK999951qMGTOnFlvifBCweO4cuVK5fHDggaHib/sVvbu3RurCIDw+PDDD1UXCLox0CUCAQEOHjwo+/btC8jvkiRBjGiIYZNt5MuXz/FpxF0PAFuu1SVCjJCQEPXemM66devW6lgmcZlGfP+l/cZjcx8zUo1OZYSODDVqTqtpbD6z2ei/tr+R5YcsxrpT6/SeMXPo0CF1jwkhcWPJkiXGunV3f2c//fST4RIUhktQqN+4q4Ggt9hPeHi48frrrxs7duzQFsMYP368Og9zWbZsmd4SAfZ1CXqjZ8+e6v+xvUmTJoarEaT3ICRucBpxB0A8BIKb2rRpI2vWrJHff/9ddZn4QsH0BWVq46lyrfs1ufXMLVnx6AoplbmUbDqzSXKmyak8FoQQ50Dcwe7du+X//u//VFfmn3/+6VjsBrwJoECBAuoVoLvC9WyPXNBNCw8EYiIAumCRnrp//34Vv4VXxEkwNoL4AwoJm1i4cKHMmjVLfvvtNylXrpy2xo3LNy9LyzktpfKUyvdkZhy4fEA2nt4oFbNXVKmg3sCsDfth1oa9JLS5NiAoEHT60UcfqdgGJ0BXaoYMGVTXRXRgG2Isxo0bF9mdAfGA7hCMh4GuEUL8RdALCah3u2jcuLFe8430KdJL3nR5Zeu5rbLqxCptFTUs9uf/fK4yN3qU7CHJXH/egn5Xp2HWhv0wa8NeYptr4/XXX9dr9gNBgGDu2HjttdfUK4QDvKMIFv3888+VyMD/Q5CZ6aCExAd6JBI4fcv3jQy27Le2nwq2bDKriYzcMVL6VugrD+Z5UO9JCAkG0I2BJTbMLA+zuwPrphfD7Arp37+/KhMSHygkEjhFMhaROc3nqDTQT/75RE3UdeTKEfmp/k/Sr1K/OHkjALM27IVZG/bCuTYISXgE/VwbGzZsUGNIOH2tqFxjm2vD33CuDUJ8I6a5NggJRjjXBiGEEEL8AoVEEMGsDfth1oa9JLSsDUIIhUTQwawNe2HWhv0kxKwNQoIZCglCCCGE+AyFRJDBrA17YdaGvTBrg5CEB7M2Apy1UbhwYW1xhjFjxsibb74ZpbsBMQwAo93ZaV+9erV6BRA0uAfATvvWrVvVrKsm5rnYZcfUzogdmDJliraI5MmTRwkMYJcd36UlS5bI7du3tVWkdevW6nX69Om22B966CHJlClTlHPBTLhmvIZddjwn3GMzzHO07gv8ZQ8LC2PWBiEWrFkbQS8kMK13lSpVAiIkMNRtIMBMgDt27NCliFY0wPTIdtoRFGiCkfXMaZDttEPQ7NmzR1vvnotddtMzgLkXTPD9wlTTwC47KjikKG7btk1bRR5++GH1ivOzw96zZ081a671XB544IHI+RvssmNafwgJM0YjRYoU0rRpU7WOgEi77BjEiUKCkAgoJCwESkgQQgghiRWOI0EIIYQQvxD0QoKeCEIIIcR36JEghBBCiM9QSBBCCCHEZygkCCGEEOIzCU5IOB2zwBgJQgghxHfokSCEEEKIz1BIEEIIIcRngl5IsGuDEEII8R16JAghhBDiMxQShBBCCPEZCglCCCGE+AxjJBgjQQghhPgMPRKEEEII8RkKCUIIIYT4DLs22LVBCCGE+Aw9EoQQQgjxGQoJQgghhPgMhQQhhBBCfCaZEU2QQLJkyRyPH8ifP7+kTp1adu/erS32s3LlSnnggQccv9Z58+bJ0aNHdUmkdOnS6vX8+fO22U+ePCmnT5/WFufAcS9fvixFihRRZfMcDx8+LBcvXlTrwN/2bdu2qVcTJ+y7du2SW7duacvdfe22B+JaA3FMECh7aGioVK5cWa0TEuxkD8ul1ygkohcSY8fiqS0yeLA2aN58U6R4cZFu3SLK27eLNGsmcuBARHnMmLvbYuCZZ56RX375RZdEypQpo15RSezcuVOtA3/ar1y5oiqilClTaqsz4N7evn1bkidPrsrmOV67dk327Nmj1oE/7VevXpWDBw9GVrq5c+eWrFmzqvX//vtPrl+/rtb9bU+VKpUcOXJEfY/BqFGj1Cvu+7Bhw9Q68Kcd1z537lzZuHGjsvXo0UOqV6+u1l999VW5dOmSWve3Hb+dMa7vO54VKVKkkG+++UZt37x5s3z11Vdq3d92XOunn34qN2/eVPaXXnpJ7r//frXeq1cv9T0D/rbjvuMz7dChg7ITEuxYhQQe8h6JYZNt5MuXzyhatKguOcOKFSvuvdYxY3ADDKNvX23QoAw7toMrVwzjuecMY9u2iDJeq1W7W46BcuXKGW3bttUlZ1izZo3halXpknMULlzYcD2cdckZpk+fbrge/LrkHLly5TLefvttXXIGV4VuuISMLjmHS/gb8+fP1yVnGDx4sFGzZk1dco4SJUoY48aN0yVCSLbsOSMXxki4A4/DggUiw4drg4vwcJFOnSLW+/aNeAVp04qrmSRSqlREuWBBkaJF4eaIKJOA4vqu6zVCCCF2QSHhDroyJkwQSZ9eG1xAMMDm3s3hDgQHXOz33acNCY+QEH7khBBC/AdrFX/yySci9euL1KunDdGDfvxixYrpkjOgHz9nzpy65By41oLw1jgI7u26det0yTn++usveeKJJ3TJGWrUqCErVqzQJeeYNWuW49+nFi1ayMiRI3XJORCLUsr0PBJCokAh4S/QJXLokMi772pDzGTLlk1V7MFA5syZJV++fLrkDHjoly1bVpecA8cMxHELFSqk15wjENcaqPtLCImeoBcS8e5Ht8ZPoPsD3SAJlGPHjkVGuyd1/v33X/nnn390yTlwTKePG4hjAmumjFPgOpF95DS4ViezyQhJTNAjEV8GDULeauzxE24sWbJELU4TiHEkli9frhYn2bt3b2TqopM0adJEJk2apEvOEO4Ss02bNtUl53jwwQdlAQKTHWT27NnSqFEjXXKOwa7ft5lKTAiJCj0S8fFIoFJetEhkyBAMvHF3wRgUSYDbxm0Zv3u8FJ9UXEJHhUrqMaml8azGsu1c1AF7EirM2iCEEPuhRyI6MKiUJy8DbOaAU9mzi6xahRor6uLFgFSBwtusDcP199HGj6Troq6SK00uGVV3lPQu01uWH18uTWc3ld0X6OYlhBBCIREwEnrWxsKjC2XIpiHSuVhnmd9yvnQr0U0+rfGpjKgzQo6HH5ehm4cqseENzNqwF2Zt2A+zNgiJHgoJm3j77belQoUKahhhTyTkrA0IhNE7RkuWVFmkf6X+kjLk7pDaLQq0kLJZy8qO8zvk4o2781vEBLM27IdZG4Hj+++/V8Ojb926VVvsA0O/YwhvDEuO5f3339db/Afe0473JUkXxkjY1I9eu3Zt2bFjhwoMQysqOkHhJN5mbZy6eko2nt4oFbNXlILpo3oSsqbKKhtab5CljyyVTCkzaWvCg1kb9hPsWRtjx45VAvm5555TZXje7AQiok+fPpI3b1713EKQLeZ1mYBsMT+BY+A9zQn2CPEGeiRsonnz5urBgoceXMDugiIhZ22cuHpCzlw7IxWyVVAxEdWmVpPko5KrYMtW81rJgct6gjIvYdaGvTBrw36sWRumgHjhhRdUpYu4o48++khtsxNMQrdv3z5p166dKqdJk0bq1KkjS5cuVQLAExAZWOBhML0Y1t/imTNn1HcHdnhQMSvxqlWrAuLhIomXoJ/9Ez/CunXrysCBA7UlAly/O97YrGXMvolK5caNG9oiki5dOilcuLCaXRAu2smTJ+st9rN27VqpWbNmrGlsq0+uliazmkjedHll36V90ix/M3m04KOy/MRylcWRLXU2md54uvJYeANaN6hgv/32W22xnz/++EM9cDEzqJOgu6pbt27y4Ycfaov94MHfunXrKNPGO0GBAgWUW/+hhx7SFvsZMmSITJ8+3fGYkJIlS6pKG8fGlPjWihvdlBDoEBiYMh90795dwsLC1Lq/7J4wuyD69++vXt3B9nfffVeWLVsmtWrVUqICz7zPP/9cCdBOnTpJly5d1CueV+3bt1f/h+dWiRIl1DohnrDO/hn0HgkEi5miybqgondf0C3gvmAaaeuCB4y5oMJ2F2OhoaFqP0+ixAniMtcG4iDeqvCW/NboN3my+JPyXZ3vZHTd0XLy6kn5YOMHcvNOcAxuRQjA7xbC1P23iynOAaZZv3DhglrwvDDxl90deBZ+//33SA+FO3gGwWNiigh35syZozwPEKEAwqFNmzYqeBcikRCvcVV0Holhk20EYhpxlwo3XJWrLvmXqlWrqvuIJWPGjEaDBg2MBQsWqG1PPPGE49NNHzp0SN3j2Fh1YpWR6ftMRvGJxY2jV45qawRXbl4xGvzZwMg9Lrex6/wubY2Zli1bGh9//LEuOcO2bduMLVu26JJz4JiBOO6+ffv0mnME4loDdX+XLFlirFu3Tq1/8cUXRtasWY20adOq33aWLFmM77//Xm1zivHjx6tju0SCttzLjh07jA4dOhinT5/WFsMYNGiQWsLDw42ePXuq97FibickNjiNuAXX/dBr/gV9jZs3bxaXgBCXgJCpU6eq/mSsg8Qw10ZYmjBJlzydLkWQNnlaZQ+/FS5nr5/V1phh1ob9MGvDOV5++WUVW4C4CPyO0UXwzjvv6K32g+6KcePGqe4U09OALgt4SswF3gpsL126tDpHYHoo0NWIc96/f7/H7w0DLUlcYbClTSAo7L777pNp06ZFERCBxNusjdxpc0uGFBl0KXHCrA37CfasDQgKVNaI20DchN2ZWRACSP2EGEDDxBQIADEOaBSZCwQGhIJVFMQkHgDEEQQIAy1JXKFHwiaPBIKZtm3bpiLbPZGQszbCUodJqSylZO/FvSqDwwrGjjh85bBkTplZ8qTNo60xg4eTNVLcCZi1YT+cayMCCArEMyCQ2U4++eQT9YpnCzI2YgO/AasowG8/S5YsKnAUIgRiA54NM6YLXpXjx49LdozYS0gcoEeC3EOa5GmkfZH2SkQgqPLGnbtZJzMPzpR1p9ZJswLNJF96Z7sr4opdIpEQpzG9Bd99952kTZs2sgsDHgqIAHdgQ9CmVRRASGTKlEn9P3j++eeVhwJliKBKlSpJrly5KCRInKGQCDK8zdroUryLGh4b6Z5IBR27c6z0XNpTeizpIfnT5ZfXy70urkeZ3psQYifwICDLwtp9gWXEiBEevROwDR06NEoKJzwQ1v2t77lp0yZ59tlnVdnaZUKINyQoIQGFjS91MJDQ59rAsNiYqGto9aFqgq7ui7srUdGmcBtZ/MhiKZLR+4AszrVhL5xrw3441wYh0UOPRICA6k/oWRsQE/8r9z853OmwGM8acqXbFfnpwZ+8jo0wYdaG/TBrgxASKCgkgghvszaSAszasJ9gz9oghERAIREgEnLWhr9h1oa9MGvDfmLK2iAk2KGQIEmWYIm3IYSQQEIhEWTEZa4NQgghJDZYqwSIhJ614U+YtWEvzNqwH2ZtEBI9CWoaccw4lzJlSvnvv/+0xX527NihKrqYZtmzgxdffFG2b98uW7Zsiex7zZs3r+TIkUOt22GHbd++fWoqc6eBiEGwpwmERdasWdX6xo0b1Svwt/3cuXNq0B2TihUjpj63y962bVvp3bu3PPPMM9oS8VmXK1dOrdtlr1q1qhoD4Oeff1Y2DDI0fPhwtb5w4UJb7KjQMfCR9Vz69u0rRYsWVet22XEPfv31VzX8PMAASh9//LFanzlzpi12HBfXXLlyZWUjJNixTiMe9EIClTnSyZwWEmaQmrXyA2YFZYcdw/hiZLuEgp3XCmDHxGl37tzRlrv72m23nkvq1KkjW7N22q024OlcgJ12DMFspqLaabfagBPXijRmCglCIqCQsBAoIUEIIYQkVqxCgjEShBBCCPEZCglCCCGE+AyFBCGEEEJ8hkKCEEIIIT4T9ELC6YBSQgghJClBjwQhhBBCfIZCghBCCCE+QyFBCCGEEJ+hkCCEEEKIzzDYksGWhBBCiM/QI0EIIYQQn6GQIIQQQojPUEgQQgghxGcoJAghhBDiMxQShBBCCPEZCglCCCGE+AyFBCGEEEJ8hkKCEEIIIT5DIREdY8eKvPmmLliADdtMTp8WqVFDJFkykUKFRLZv1xsIIYSQpE8yI5qhHZO5KkanR30sUKCApEyZUv777z9tsZ+tW7dKuXLl5Pbt29riAkKhe3eRvn1FBg/WRhcQEUOGiIwZI9Kt211bs2Yi9eqJLF4c8T8zZohkzx6xPRrKVCojV65e0SVnuH3rtpy9dFbCsoRpizPcvHVTbl28JRkyZFDl2rVrq9dLly7J5s2b1Trwt33ZsmXqFeTLl8+l81xCz4Wddvxm1q9fr634ari+Gy5Onjxpq/2ff/6RI0eOqPWSJUtK4cKF1frs2bPVK/C3/eLFi7J8+XJtvXsuhw8fli1btqh14G/733//LdevX1fr+O3mzZtXrVvP0Q57hw4dpHLlymqdkGAne1guvUYhIf/++6+UL1/+rpCAMDh0SKR6dZGjRyOERHi4yDPPiOTPH7FP8eJ3hYQVeCe6dhX55BORUqW00TMQEtsabRNJqw1OcNG1jHYtr6qSY6RYlkLKnC4jVatWVeVatWqpV1SKu3fvVuvAn/aNGzfK1KlTpUmTJsqWIkUKqVatmlq3Vn7+tg8bNkxVtA8//LCyd8X3wQXOB5W9iT/tq1atktdee831FXV9R13kzJlTmjZtqtZ//PFH9Qr8bW/ZsqXcf//96nqBeY5Lly6VvXv3qnXgT/snrt/Wrl27Ij/7okWLRq5bz9Hf9kceeUTatWsnnTt31lsICW4oJCzcIyRM4JVwPbCieCQAhEZ0QiKOHgklJNppgxO4DpfsRdfnusDZzzXFmymke9Hu8u2332qL/fzxxx/qwX/t2jVtcYbcuXO7vhrd5MMPP9QW+4GQaN26tUv3uoSvg+D3+v3338tDDz2kLfYzZMgQmT59uqxYsUJbnAFiqV+/fhQShGisQoIxEv4AHotOnUTq1xd59tlYRQQhhBCSVAh6IeEXr0vatCITJohcuSKyYEHUYEwSMMxYBifJleuuSncS9OU7TZYsWfSas6AbyWnQtUEI8Qw9Ev4EggJxFOgSIZGkTp06sv/ZKfDg37Fjhy45B2IYnOzWADVq1JA5c+boknMgwNXJbg3Qt29fWYwuRIdBzEupWOKeCAlWKCTig9mlYT7YEGy5aBHCyyPKhBBCSBKHQiI+wAMxfHhEgCXGkQgLi4iRQCooiQSBrNsdHl8DwZZm5oST4JhOeyQQbPn444/rknM899xzLt3sEs4OgqyNn3/+WZecA9k4Tn+HCUksUEhEB7Iy3DM2AGzWjA0EVroe5IJYCyyesjn8wKA8g+R6petiVDbUgnXY7KRBhgZyuNzhyGNiGV0Q+aNx4+bNm3L27Fldco6//vpLrznHunXrJByeKodxOosBzJw5895sJ5vB8b766itdcg6knBJCPEMhkQiYX3y+9M/dX1ImS6ktotb75uprm5jokq2LTLtvmuRNETEYj0n37N1la5mtukQIISTYoZBI4EAo1ElfR60vuLRAkq1PJmNOj1FliIk2WdqodX/zZq43JUNoBrlh3JD3j72vjrvt2ja1rXTq0j55JpyGWRv2wqwNQgigkLCRJUuW6DXfgVCAYLh0+5L8eCZixL3FlxerMir2MlvLKJs/gTcif4qIUTxP3Toliy5F9IP/fu53JSxAzfQ11as3MGvDXpi1YT+xZW2MHu2ssH7/fZe4T5YsckGZkEAR9ELCrtE7GzZsKA0aNJCnn35adu7cqa1xAzEKmUIzqfWLdy7KkRsRcymMOzNOMm7KaIuIAMVSFZNUIanU+oXbF+TvS3+rdQgKCAsAoQHBQUgwM2XKFDVMOAJPnYjJOXPmTOSw5Xh2YUFMDuZZoZgggYIeCZvAeP0IDPvll1+U2xmCIq4BW3lT5pWMIRnVOir0Lwt8GRn0eLHCxYBW5BAaEBzewKwNe2HWhv24Z22YAgK/awyzj8q9UaNGeqs9XL16Vd555x3l3evfv7+2iqRJk0b69OmjJpEzGy14rVChQqTHwjovDLZhDhoMNW7ug+1YzP0nYIA9DQQK9sU1YhteIWhMTHFj/m+vXr3UuQK8vvHGG5HHMrdZjwW7r40tkjCgkLAJzBjYu3dvtX7jxg2ZOHFi5IPHW0Fh9QwgLgGLCeIXEKdgR7Dl7uu75fqdiNkV4RGBZwRYhU1cYNaG/TBrw17M36y7gMAMqGnTplXzcNjNhg0bZP/+/fL8889ry11KlCghc+fOVa+opNu3by+TJk1SHgt08Q0aNCiysj59+rRkzZpVTYi2cuVKJUAwYy5mVTX3R7cVKnws8HZgnhyIC2yHkIGgwTaIiE6dOilhY3pHAO4TQNmcJRbHGjFihNoGcYLzwP98/fXX8vLLL0cRJyRxQSHhIiQkRFX8/l5+++03SZ48uToGJo+CoMCPEQrcF5wKtkTXyaGbh9Q6sjY6Zu2o1rtm66oEDCHBCIRpx44dIwWESfbs2aV69epq8j/zt2+doRV2TDOPxVt7/vz51WK1Q0SgEs+WLZu23Asq93Hjxsnrr7+uRAXA5GqY9h0iF+B94F1p3ry58mYAeCisAuXQoUNKBGC5cOGCDB8+PPK4mAwPNmyDDfE5ZgwU3g/Xb87aCrGwb98+6d69u9oGsYDzg/Aw38+cPTYQMU3EPwS9kECUfebMmWXt2rV+X3r06KEUt0nGjBmlePHiSpXHFWuw5c9nf5YjNyPiJeyKVbAGViLlE90pD2VwNrAuvjBrw16CLWujTp06qgshVapUapZik8OHD8uBAwdk9uzZkb99iAsT2NesWSOrV6+OIgJmzZqlbOiagofABJ4etN6xWO2onIsUKaJLnjl48KCquKtUqaItdyt3E7xPmzZtIoWGu0BB5Z8pUyblacE6BA3ESHS4d6O8++67keeJ/4e3wzwWxAI8J7CZ++NewUYSLwy2dFX0oaGhkidPHr8uOXLkkC+//FKpdgiIMmXKyJgxY1Rr5sknn9RH9x5rsCWCHxEzAeISqxAX3j36rvQ40EMJGBNkiZgpoOj6QBeINzBrw16YtWE/iH2pWLGifPzxx3Lq1Cl59dVXIwUFvI6wuz8DTMyy6a0wMcumV8LELLvbgdnSdwddBWZ3gVk5m5jdE9Z1BIKb4D2tZQgLiCYIELxfhgwZIj0XwCo0cEx0SyxYsEA9S7EN3g1TxOO9rOIH5Z49e6rnIva3Lk4/I4j/YNeGTaAPFV0ZVgER14A4a6xCIDCzQ9CdguXFgy96zCIhJJhAxWoVFGDkyJGqMrUTVMgQARADVuARQJwDuhw8gdgKeD3gpTC7Kkyhgfe6dOlSFOEBYRGdEDC7TiA08F6IfbB2U0BIQBSY72d9L5J0oZCwCQSEvffeez4JCBNrrEJY8jCpn6G+WremhcbFM+At1qGxrdkh7lkkZlpobDBrw16YtWE/nubaMAUFKk/ETtjtnUFmBCp23AMTxBzAIwAvJ7oPzHgD00OF7fAamDETOFdgVvQQA4j38CQssL506VIlHMxASARK4hxwLvBIQCSgDMxzMT0inkQKxAy+rxA3APsgkwPnSBIvFBI2Adcf0p7iy8rLK9WrNbASggLCAkBoQHD4E2vXCYIr66WPmITMDLZE7ARiKLyFWRv2w6wNe4kp0wqCYvz48bpkH2j1T506VXklzPgCiBcEQiJzwtwHAd2o/M0KvUuXLpHbrd0SZhldr2bZKixM70Xr1q1VGe+H98X74zjo7kDMCESWeS4Ql2bsDP4f98YaXwExgywNM0YCx4V3w5rOShIfFBIJHMQpWIemhpfAnHcD8QuDj3uYWMwPxBRsufTyUhVDQQhxFlTeCNY24wo2bdoUGchogkoeHglzH1NEAMQh4P/NmAf879ChQyPL+F9sxytEBgItIUTM98L7YpsJ/h/nYJ7Lo48+qsbOwT5YIBCs8RUA52C+Hxbr+ZHECYVEIgAjWJopnybI2nhsz2N+90aYeAq2NOfdaLirobYkbJi1YS+cayNpAyHhHmhJiCeSuRShxzGi4XaKZpNtwAWGKOj//vtPW+znxIkTKm/7+PHj2uIMZSqVkW2Ntol4jo+yB9fhkr3o+lwXOPu5ZhiYQb5p/4107txZWwhJXCBWAG74ypUra0vSxxzdkh4D4onsYXcbTfRIEEIIuQcICIoI4g0UEsR2mLVhL8zasB9PWRuEkAgoJIjtMGvDfpi1YS9xnXCPkGCCQoIQQgghPkMhQZIszNqwF2ZtEEIAszYCnbVRVRuc4Izrc+3r+lxHO/u5pvs+nbxb7101XLgVc+hd9/kD/Gm3872Bu7106dJqpkX3/vRSpUqpV7vs1hEGTew+Jq4T86jY9f7R2T19rnYfE6mQwZa1QUhMWLM2KCQCKCR27XW43/WOyC3XX/KQiKnNnSRHuhxqlLxbt26pcs6cOSVdunRqHTMW2mVHvIL52WJytoIFC6p1u+wYOhiVOgbluX49Yp4UTGKUO3dutW6X/cEHH1QxC0hTBPAWYHAgsGfPHlvsGNUQFfpPP/0kd+64vlwuWrZsGTkksl12DLOMGTUxcybAZ92sWTO1DgFglx3DYFNIEBIBhYQFCAlMgXvs2DFtIYQQQkhMcBwJC06LJUIIISQpwWBLQgghhPgMhQQhhBBCfIZCghBCCCE+QyFBCCGEEJ+hkCCEEEKIzyQoIYGUU0IIIYQkHuiRIIQQQojPUEgQQgghxGcoJAghhBDiMxQShBBCCPEZCglCCCGE+AyFBCGEEEJ8JsEJCU6iRQghhCQe6JFwwfErCCGEEN8IeiFBDwghhBDiO/RIEEIIIcRnKCSiY+xYkTff1AULsGGbJ2Dv1EkkPFwbCCGEkKQNhYQnIAi6d9cFCxARQ4boghvbt4sMGqQLhBBCSHCQzIgmSAABiE7HDxQsWFCSJ08ue/bs0Rb7OXbsmFSuXFmOHj0aYYBYOHRIpHp1cRlFBg+O8DA884xI/vwR+xQvLtKtW8Q6wPbXXotYv3BBZNQokbRpI8rRgOMGgsuXL0v69Ol1SSLXYbfiT7ud7w0Skj0QxwSBsAfimCBQdpAhQwa9Rkhwkz0sl16jkLhXSJjAK7FrV4SQsAKh4S4kzH1hX7DAKyFRvnx52bJliy45Bz5TM0slVapUkiJFCrV+7do1uXXrllr3t/3OnTsurRXR3YNjp0uXTq3bbb969arcvn1bradOnVp9t4Cd9iJFisiOHTuULSwsTN544w21fvjwYRk+fLha97cd5/Dvv//K+PHjlb2b67tZqlQptf7tt9/K3r171bq/7efOnZOPPvpI2fLlyycvv/yyWsfvd8SIEWrd33ZcK2z79+9X9ueee07dc/DFF1/IkSNH1Lq/7ThuzZo1Xe0LVwODEBJFSKBi8UgMm2yjQIEChutHq0vO4BIQRu7cuXXJwpgxhtG3ry5YgA3bTE6dMoyOHSNeYcf6lSt6Y/SUK1fOaNu2rS45w5o1a4w0adLoknMULlzY6NWrly45w/Tp042MGTPqknPkyZPHePvtt3XJGVauXGnkz59fl5yjaNGixvz583XJGQYPHmw0btxYl5yjRIkSxrhx43SJEJIte87IhTES8eWTT0SefdYlz7JrQ8Lmxo0bei3pc/36db3mHPCOBALTC+Qkgbi/4NKlS3qNEJIQoJCID6dPiyxaJFK/PnzqEQGaP/8cEU+hXe2EEEJIUoZCIj7AC7FqFTqBIpYxY0Q6dvQqRiJQZM6cWa85x9ChQ+Whhx7SJWcoVqxYZMyAk3z55ZdSrVo1XXKGGjVqyOTJk3XJOT777DO95hyVKlWSV199VZecY5TrN23GixBCokIhEUTkzp1b0qRJo0vO8fjjj6vFSfDQd/qYAMd89NFHdck5ateurdecA9fqtEBs1KhRQD5XQkj0UEhER7du92ZsANiwzROwT5iQYL0RgeLmzZtqcZJAHBME07UGIi4D12k4nE0GcK2BuF5CEgMUEkEEUl3PnDmjS7GDFLv//e9/UrJkSZVWWb9+fZV6h7THuFCiRAl56aWXdMkZZs+eLdkDEABbqFAhGThwoC45w/r16+W+++7TJeeA12cB0p0dBN0pTZs21SXnQBro7t27dYkQYoVCIhFw27gt43ePl+KTikvoqFBJPSa1NJ7VWLad26b38B5vszaWLFmiHth4cO/cuVPZFi9erB6oPXv2lFOnTilbQoZZG/bCrA1CCKCQcIHWdkLFcP19tPEj6bqoq+RKk0tG1R0lvcv0luXHl0vT2U1l9wX/t5LguXj//feVgMAAPBg4CwNNjR49Wo3sN27cOLVuDsZECCEkeAl6IRGI/ta4sPDoQhmyaYh0LtZZ5recL91KdJNPa3wqI+qMkOPhx2Xo5qFKbHiLN1kba9eulfnz56v19u3bS9myZdUole3atZPHHntM2adPny4HDx5U67HBrA17YdaG/TBrg5DooUfCJqZNmyZt2rSRs2fPakvcgUAYvWO0ZEmVRfpX6i8pQ1LqLSItCrSQslnLyo7zO+TijYvaGjPeZm1YhyjPkSOHXouYZwAVNFi9erXXQ3wjyt7pSHtmbdgPrpVZGxFdfsWLF49z7JAvLF++XHlQPS3YltCAVxPDuNt1b9zvB7pj4xIHBs+red/wijKJOxQSNoHALAT85cyZU1577bU4fblNTl09JRtPb5SK2StKwfQFtTWCrKmyyobWG2TpI0slU8pM2uof0I3hDVbBERPBlMkQTNca7FkbEBAQNi1atFDeudDQUL3FPhAAjRglzC2D+2Auy5YtU5WgL88ZO0GgNTySdqSd43qxnD59OvI+dOnSRTp16uTVfYC4QbyNGZSNe2vOt0LiBoWETbz++uuSJ08e9fD56quvJFeuXCoDAl96bzlx9YScuXZGKmSroGIiqk2tJslHJVfBlq3mtZIDlw/oPb3D26yNMmXK6DXXOZw4oX6gAMF11vN3nyUxOpi1YS/M2rAfa9bGokWLlIB45JFHIrsABwwYIClT3vUY2gUmTsubN+89FTMyq7JkyRL5+4QnoEKFCpEtdXdvhbUlj/3MgGo8H3r16hXlOTFhwgRlQ8VrttqxmO/rfizsb4L9sI/5f1bwf02aNIk8tvmeWMzjRQeOgffEa7Zs2bRVpHXr1uo3OGfOHFXGdeD74ul9IcYuXrwY+ZzAvcX/krhDIeECLfA///wz1uWPP/6I09KyZUs1EyUqYAiKr7/+WnUvtG3b1qvWXPitcLlx54b8vu93aT6nueRPn1/G1hsrXYt3lXmH50mdP+ooj0Vc8CZro1y5clKrVi21PnnyZFm3bp0KrMRDE7ERiQVmbdhLsGVtbN++XerVq6e6rvBbQCUEUEEhbgOiasqUKWq5cOGC2gb8ZUeliMrTU6sZAsLsRsU+iG2aNGmSagRgNtpBgwZFVtjY3rt3b2XHdjR6Pv/8c1XB4n0yZswoaS1j4aCCrVOnjhIvaLVv3bpVGjRooP4XAgazsuLZZh5r2LBh6hjWFj8WrFvFAZ4tTz75pBQoUEBV8ADvgQVi6RPMY+QB3AcEfPfv3z+KiAA4R6Som14JvGI/vKc5QzDuK7Beq/VcSdyhkHCB8REQTBXbMmbMGK+XsWPHyqZNm6I84PHgxVTTaC3HxQ2KOIi3KrwlvzX6TZ4s/qR8V+c7GV13tJy8elI+2PiB3LzjX7c2VDm6YzCtO2IhEDyI84YwCqZJvwixcvz4cVm6dOk9AipTpkwqGHnmzJmqhYzl/Pnzeqv4zY6KDxVilSpVtCUCVIIQAoiTQaWMShbiAJ5AAFvhwoVVgwD7um/H++3bt091z+AYiIUyPR7YH1Oqmy11iAp4LM2Ghgm8Cai48Z547mG7tcWPBetmZQ5Rs23bNuUt2LBhgxIozz//vNoGGriECsQI3tMdnCO8LxAxMQGRAc+Eea64JggUczp83I/y5csruxk4jntFfMD1xfRIDJtsIxDTiNuJq+Wi7iMW15fVyJUrl+FSy2qbN9OIrzqxysj0fSaj+MTixtErR7U1gis3rxgN/mxg5B6X29h1fpe2xgymEXf9uHQpZlwta2P9+vXqHF0PFjWN8vDhw41p06ZFXpOrlaP3jplff/1VLU7iekg5fkyAY+IeOY2rgtNrzoFrdXoa8Xnz5gXkc12yZInhqngMV4VrPPvss0ZISIjhEg/qd4DfhxOf+bJlyyJ/e+6L+VvcsWOH4aocPe4zfvx4tR3TsOPVE3gfHMfEur9LBBguAXLP/6JsHtP6TMD7mGX3/4Ud52Ouu58rliZNmhgu0aD2sYL37dmzp3rP2LCem7lYj2teq/VciXdwGnEHQL811DDULuIj0GJAjAICpeJKWJowSZc8nS5FkDZ5WmVH98fZ695lhsRlrg24a5FqB/cjWhKuH6SKc7DGRVgzOmICUfZOR9oza8N+cK3BlrWBlvl3332nAo27du0qLkGhukbffvttvYd9uAda4hVlpDnDfQ/QWsfzxvReWBe4+WHHb9uTC9+Te9+6P45njSkwMb0QrspY3n333chYCGvwIp478HTg/azeCNPjgWtwP188P927Lkzw3jgfd+DFMDM3cB7odkFXEd4Px0ZMBj5D92u1niuJOxQSNoGAuxQpUqjgMF8FRO60uSVDigy6FHjwY7QOE+ztDy+YMhmC6VoDEZeB68T30GlwrdbrNQUF3OTdunVTvws744dQ8aFbxYxVAHjt06dPZEyCr6DCRTeKJ6Hw999/q64BVOioiK3xE6isn3jiicjYC+wHQQBhgPN1D140nxdonKCbNDqREBs4P1MYWMEx0W2DzA2Ae2KNo8D++D9Posj9XEncoJCwCQRnnjt3LjKIyBfCUodJqSylZO/FvSqDwwrGjjh85bBkTplZ8qTNo60x423WBvoLn332WdVPifM3lT/6a//55x+13rBhQzVQlTegxcKsDftg1ob9RDfXBuKIENyHbXZ6ovAbRKvZvbJDnz4GJEMFiorUjBswsxYAhIKZrWBuh4cRQECYrXhUtNbgTvwfPAymAMB2a/wEBAXiQyAMTFAhIw4BuHs3cO4QW6Y3AuC9II5w/uazCcIEWSDRiSM8T+CBg7fB+jwzgzORuYFzw/FwzwD2w/6mdwXXj/OEyMA2iJ/YYi5I9FBI2AgCFONDmuRppH2R9kpEIKgSGRwmMw/OlHWn1kmzAs0kX/p82ho73gRL4kd46NAhWbhwoXogrVq1SgWY/frrrzJ16lS1D1oUcKEmZJi1YS/BlrURExAUdmJtTVtBRYwWOLwjCFpExTh8+HDlpUCliQVA7GBfczuyNrANFTjEBOyooEuXLq2OgW0QKPCkmuIFlTIaFyZ4vw8//FBV+NZjwQvgKXgR7ztv3rx7vBHocoE3wzyumXFiBkl6AsfAdZv/gwWCx7xOLKa3BtvQBQcxiCBNYO3KwL11z1QhccT15fRIDJtsI6kFW8aEN8GW4Prt68aTC580QkaGGPX/rG+M2THGeHbJs0baMWmNor8UNfZc2KP3jB0EW4aGhupSzPzyyy8qiAzfA/fFpeyNy5cv6z1jp3DhwoarRaRLzuBq+ahgOKdBQO3bb7+tS86wcuVKI3fu3LrkHPnz53c82HLw4MFGzZo1dck5EGzsqnR1iRDCYMtEBIbFxkRdQ6sPVRN0dV/cXc0E2qZwG1n8yGIpkjFuAULezLUB0CpA9wzGvMiaNatyacIdOWPGDBkyZIgaH8NbONeGvXCuDftB+jfn2iDEM8mgLPR6FOAOimaTbcA9iO4Ab4deTswgfxmuRCcrgMOHD4urNae6LQgh3oNAR7i+K1eurC2EBDfZw+52bdMjQWwnmDIZgulagzlrgxByFwqJIMLbrA1/w6wNe2HWhv1El7VBCKGQCDqCaYhrZm3YC7M2CCGAQoIQQgghPkMhEWR4m7XhT5i1YS/M2rAfZm0QEj3M2ggQyNoIBBh5rnnz5pEj24G6deuq15MnT9pqX7JkiXoFmI0wf/78at1OO0ass36fzHOxy96xY0d54YUX5H//+5+2iHTo0EGqVq2q1u2yI0Zi5cqVakhjk08//VS9YjZJO+z9+vVTA/xYz6V79+5qUCNglx0jEiIGZu3atdp69xwnTpxoix2DJjFrg5C7WLM2EpyQwPTaqOySOu3atdNrzoNKFtMGm5iVItJC7bRbK3pM+GUOSWunHQFyCDI1Mc/Fbrv1XDC6nzk6oJ32LVu2qGHZTcxzsdtuPRd4gjA5HLDTjkoeQz6bmOdipx2p0xQShERAIUEIIYQQn+E4EoQQQgjxCxQShBBCCPEZCglCCCGE+AyFBCGEEEJ8hkKCEEIIIT5DIUEIIYQQn6GQIIQQQojPUEgQQgghxGcoJAghhBDiMxQShBBCCPEZCglCCCGE+AyFBCGEEEJ8hkKCEEIIIT5DIUEIIYQQn0k8QuLNN0XGjtUFC4sXY87zu0unTiLh4XojIYQQQuwkcQgJCIghQ3TBAkRE/foiixaJGIbIlSsR9meeoZgghBBCHCBhCwmIAXgYunfXBjdmzxbp21ekXr2Ictq0Iv36iSxfLrJ2bYSNEEIIIbaRcIUERAQ8C3v2iGzfLlK9ut5gYfDgiMVKWJhIrly6QAghSQPDMGTDhg3SsWNHyZYtm2TMmFHatWunbNhmJ1evXpVevXrJ+++/ry2emTBhglSoUEF27typLVGBHduxX1zwdPwrV67Ie++9J4UKFZJkyZLJjz/+qLcQp0m4QgLeBXzZVq0SyZ5dG71g61aR48dFcuTQBkIISfwsWbJEWrdurdZ/+ukn+eWXX9Q6bNgWbKxfv14+/fRTV3vzGVm4cKHURzc3CQjJXErWo5SFwrNb5bpTsGBBCQ0Nlb1792qL5vRpkZYtRZ59VqRbN230gOnFAKNGRYiRWLh06ZJS9SYhISFSp04dtb4YMRgaf9uhptetW6et6J2J6J6x037hwgXZtGmTtjgHPs/UqVNLnjx5tMUZcNwiRYqo9SxZski5cuXUuvXz8Lf96NGjsnv3bm29+3nYbbeeS+7cuaV48eJq3U77/v375cCBA9p691zstoM3EXwdROD3/MILL0iKFCnk888/l3Tp0in7xYsX5cUXX1TPla+++irS7m/gEejTp4/kzZtX+vfvr633Ak/DsGHDZNKkSVKiRAltvQs8Eu3bt5fXX39dOqHb2ks8HT+2YxF7yR521/OfXL8mDQYNioiPQOyEFyICXL58Wf7++2+pVKmSKqd1/R8qXHD+/Hn1CvxtX7RokaoUzMrV3Bc/GOv+/rQfO3ZMKfeKFStqqzOcOHFCwsLCopyP3dy8eVMd97HHHlNluFPbtm2r1s+dO6degb/tH3zwgXqoly1bVtlfe+019QoB9+uvv6p14E/7bNf3/Z9//pH8+fMrW926daVJkyZq3XqO/ra/8sorct9990VWXuY5Llu2TJ2TiT/t8+fPl8GDBwedkDh16pT6/aJbwyoW0L1RrVo1+fPPP+XatWvRCgmzIsbzpnbt2vLRRx/JggULpHr16upzfPzxxyV58ojqAA1IPCfMfVq1aiUDBw5U2+zg1q1b8scff7jafqNcj+/lqnEH0YiuDOt5mZjX8t1336lyyZIl1fcRwgJdPiQAwCPhiRg22UaBAgWMwoUL65KFU6cMo3p1wxgzRhs80LevYRQsaBjbtmmDd7gqcyNZMuWYcRRX69VwVTy65Axr1qwxQkNDdck58Jm6Hgq65AzTp083UqVKpUvO0bBhQ+Ptt9/WJWdwPYANl3DRJedwCRfDVbHrkjPMmzdPPSdIBC7xYLz00kuGq8I1XEJdW+8lPDzc6Nmzp1G+fHnDVUkbP/zwgzFjxgzjiSeeMDJkyBDlc5w2bZqyPfnkk+p+f/bZZ0bLli2NBx980Bg0aJDeyzPjx49Xx9ixY4e2RAV2bMd+4M6dO8bIkSONrFmzGu+99546jylTphiuBoA6B5wLMM8fx3cJD2Pjxo3GgAEDjGLFiqn3WrlypboXxDmyZc8ZuSSecSRiAq2TiRMjPBGlSmkjIYQkbVatWiUu0SxNmzaVTJkyaWvMfPvtt9K1a1dp0aKF/N///Z/UqlVLVqxYobbB84SgxS5dusg333wjjRo1Uq1/LC4RoPaJjc2bNysvAbrH3RfYsd0EXTMuESBvvPGGvPPOO/LQQw8pDwiODW8JPG3uoPsbHkCXiFAe3ipVqkiNGjXE1XDQexCnSfxCIpGKCLi/A0GaNGn0GrEDV2tZrzkLHq5OE6jvEt3XESDYsG/fvkoQdOjQQVtjpmrVqioWzQRdISgfOXJEdRkcOnRI/v33X9UlaO0mwf81bNhQl2IGMTQQBuiCcl9gx3YTiJ+xY8eq67B+hzNnzqy6zXBOt2/f1laSUEncQgIDVcVTRKRPn14tTrNx40aZPHmyLjkDfsD4gQYDCLJEi8VpxowZIx9++KEuOUOPHj0CEkSLwDm0IJ0ELWRr0GUwYhiGirFCsCICfJESGV1shDuorOEZiA7EJ4CcOXOqVxO09rN7mT2XI0cO6datmxIH7gvs2O4O4iQOHz6sruvLL79UsSA///yznD17Vm7cuKH3IgmVxCskkMkxcqQIorpLl446TDYWT8NpE0JIIubOnTsq7bNNmzZqQQZH1qxZ9daITAb37oS4jtngCQgQZF75G4iiqVOnquBkBAsjwBLB7+iqCHbBmJhIHEICShjjSVhTP00b4kI9LTGliVpA1ga+zE4zaNAg+fjjj3XJGRD1jesNBs6cOaNaOU6DvHanB8aZNWtWlFRfp0CUPTJjnOSvv/5S3rxgBN9nxA4gXgEDMWHx1hPhLRkyZFCv7p9reHi48hj4G6T4DhkyRIkiZJYhDgPC4vnnn1cp1SRxkPhjJPwAcrSd5vfffw/IA9F0XXrDhRsX5Lllz0mWH7JIspHJ1CvKsDuB4fobuH6gZP4hs6w+uVpbvQMPpX379umSc8yZM0d27dqlS86ANOKnn35al5wDLnX0pztNID7XQIPGDrpCcc/hhejdu/c9aZEA3R3Y17rEZbwGjBKJVHikGFufixg9045Br/DdXb16tUrfRCqrCcZKCYQ4Jr5BIUE8cv7GeXlk7iMyavsoaZyvsYypN0a9ogw7ttvNiuMr5IstX+gSIcELBuaCN6Jw4cKyZ88eGTp0qGrJm8uIESP84m1EZf7cc8/JvHnz1IiRM2fOVOM19OzZM8rgYP4CA0whawRjhGBgKYxbAbGEGIlg8Z4mBSgkAkRCz9r4addPsuTYEulXqZ9MbDhRupXopl5Rhh3b7QRC5fXVrzvm/fAXzNqwn2DM2kAaJAZrQuv93XffVQNyWZdp06bJ9evX9d7xAwOOTZkyRXWlPPHEE/L999+rkSifeuopvYf/gAcEI3LiFcKle/fuqgsF3RvowoFocnIgO+IbiWOI7HiCHyBUryfg6ocqRj5zUgc/0Jo1a6oUr9josrCL/HngT5nbfK5Uz3F3wjR0MTSZ1USa5m8qEx+aqK0xgwwKuC6Rv+4N6NL4YMMH8vmWz6Vy9sqy9tTae84jNuByx0Nwy5Yt2kKSCqhg4N6PDlSoHFOAEHuxDpGd5D0S27ZtUyljWDDkLvGOYpmKyaWbl+TQ5aii4+TVkxJ+K1zypsurLf5n5YmVMvzf4fJS2Zekdq7a2kpIzCD1FhkMTg8BT0iwk+SFROnSpeWRRx5RY/Q3b95ctYyXLl2qtzJrIzpaFWolOdPklDdWvyHrTq1TXoINpzfIa6tek4wpM0qH+7wbACeuXLxxUd5Z+44UTF9QXijzgvKM+QKzNuwnoWRtQEDAq4jJqzDfhNO/K0KCnaCIkcCEMylTplTdGAgiwkhwEBRmFDKzNu7l/qz3y+KHF0va5Gml6tSqEjIyRCpPqSwhyUJkUctFUjWsqt7Tv3y19SslWIbVGCbZU8dh+ng3mLVhP4HO2rAKCNwDjIKIQcgeffRRtZ0Q4gwJLkbi9OnT0qBBA22JSHsy8bQe23aAdbTYrDMYAgywgiltMbc/BnpxkvLly6upb50c3XLt2rUqRsKblvrei3ul5ZyWcuDyAelcrLPUy11PFh9bLON3j1feghlNZ0iRjBFTdMeGtzESm89slsazGkvrwq3lm9rfSDLX36ANg+Szfz6Lc4wEZhPE9PBooToJutAwG6OTo1uOHj1ahg8f7ng8CAJLEYjn5OiW8EhgJE/EQSAIzxpgiLgIDKtsHYI5sfPZZ59FTltPSELCGiORoIQEooXRkjQfwla3tjfrwCy77/Pkk0/K8ePHtSVijHfkSz/77LMq1chpIYF+XLSenBYSEGmxeSUQA9F6XmtZdGyRfF/ve3mi6BN6i8iio4vksXmPSY0cNWRK4ynKYxEb3ggJ85gHLx+Uv1v+LbnSRnxJE5uQQNR5rly5HBcSiHx3ephsCGGkJDotJDDUMp4VEydOVEHS8ESAFClSqG5MpC8mFTD9PoUESYhYhQTEgkdi2GQbderUMVwVnS75j3HjxhmZM2dW1+QSEEb9+vUN1wNJbXM9iNR0tcHAoUOHjHz58ulS9Pxz5h8j7Mcwo9HMRkb4zXBtjeDG7RvGw3MeNrL8kMVYd2qdtsaMN9OIf7HlCyPNmDTGr3t+1ZYI3lv/npHp+0zGqhOrtMU7XK3zgEytTeznlVde0WuGMWLECMMl3Iw0adKo33doaKhx6tQpvZUQYhdJbxrxWMBgJzdv3lRjt//222+ycOFCr2eyC0bgHbhx54ZkTZVV0iSPOlZAipAUUiWsitwx7sitO/4JZkSA5a97f5Wrt65K2/lt1Sia5jJg3QA1lkSNaTV8GuGSJG0wUBKCiJEOCk8Q0seTkkeCkMRAghIS7t0U/gLdCBjgBDPLuQsIZm3cCwQEuixOXT2lRIUVZG9sObtFBV0mD7l3iF5fgFgZUGmATGgw4Z7l8SKPq+3vVXlPRtUdJUUzFtX/FTPM2rCfhDTXhikoMFgTYlSSMtu3b1fThmPq7+jAMw3DWqPbFgN4YcRKdPXB5s/nHeJyunbtqt4fg0r169dPTp06pbd6BsdHTA++P4F49hL/ExQeidmzZ6sguOhg1kZUCmUoJDVz1pTlJ5bL9P3TtTUCjPGw8OhCqRZWTUpl9m3qdnfg5WiUr5F0LNrxngXZIylDUkqTfE2kbZG2ki21d6MaMmvDfhLiXBvvvPOOGoUxqYJ4EMSlPPzwwypjJTqQkda6dWu1jmByzBgKYPPXnBkQNBiNEueE98ckYubQ2jEJTDQYH3/8cSWAOWBc0iAohASJG6jYh1UfJvnT5ZenFz8tHRZ0UENi91zaUxrNbCShyUJlYJWBXgVaEkL8x4oVK9TItLE1jH744Qdp3LixavUj3R0LgnLRvYtt8W083bhxQ713zpw5VaAv3h+eCRwDQhre35jIkyePGtcHKbz+GtqbBA4KiQCR0OfaQGrn/JbzpV2RdjL30FzpuqirSv1sU7iNrGm1RmVtkHvhXBv2E4xzbQBU/uPHj1diIEeOHNp6L+haQDdP7dq1o0wzju4HdPtgW3yzmXAuSL9FV7H1XJANh+m/Y+tWhFcCmTdr1qyRzZs3aytJrCSo9E/8QDA1LmaAcwrOtWE/cZ1rwx9wro2kS2xzbSRVMHEX0tjRiq9cubK2eg9a/m+88YbqCoPnAJW+v0Bdgff94osv1MjB48aNU+ntMYEuEXyWECIDBgwIiBgmvhNUc20QQkhSYOXKlWpcCV+9XqtWrZLp06dL06ZN/SoiENjcrFkzyZcvn4pHg5iITUQAeLQwFgkCQIOhIZeUCXohwayNpAmzNuwnIWVtJHVu374tBw4cUCN3pk+fXlu9Z/369WogL8QyIOPD3yDAFVOPQ0Dg/RcvXqy3xAyuB57SkydPagtJjNAj4YJZG0kPZm3YT0LM2kiqILjx7NmzkjZt2jh1AaCRhMDHTp06qREy8ZlZ4yb8AWJWMLppq1atlIhGFzXSO92nJPAE/hcxEpgagSReKCQIISSRgEBGTEDoDRj2H2mZbdq0UQviSjDNup0goBOiYu/evfQyBBEUEgEioWdtEN9g1ob9BGvWBkArH96J2EC3HsabQDAjxnfA4k9PBIQCUlDRneEOgigRNM/gyeAh6IUE+ht96XOML+jWcHLCLoBZETNnzqxLSRtkingT8OVvEFHv5IRdALNhOj1hF9i5c6ejE3YBVF5wnQcb8ELAm4Cuydhif9CdgWcLujHghejdu7eq2P0JxByeJQjetAZKImYGAZf333+/V7OwIpYJMyFnz55dW0hihOmfrh8m3HEk6ZEhQwbl0sUAPABD+GLQHHy39+/ff48dIKDNan/qqafUuvv+0dnffPNNNcss0usQRAZQ0SOiHdhlx28HQZfmCIaIhkfQG64VFb67HSCWw7SXLFky0m7dPyY7Uglxv5DWa7qxn3/++chxBdAiNu2Y/wKDFwGrPbr9Y7KjUg3G9E+MUIlp2ydMmKAGdIoOfCc7d+6sBAeCK927QpCxge3RNaCWL1+uxqBYtmyZ1KpVS1vvBQGV+N088MADKgYDngh8LzG+BM6zVKnYR77F54hBtvB//swkIfaTYGf/rFu3ri2zf5KkyZo1awxXS1yXorJt2zbD9SDTpXuZNm2a4aqcdImQhM/mzZsNV+vdWL16tbZ4Zvr06er5Hd3SpEkT4/Tp03rve3EJCLUfXmPizp07xvr16422bduqGZQLFixo9OnTx9i3b5/eI2Yw83KXLl2M999/X70XSVwE3eyfJGly8OBBlbHgC8g2CJZUWJI0QFddjRo1lKfA9RzX1nt55JFH1PboFmQWxRRnAi+ENynM8HZVqlRJdaOgewOekM8++0x55rwBv1+X4FdDeeO9SOKFQoIkWtBtgYFwPIGBe9A3HB2Y3Klw4cK6REjCB8Gtrta/zJ07V3Wf2QW6JtDdYGc8FQQNrgOiBTESJHFDIUGSJAjeiklIEJIYQTxC8eLF5e+//9YW/7N7926pWLGiiqexC3gScQ1dunSRVKlSaStJrFBIkETL2rVrfZ7wB9HmmNyIkMQEvBIIOP3zzz/lyJEj2upfqlatKj179vR7pocJvBG//fabysDxZc4QkvCgkCCJlphiJDBS3tdff61L98IYCZJYQTbExIkT1WSDiRHEQ7z88stqYWxE0iDo0z9J0mT79u0qhgLBXIQQQvwLZ/8khBBCiF+gkCCJlphiJGLL2mCMBCGE+AcKCZJoiSlGIrasDcZIEEKIf2CMBCGEEELiBGMkSJIntqwNQggh/oFCgiRaYoqRQPxDTEKCMRKEEOIfKCRIosU9RuKDDz5Qo/HNnz9fWyLA7JSYCXT16tXawhgJQgjxF4yRIEmGJUuWSJMmTdSQu2XLlpUUKVKo8SQwd0C6dOnkzJkzek9CCCHxgTESJElSt25dqVOnjly4cEGWL1+uuj5OnDghISEh8tFHH+m9CCGE+BMKCZJo8RQj0a9fP9WNAa5cuaJeM2bMqOYOsMIYCUII8Q8UEiTR4mkcCXglatSooUsRkxy99957unQXxkgQQoh/YIwESXIgVqJly5Zy6dIlyZUrlxw7dkxvIYQQ4g8YI0GSNKZXAsGWAwcO1FZCCCF2QCFBEi0xjSPx7LPPSpUqVe6JjTBhjAQhhPiHoO/agPsb8/qHh4ercvr06SOD9RD9b5f9zp07KqPAJHfu3OrVTvvt27fl5MmT2uIcOBd8n7D4E/P7Gd374ruUMmVKtV6/fn0pWbKkWv/zzz9l3759anuDBg2i2I8cOaLW3ff31p4lSxb5+OOPlQ3xGV27dlXruO9TpkxR63bYZ8+eLQcOHFDrSIEtXLiwWv/tt9/UKJ/A33Z8n0aNGqVsmTJlkieeeEKtHz58WGbMmKHW7bDfvHlTPv/8c7VOCAkM1q6NoBcS6D8vWLCgShc0MStj9751f9qbNm2qXs20RHPfs2fPyvXr19U68KcdrffHHntMVqxYoa3O0KZNG1XRvvjii9piPwimfO2116J4LPLly6deUUFZ8acdlSwGxXrjjTcibcDOY44ePVr++usv+fTTT7XVmeNWqFBB3nzzTaldu3akDdh5TFxnjx49IkUTISQwUEhYQCUPjwRazU5Svnx5VeFMnjxZW+wHXQE1a9aUW7duaYszFClSRFWwGGHSKf744w9p166dXLt2TVucoVGjRlKtWjX58MMPtcV+ICSGDx8uW7Zs0RZnKFCggHz//ffy0EMPaYv9UEgQkjBgsCUhhBBC/AKFhAuzH91J0DdfunRpXXKOsLAwvZb0Qb+607z//vuSP39+XXKGzJkzS6tWrXTJOTp06KDXnAOxGfjtEEISDgy21MGWFy9e1JakC/qc0bVx6NAhbXGGQHRtIEYCwXlOu/uJ/fTp04fBloQEGHZtEEIIIcQvJDgh4bQXBMMkW7MbnAIBeQgGdBIElh4/flyX4gZS/YYNG6Y8VVisWS7+ZP/+/fK///1PpVLiOIUKFZJXX31Vdu7cqffwjr1790ZJf3UKZOO88847uuQMCLbs1q2bLjlH9erVHR+FFsGWZvorISRhQI+EC+SlO00gxAvwVaht3LhRvv76a12yBwxtjYr4s88+ixQOiM6HGxtdI4sXL1Y2bwlEdxUEVyBARo7TuKc1E0KCEwoJEiuYRXPkyJG2ptyh0v/mm2+UgMCYFxh5EmmqaPFinA8c+4MPPmDlRQghCQwKCRfM2ogZjOA4ceJEXbIHdGls2LBBrTds2FAefPBBCQ0NVQG4HTt2VPb58+erLgtvYdaGvTBrgxACgl5IYMjqQAgJuOudnlAKLX1kxcQFVPBfffWVym6xE7z/7t271XratGkjzxNiAkNBm7iPdhgdyBTJkSOHLjkHJgvr1auXLjnD448/LoMGDdIl5xg6dKijg1GBokWLKuFECEk40CNBogVdC+PHj1eBlagg4R2wi+zZs6vRPgHmJTFH30TMwdWrV9U6hBAqEkIIIQmHoBcSzNqIntWrV6uMAEwyhrkjkElhF/fdd5+0aNFCraMLY+HChUpEIMDy559/VnbM2eFtdxCzNuyHWRuEEECPhAtmbdzLuXPn1PwNCHLEDJN169bVW+wBXRn9+vVTGRu4N48++qiywXWOCcj69u0r7733XpRujthg1oa9MPCVEAIoJMg9QGzMnDlTfv31V9Xd8Pzzz6u4BbvBNNWbNm1SwsEK4ie2bt0qBw8e1BZCCCEJBQoJF8zaiMp///2nAixB7969be3SMDl16pS8/PLL8tNPPymX+Zo1a1TrfteuXarLY8aMGSqI0QzI9AZmbdgLszYIISBBCQmMZOg0zNqICoIcf/jhBxUfgcrpsccec+RzWblypUydOlWtP/3001K1alUJCQmRYsWKRfb/45wgKLyBWRv2w6wNQgigR4JE4cKFC7J+/Xq1joodlTGEBLo2vvvuO2UHtWvXVnZ/DZW9efNmvRYh7qzkzJlTr0UExxJCCEk4BL2QYNZGwgCjV5og28IaFGrNvvB2HAxmbdgPszYIIYAeCRfM2rhLtmzZZM6cOWo/64KxHXr27Kn3Elm2bJmy16pVS1viR+XKlaVUqVJqffLkyaobAzESiIkYO3assqNrJi6udGZt2AuzNgghgEKCJAgQePruu+9K1qxZlYioWbOm8j4UL15cZZBgLIu3335bKlWqpP+DEEJIQoBCwgWzNgIP4i2QBYD4DEwbXqJECWVHl0f37t1l7ty5Kg3V264NwKwNe2HWBiEEJDPgn/YAHuzRbLKN+vXrq0j9v//+W1vsB2MU5M2bNyBucKfBPBVo6R86dEhbnAEZFJgG/Ntvv9UW+/n333/liSeekC1btmgLSSr06dNHZT0RQgJH9rBceo0eCUIIIYTEA2ZtMGsjScKsDfth1gYhBNAj4YJZG0kTZm3YC7M2CCGAQoIQQgghPkMh4YJZG0kTZm3YC7M2CCGAWRs6awOR4Nu3b9dWiZw2G5NJ2WlfsmSJegUZM2aUChUqqHU77KGhoWqwqUaNGmmLM+DzvO+++6KMXukEmEl05MiRKoPD5IUXXlCvixYtssXeqVMnyZIlS+SkZ6BKlSpqDg5glx2ZMZivxJqRY57j9OnTbbG3b99eCVPrueA3XLZsWbVul33MmDHM2iAkwFizNigkXEICAx1hjgnrfA9mRW+33VrRQ9CgwgV22DFq5ZkzZ3TJOY4cOaLm6kAF6yQYcwLjUezcuVNbJFJEYUpyO+yY5OzKlSsqKNCkTJkykidPHrVulx2Tm0E47d+/X1vvniNGB7XD7ulaK1asKNmzZ1frdtoHDx6sLYSQQEAhQQghhBCf4TgShBBCCPELFBKEEEII8RkKCUIIIYT4DIUEIYQQQnyGQoIQQgghPkMhQQghhBCfoZAghBBCiM9QSBBCCCHEZygkCCGEEOIzFBKEEEII8RkKCUIIIYT4DIUEIYQQQnyGQoIQQgghPkMhQQghhBCfoZAghBBCiM9QSBBCCCHEZygkCCGEEOIzFBKEEEII8RkKCUIIIYT4TDLDhV6PQrJkySSaTbZRv359CQkJkb///ltb7OfYsWPyxRdf6JJz7Nq1S70WL15cvTrBpUuX1PU6eUwQiGsFOK71mNWrV1evq1evVq8m/rTv27dPTp48qS1397Xbbj2XlClTSsWKFdW6nfbt27fLxYsXtfXuudhtB61bt9ZrhJBAkD0sl15LTELizTdRE4l066YNGtfDRpo1EzlwIKLct6/I4MER616AijVv3rySO3dubXGG81fPy/US19X1OoXh+ru98bbkzuLstZ69eFZu5r4pIWHOOsBCd4ZK/ar11XrLli3VAl544QW5deuWWve3feHChfLVV19JWFiYso8YMUK9bt26Vb788ku1Dvxp37hxozpmihQplO2JJ56QevXqqfVevXqpV+Bv+88//yyLFi2K/A6b57h27VoZM2aMWgf+tC9btkx+++03mTp1qrYSQgJB4hMSY8eKdO8urqdKVCFx+jSe4CLPPhthN8uu9/FWTJhC4s6dO9riDGUqlZFtjbaJtNMGJ3A1ZEPahsjty7e1wRnyF84vh6scdolBbXCCPSIpeqaQG+duaIMzNGrUSKpVqyYffvihttjP6NGjZfjw4bJlyxZtcYYCBQrI999/Lw899JC22M9ff/0lPXr0cLUbdMOBEBIQrEIiYcdIhIeLdOoUISI88ccfEa+PPBLxmj27yJAh4momRYgKQgghhNhKwhUSEBHPPONqWbqalui+sPSPRgIvxKpVEQLCBPsTEmTAg+g0TnbLWQnUcQkhnkm4v8i0aUUmTLhXKMQEvBAjR0Z0dXj7PyTJkjNnTr3mHHPmzJE33nhDl5yhbdu2snTpUl1yjs2bN0uVKlV0yRnQdfTYY4/pEiEkIZA0pL3ZBaID3CK7OkhQkyzE+VZ6aGioZMqUSZecAcdz+pggUMclhCQskoaQML0XCA5FjARaSegOIcRhZs2apRYnWbVqlZw6dUqXnAPHdRoEW+7fv1+XCCEJgaTX2Vi1qkitWiI//qgN/uW2cVvG7x4vxScVl9BRoZJ6TGppPKuxbDu3Te/hf5pkbCJrS62Va5WuiVHZUK8ow+4USB0duH6gZP4hs6w+eXdMAX9jXuvNSjfVtV6qeElmFJ0hpVOX1nt4z/Fjx/Wac3z++eeyfPlyXXKGf//9Vxo0aKBLztGuXTtZsGCBLjnHhg0b9FpwcuXKFZUW26xZM8mYMaNasP7777/L9evX9V6EOAejluIAKtOPNn4kXRd1lVxpcsmouqOkd5nesvz4cmk6u6nsvrBb7+k/mmVqJqMLjpbKaSvL3ut7ZdK5SeoVZdix3QlWHF8hX2yxd+CuXmG9ZGKRiera9lzfo6710I1D0jxTc/mlyC8+iQlCkhIYR6RJkyYybNgwlS6P8TR++eUXKVSokDz99NPy6quvKqFBiJMkbiGBQaoQG4EYCROsI3PDhlEUFx5dKEM2DZHOxTrL/JbzpVuJbvJpjU9lRJ0Rcjz8uAzdPFSJDX/SK3svyZcynyy8tFCq76guHfZ2UK8ow47tdnP+xnl5ffXrcuHGBW3xPxlCM0j37N0lU2gmWXBxgVTdUTXyWlEum6asDM7n/UBjwQazNpI+x48fl759+0r27NmVJwjrGMOjRYsW8s033yhBAWGBcUWcHgOIBDeJ+xfZtasI3MgTJ2qDi08+iXi1BFwePnxYr/kOBMLoHaMlS6os0r9Sf0kZklJvEWlRoIWUzVpWdpzfIRdv3B3S1x8UTlVYbhg3ZPnl5XLp9iVlwyvKsBdNXVTZ7ALX/eW/X6pra5i3obb6n4czPSzFUhWT07dOy4jTI6Jc68jTI+X8rfNSKW0laZDBexc+szbshVkbzjJz5kzVrfP222+rQfSsQEg2bNjQ1a7qpJ534bpxBUGBz6lbt26SLVs2tWDdOnjZ1atX1cilgwYNUoMB1q1bV70fhiHftGmTGlp/4MCByuuBBYOf4X+i+190taDbC+dqFTQYBXbKlCmRXTI4BrwqE13Pb3OEWPP9+vfvL5999pk6X5zHkSNH1HbExzz77LPRXgsJDAlOSMRJSZcqJTJ7tri+xfglRSyHDonrGx2Z/olhditXriy9e/eO/DL6wqmrp2Tj6Y1SMXtFKZi+oLZGkDVVVtnQeoMsfWSpZErp3yj2k7dOSopkKSRviqgPjrDkYZI8WXJVwdrJyhMrZfi/w+Wlsi9J7Vy1tdX/lExdUtKEpJFTt07J7+d+19YI5lyco+5D5tDMUjqN990bzNqwl4SWtbFkyRL1W2/atKm2JB1QmS9evFiJhVJ47nkgVapUqssDS7p06ZQN9+TRRx+Vy5cvy08//STfffedHD16VB5++GH1flZQyUMQdO/eXX799Vc5d+6c6ipBGd0lo0aNkieffFJV8hge3Qr+980331RCBp4RAAGwYsUKtY7nOkZBfeaZZ6RmzZrKc4L/yZIlixIGEElWRo4cqYTIhAkT1DHhhUHsET5b81qwXLt2zeO1EGdJHB4JiAJEiGMAKnfwo0IUNwQIFmRvIItDU7VqVbn//vvVFzNfvnw+C4oTV0/ImWtnpEK2CiomotrUapJ8VHIVbNlqXis5cNmeIXvnXZwn4XfCpU2WNjIg9wDVBdAvdz9pn7W93LhzQ/669Jfe0//Au/LO2neUcHqhzAuqBRFIIKhyJM+hSwkTZm3Yi6esDVSWjRs3VnOd7NixQ7WGkxqoMDGcf5EiRSR9+vTaGjMQAvAe4N6gEkcXyOOPP648APAc/PDDD/fEU3z77bfStWtXtR88H5g7ply5cvLxxx8rb9Drr7+uPEKo5HFOJufPn1cCpmfPnuo46F7BfCx4xTEw+drKlSuVt+6dd95RXTKtWrVSXTKYjO2ff/7R7xRBiRIlZPDgwUo44HjwWOC9IE7Ma8ECMQHx4ulaiHMERWfjBx98oNQ6QLQzBAUmXIIy95bwW+Gq4v593+/SfE5zyZ8+v4ytN1a6Fu8q8w7Pkzp/1FEeC38z9PhQefPIm3LLuCUD8wyUixUuyvt53lcK/92j78rAowP1nv7nq61fyYbTG2RYjWGSPbW9A3ztv7FfddUgRsK9+6J++vqSNXlWXfIeZm3YS6CzNqwCAgIDrXZ0Z8HdndQ4e/asEovweHkr6Pfu3avEHrq+TA8FyJw5s6qc8T3dYxkJGI2uggXvelvT6gYZREfy5MnVOkQMxMzt27ejeI9R4WOOGRN0XeCzQbcDBBA8V2PHjlVxHbgGE5zLfffdp7o08J4mpUuXVl0XJocOHZL169er/SFIMFkcFkzihsnqMHGdP7qwiW8kuEm7du/erVxVVtx/ONH9kDzZTRtcddbplyEskCoF5Y20qdgm7ULKY5NZTeTSzUsysPJA6VepnyRz/YFf/vtFnl78tIqVmPjQREkREjELY0x4O2kXMhk+zPOhZAzNKP9c/Ue2Xt0qZdKUkXJpysnF2xflnaPvyIhTEbMlxkocJu3afGazSmttXbi1fFP7G3WtgzYMks/++UzmNp8r1XN4GLI8GryZtKt46uLyx31/SNFURWXC2QnSdX9XvUVkfOHx8kTWJ5SYGnJ8iBJQscJJu2wnkJN2pU6dWjUE4OY2QcUHt3l0rv/ECLoC4BE4c+aMannXqFFDBgwYEO0z0AqEAjI5MFsq3sMKttWuXVtVxJUqVZI+ffooO4RwmjRp1Lp1n1pIqde8//77yquLfQH+FzEb6PKw4un/4VlA0Oh///2nvq+Iq4AY7dixY5T3A57OJToyZMgg8+bNU/eHOEOCnbQLQgJ9nPhiV6xYMXKpUKGClC9fPnLBjwLdFdalbNmyUqZMmSgLVC0eKljcf3iI/Ea/W1wfOkUzFpUeJXtEigjwaKFHpVbOWiqeYP8l/w2WUyNdDXkj5xuqlf7z2Z+l8vbK8uT+J9XrFye/kPSh6dV27OdP4H3pu7qvZEuVTQZUcj20LNdqF7uu7VLXdOnOJemSrYtsK7NNpYLitX2W9nLu1jm9J/GENxWLvwlk1gZEDESE6WkEaNGiQoFbPKksJhBJCHSEl8EqntyBx7Vz584JZtAufB7wQKBRirgIPKfz58+vAiohIlDxm1PVewNECd7LfUHXCUVEAHF9CB6JYZNtuJS2MXDgQF3yHzNmzDDSp0+vrsmlcI1cuXIZI0aMUNtcrRrD9RBW6zGx6sQqI9P3mYxa02sZF65f0Na7tJ/fXm3Hft5QumJpQ94QQ9ZFv7xx+A0j/Ha4se/6PqPq9qpRthX/t7ix+9pu49qda8a7R96Nsi3aZZYYIelC9BlEzxdbvjDSjElj/LrnV22J4L3178XpGk3yFcpnyOMezsfD0n1/d2Pn1Z3GrTu3jDuuvyM3jhh9D/c1/r74d9yudZIY+Urk02fgHK4Wl3H+/HldcgYcz+ljgkAd95VXXlGv+O2+8MIL6vfrEhTq9505c2bDJSjU9qTG6NGjjdy5cxurV6/WlqhcuHDBePLJJ41WrVoZZ8+eNdatW6f2d7XU9R53+f333w1XA8zYvn27ER4ebvTs2VMtWDdxVdrqnuLVyqBBgyL3Nf+3T58+xvXr1/UeEYwfP9544IEHDJeoMVwCyKhevbrx9ttvq/M0cQkAo0uXLve8n/u5bN682ShWrFjkc5sEnmzZc0YuQREj4XrwyI0bN8QlIOSLL75QfXauL6re6h250+aWDCky6JIzpA9JL6HJQlWw5dora7U1ArTgD9w4oLwFyN7wFwiw/HXvr3L11lVpO7+tJBvpOoJeBqwboMaSqDGthm0jXI45PUZKbC0hyTckl5D1IZL3n7wy9fxUyZ8yv1y5fUW2X/N+6HNmbdhLoI5r4qok5csvv1R94+gCgFcGfe1w/SdFEIdQsmRJ+eijj+4JGEeXAbpvkX6M2BVkQyCWAa102K2BiC7xJ9OmTVMe2zx58mhr/IB3wRpvgZgOHAPpwXjuohvKJYDUYFqInzBBV7ZL8OhS9CCOAt0jf/75p+oaMcF1IwYOcTLxycoj8SPJCwm4AREo9NVXXykBgVQjXwhLHSalspSSvRf3qgwOK6h8D185LJlTZpY8af3zwwRIebxp3JR0Ienu6b5A9gZSQjHOA2IH/EWa5GlUd8aEBhPuWR4v8rja/l6V99Sonujm8Rd10teR/8r+JyfKn1BjSlhpmKGh5EqRS47dPKZSQRMyzNqwF09ZG6gMTUGBVEdrLFRSAnEIiL3B9SMuZciQISq+AF0GiDFA7AjSNRH3BSAmXn75ZRU7gFgJpFgiXqJDhw4qUPW5556LUqnHB4xVgWyPH3/8Uf744w+1jgBJdGGg+wnnDiHw2muvyaRJk9R5I9YC5x1TV40JgkWfeuopFVj8yCOPqPfA9bz44ovqs8f7+EsUkbiT5IUEooy3b9+uWizxARVo+yLtlYj4YOMHKoPDZObBmbLu1DppVqCZ5EufT1vjD1I/D984LPlS5JPnwp7T1gjezPWmFEpZSI7eOKr28xcIFG2Ur5F0LNrxnuX+rPergbia5GsibYu0lWyp70ZVx5ell5fKhdsXJFtoNmmS6e4cIhgW+6lsT0mqZKlk7sW5kQNVeQOzNuwloc21gYoEFQzGSkiqIJgUYgqVKlr8GFcCAgLAK4D0TDPDAiDjYvr06eo5iPEY4IlFfMncuXPjFJsQG3i+QrQgfRSiBd4ipJmaMWiI70BjDq/YF2NTQPhBBCG4Et4MeEpiAucLjwTiLJ5//nl54oknlKjCWBMQR4GIEyIRJKisDYyehuM66ZqElwJqObasDQDx8MySZ9SkXXVz15Uuxboo9z7K8EQgm6FIxiJ675iJS9bGx3k/lgwhGWTn9Z2yKXyTGrwJWRvwVnx64lPpfzRqtHS0xCFrwxN2Zm0A81pTJ0stq6+sluO3jssD6R6QvCnzyt8X/5bWe1t7LySYtWE7gczaOHDAnnFbSNxAV5KnLAuS9EmwWRsJHbTG4dIfWn2omqCr++LuSkS0KdxGFj+y2GsREReQ2vna4ddk27Vtcl+q+6Rj1o5KRCBW4MVDL3ovIhIBuNa3j7wtR28eldrpa0u7LO1UZsr4M+PjJiKCkEC0xgKZtUEISTjQIxEHj4Q/8dYj4Vfi6ZHwFW89En5lj0i+d/PJoR2HtMEZkIKIPl8ngxAvXIiYTM3pwMdAHRctYHPMARJY6JEIXuiRIEEBszbsJVDHJYQkLCgkCPEjzNqwF09ZGyRwwAMxYsQItdAbEbxQSJAkC7M27CWhZW0QQgIDhQQhhBBCfIZCgpAkALM2CCGBgr9IkmTBlNJOgyGK33jjDV1yBkwTvXTpUl1yDoxmiCGQnQTjdGAKbEJIwoHpnzr9E3PaO8nt0NtyJ/0dZ1uSro/zzuU7kvJ2Sm1whlu3b4mRzpBkqZ1tNWdLm036PNtHvv76a1XOmjWrmqcAYPAmO+wYvQ8zEWIoYHPoX6THmTM52mXHFMszZsxQA0SBfPnySb9+/dQ65jiww/7ZZ5+pORVeeOEFNecBeOutt6RgwYJq3S47pqBm+ichgcWa/kkh4RISTo8ICMwJZiBinAKR/Zi8zMljgkBca3RgiF7gHvmfFOyBOCYIhL148eK6RAgJBBQShBBCCPEZDkhFCCGEEL9AIUEIIYQQn6GQIIQQQojPUEgQQgghxGcoJAghhBDiMxQShBBCCPEZCglCCCGE+AyFBCGEEEJ8hkKCEEIIIT5DIUEIIYQQn6GQIIQQQojPUEgQQgghxGcoJAghhBDiMxQShBBCCPEZCglCCCGE+AyFBCGEEEJ8hkKCEEIIIT5DIUEIIYQQn0k8QuLNN0XGjtWFaNi+XaRQIZHFi7WBEEIIIXaSzHCh16OQLFkyiWaTbQwcOFAdd8CAAdqigYDo3l1kzBiRbt200Y3wcJFnnhH5+WeRRYtE6tXTG2Lm2LFjUrZsWV1yjnDX+YaEhEjq1Km1xX7u3LkjV65ckQwZMmiLM9y+fVstKVOmVOWKFSuq16tXr8qOHTvUOvC3/dChQ2obuP/++6V48eJqfdasWbbZ06dPLz/++KOygTZt2qjXU6dOyZIlS9Q68Ld97ty5cvnyZbVepUoVKViwoFqfNm2auvfA33Y8H6ZMmaJswDyXI0eOyKpVq9Q68LcdfP7553qNEBIIsofl0msJXUhYxQGISUiYYgPEUUjkzZtXhg4dqi3O8M0330iBAgWkZcuW2mI/58+fl48//liGDBmiLc4wcuRIyZ49u7Ru3VqVzYr+6NGjcuLECbUO/GlfuXKl6+syRkaPHq2tIg899JB6XbBggXo18ae9SZMm6lq76e+pue/GjRvl7Nmzah34045rXLZsmXTp0kVb7+5v57XWqFFDHn/88cjPwdx36dKlcuPGDbUO/Gn/66+/5Nlnn5V9+/ZpKyEkEFiFBMSCR2LYZBsuAWG4xERE4coVw+jY0TCqVzeM7dsjXseMidjmzrZthlGtmmFMnmwYBQsaxqJFekPsuCohwyVedMk5ypUrZ7Rt21aXnGHNmjVGaGioLjlH4cKFjV69eumSM0yfPt1IlSqVLjlHw4YNjbfffluXnGHUqFFG2bJldck58ufPb8yfP1+XnGHevHmGS4DrEiEkUGTLnjNySbgxEmnTikyYIALXpquFFy3wWnzwgciDD4oEoIuCEEIICWYSf9bG2rUie/aIvPaaNhASwQMPPKDXnKNTp04SGhqqS85RsmRJveYcZcqU0WvOUqlSJb1GCEkIJG4hcfq0SN++Iujzj8lrQQJKrVq11OIkjzzyiPz999+65BxPPfWUDBo0SJecoUePHvLrr7/qknPMnj07Mp7BKRo1aiSFkJlFCEkwJG4h8cknIvXrex1YSQghhBD/kniFBLwRyM6ANyJZsoildGmRAwcixAXGnSAJAkTYL1++XJdiZv/+/fK///1PueqRwVPf9VmOGDEiMs3SW/744w+pUKGCLjlH8+bN5Z133tElZ0DWxgeIE3IYZBy5Z3PYDbI2kIpKCEk4JF4hga4MBGIiwcRctm0TQd47BMbgwXpH/3LbuC3jd4+X4pOKS+ioUEk9JrU0ntVYtp1zHdsmLty4IM8te06y/JBFko1Mpl5Rht0pDNffwPUDJfMPmWX1ydXa6h1Iz/QGjI/QtGlT+eyzz2Tnzp3KtnjxYnnuueekZ8+eagyFuGAdW8Ipbt68qdecZdKkSXrNOf755x+95iwYDyUYmTBhghLXnhYIbwhwCPHEChoLvXr1UktcGw7xBePrIF28WbNmkjFjRrVg/ffff5fr16/rvbzHvJb333/fYzmpkfiDLR0ElelHGz+Srou6Sq40uWRU3VHSu0xvWX58uTSd3VR2X9it9/Qf52+cl0fmPiKjto+Sxvkay5h6Y9QryrBjuxOsOL5CvtjyhS75H4zngR8ZBET16tVly5Ytcu3aNdXaxgBa48aNU+vmoEiEBCPFihWT8ePHy8KFCyOX+fPny9NPPy0zZ86Uzp07J2oxEQi2bt2qxn8ZNmyY8oBOnTpVfvnlFxWLg/v66quvKqFBoodCIg4sPLpQhmwaIp2LdZb5LedLtxLd5NMan8qIOiPkePhxGbp5qBIb/uSnXT/JkmNLpF+lfjKx4UR1TLyiDDu22w3EyuurX7fVA7J27Vr1QATt27dXo42mSpVK2rVrJ4899piyT58+XQ4ePKjWvYFZG/bCrA3nSZs2rRpZFBWeuSDgtW/fvmqQu71796pRThMjadKkUd2YWLDuBMePH1f3DoPIoZsO67ifLVq0UPcTggLCAo0Yw+EBGhMTiUNImN0Y0Y1qaVKqFDrZ7wm+xIiZvrinrEAgjN4xWrKkyiL9K/WXlCERwz2DFgVaSNmsZWXH+R1y8cZFbfUPa0+tlUwpM0mz/M0kmesP4BVl2FecWKFsdoHr/vLfL9W1NczbUFvjhjdZG3uQwqvJkSOHXhPljUArDKxevVp5KryBWRv2k9CyNvCgR0WA33swgmHaIe5OnjypLRHAQ4HRQLNly6YWjLrq6XcEG7Z52i8613x0Lvz+/furLkq8D0a0xXDnGJH13XffjRL/hIrafDab/4sF6xgG/cEHH7yna/T06dOq2wHvb1bu3l6jO/DibNiwQd5++201wrEVnGPDhg1V4+Dw4cNqWgNw69YtNTS82Q1iXsvEiRPVtmAkyXsk8IX86KOPJGvWrOrVV0Fx6uop2Xh6o1TMXlEKpo+Yf8Aka6qssqH1Bln6yFJVufuTYpmKyaWbl+TQ5UPaEsHJqycl/Fa45E0X9cvvb1aeWCnD/x0uL5V9SWrnqq2t/gfdGN5gFRyEAMRMfPLJJ+o3/sUXXwTt8NnoHjxw4ICa78UEQc6IO8I8LD/99JNa8Ft7+OGHVfyRCdZhQ6X93XffqQXrzzzzjOzeHfcuWwyLjwoacR1PPvmkpEuXTlXWGPYcwcjwPtatW1fFPqGrxhMQqRAg6Hqwgu7P7du3u9qL9VQl7u01unPp0iW1HWKhFBqhHoBXFF0eWHANEC7ff/+9ui81a9ZU3gqIiixZsighA2ESjCR5IQEXmTl3B+aZgAvLF0Fx4uoJOXPtjFTIVkHFRFSbWk2Sj0qugi1bzWslBy4f0Hv6l1aFWknONDnljdVvyLpT65SHYMPpDfLaqtckY8qM0uG+DnpP/wPvyjtr31HC6YUyL6gfrS94k7VhdZNj3gyzpYHPCS0QE3Niqthg1ob9BDprA/EyEBBogcILgblkwJdffqlegwUIKVT2gwcPluTJk0d6idCvj+8GPAKo/OCux4KKFq3sH374Qe2DBeuomCdPnqzmT8GC4EPcW1T+caVEiRLqfFDBo2sSv2lMwPbee++pOWFwjvBO9O7dW/7991+PMQj33Xef8mQiDsSMjcJzAWWIEEyS5+01egJiA+KrSJEiUcRXTFy8eFHN4/PGG2+o3zmuo1WrVqobBLFdgQpADjRBESOBYBlUgqiEsPgiKND6v3Hnhvy+73dpPqe55E+fX8bWGytdi3eVeYfnSZ0/6iiPhb+5P+v9svjhxZI2eVqpOrWqhIwMkcpTKktIshBZ1HKRVA2rqvf0P19t/UqJlmE1hkn21L4P+OVN1ka5cuUiuz/wMFu3bp16eKDlgtgIX2DWhr0EMmsDrVyrgEBlgUoUXVoQrRAc6NpCixNlVGKIw8GkZzhvtHLx/cD3C0IXsTf4nqJb4MyZM3LhwgX1nqhs4K42hW2g2bx5c2TXgLkgJgeVKtzvqFTRxQEw++369eslc+bMqvJbtGiRWjDBW4oUKdS9wP+gMkU3QOPGjZWr3gSufrSwzQno4kLp0qXV52OC9w0LC1PxDzgW7ik+LzyL0YWB1r47sNWuXVuduzkpHz4bfJ4QPej29PYaPYGuFmSC4f7hPnpDpkyZZOzYsaoLzRoLheND+MADHowB4QlKSODDxIPB+iPxx4IAJasqNQUFWnFxTcdBrMBbFd6S3xr9Jk8Wf1K+q/OdjK47WnU1fLDxA7l5x78Vyd6Le+XRuY/Kvkv75NlSz8qEBhPU68HLB6Xd/HZqux1sPrNZdWl0LNpRHszzoLbaB/q9X3vtNTU9NWIhqlWrph40aPVaZ4AkBMybN09VRtbfNabl/++//5RHAq7oDz/8UHkj8dDv06ePav12795dtYgR0IuWstmqRIVVtWpVVQmjNY3vYa5cuZTLGl5NtDY9PVvcF2/383ZBsLEVa9YGRBBa+DjX//u//1NBlggwxv8BVLqotHH9iDWwLvg/BGaeO3dOefx27doVbeyJP8C9fP7551V3BxoNRYsWVbE9qPRjaszhc8E5mt0b6NZAdwdmngXeXqMn0JjEeaHij6tQxHcPAgXnj+9bx44d5eeff1biJBifVwlKSOBHjw/U3wuCZKyKF+twZSEgCEtcKJrR9QMo2SMy8BE8WuhRqZWzloon2H/Jf6lX8II8v+x52XtprxIrEC2o2PE6s+lMORp+VG3Hfv4E79d3dV/JliqbDKg0IMq12smjjz6q+hvbtm2rWht4oA8fPly+/fZbvUfcYNaGvQQyawPR9mgZom8brUSABziWWbNmKaGBbhezdYrW6po1a1RFhlY93OnwSEC0orKBRwIVFFq+qFjh5UAfOlqY8DLhfz09W9wXvJ8nu6cFxylfvry88sorygPivh2/BffWrTVrAwIIzy94ViGIICY8Bfvh+t3fGwvc9KiQcQxcq51A3KALAB4CiCD81nFeqPBjSq+EuIH3Ad0ruDb8b+XKle8RPbFdoydwL/E++Pxj6jJFF4+ZVov3RFwEssry58+vAkPh+cIxcJ7BSlB0bcB1BneoKSDwo8OP+K233lLBNHEhLE2YpEse1Q2HbgfYUQGfvX5WW+PPnot7VNdC3dx15bFCESmQJrVy1VL2NafWyPbz27XVP4zaMUqWHF8ig6oMklxpLXPO+4g3WRsADxtUEujawAMAD/qXXnopyo/cmtERE8zasJ9AZ22gtb5t2zYV2GcKCjzsA3EvfKFfv37q/uH5ZO1SsIKKKyZMrwWeafDA4Ldj/o+Z8QTRFBM5c+ZUlbP7+BPo1sHvD15bs8sOrXtrixv7RNd14Al4dyCC0EDAeSGuARVzdN2QeD6jgoYQxGeNbg0ER5oNQ2+v0RM4F3ih4NlB8KYn8BzCQHlojJrfryFDhkibNm2U+MN54/zhbYH3KlhJ8kICLQqzuyQ+AiJ32tySIUUGXXIGMy4DWSFpkkfNq04RkkKqhFWRO8YduXXHfylHCLD8de+vcvXWVWk7v60aSdNcBqwboMaSqDGthk8jXPoCHorWqHEERhFixRQUyDTAw3zo0KF6S8IFHhAIIH8EyaILEAK2QYMGyiuB7h1gBiv++eefyoNjgpY9jotuQ3hhcufOrbp04MVBxWmC2BFUovjNpU6dWrXgUZFavQfwMMDLExsQADgXeHZMcN4QMbEBkYPnODw0OD+rp9Hba4wOBIPCmwevjvt+eA+I0jlz5qjvGL5biKOB1wkDWFnFH55RiOsKVpK8kIDqRNoR+q58ERAmYanDpFSWUiomARkcVlD5Hr5yWDKnzCx50ubR1vgDAQFvB1JP3bsvDNfflrNbVNBl8pDk2hp/IFjQnYFYDPfl8SKPq+3vVXlPjeqJbh5v8CZrAw9WpE/hYQh3oZmzDRezGdSHlghcit7ArA37SWhzbSDuAa1ja2WVUEGljcwIPJ/8ASpkeA/wO4KYQMWLVjsEBlrr8NAhIBfBky+++GJkv36ePHki90NgKrxb2Af7du3aVYkIBGGmTJlSeQbQesf3G58DPCkIlkT3TGwgGBTn+MILL6iuSnQ5ff311+qZjNY9gjOjA0IHMVOIeUC3Ds7ZxNtrjA4ElMKTA4EE7xC8DfhOw8uA/8X9QNcLPitzfwgXxHPhWNgXHhvsG1P3SFInKLo24JHwVUCYoAJtX6S9EhEIqoSnwGTmwZkqNbNZgWaSL30+bY0/hTIUkpo5a8ryE8tl+v6omQuIx8BIm9XCqkmpzJ5zoH0Bno5G+RqpWAz3BRkkGIirSb4m0rZIW8mW+m5Udkx4k7WB1g4isNEHihYAouwRhIUWAX7UABUXgqO8JTp3qZ0wa8N+Yptrwww2TMgggwTxAf4EKZFwsf/4449KqABU/mitQ4Bj2xNPPKEqTYzv0KFDh8h7Ze6Hrl9kxCB4EQICIhXZFgBpleb4EKj80d2AoNb/b+9c4Gwq1z/+EMadzGQkFLmkFEkonCiVW8pl3MrlRC6lnKNEusxR6kQRoWRcEklH+ItuIumC0VByaeKQypEhueReWf/1e/e7tmXMjLX3rLX2npnfdz7rM+/7rD2z9t6zZ61nvc/zex4nuUj4HZBI4jUjrIHvuNCjBDVkolk5VHBiUPwJ4GKf/lzu9DVmBupBwDGCQwInFTcscCAAwqNDhgxRqycAYbWJEyeq76glgeRdOK84RyGhF3VuLBlynsLIhCx25SrMi5xhftD0LGtO/nXS6LGih5F/Sn6j6eKmxrTUaUbfz/oaRacVNaq+VdXYfmi7fuT5ueaaa4yEhAQ9yxz8TvzumKkxRudlnY2Z388MHrPsG2UN06HQjzw/5p2accEFF+hZ6IxYN8IoNaOUsSZtjbY4o3Llykb//v31LHPeeusto0SJEuqzl34bNGiQYXr8+pHnZ9GiRYZ5wtEz/zBPQsbw4cP1zB+SkpIM8ySqZ/5RsWJFw7xD1TN/MC+QRqVKlfQs59KkSRPDvBDrWcYsWLDAaNeunZ4REl3ExsUHtzyxIuEWuBvHkv7oBqNVg67eK3urTqAdKneQlW1XSpWS7sfv8TvR16NTlU7y0c8fqYZh1jHXtlsrDctmnJGcE8HSNO4soNpAlUIkUiGGuWTJErXkaCVYOYWqDW9hr43wwV2s6WDrGSE5G3UrrsdngeWgTHblKlCMBXGv8y2Xug3iipA3IsvaL7CcimW8jCRiXgLdPpKTIKEiJLtgCRnx+ZwKzqsoYIQl8KyW3bHMjjCFFdojJJqIu+hMmJkrEoQQ4iNIhITy4Xyxe0JyCnQkiOc4UW24DVUb3hNtqo2cAlY/82IZZZJ7oSNBPMeJasMLqNrwlmhVbUQ7ThtEEZJToCNBCCGEkLChI0FyLVRteAtVG4QQQNWGVm2gQpufoJwvmr4gpu4XqA0PGSXKwfoJ4tqoSJe+Fr11QUhfYtctOwrMoIa+PdyAXg0AlfW8sMN5gUwVr9kCMlarcZBXdlQGROleO9ZztD8WuGXHc8Gx7XZUIbSqj3plRxOlnKzaAE7Or2ifj14UOT0nhORO7KqNPO9IoEY67qwya5rjFcjaxp0ratj7BRK8cFy/XyvABQBOmwVaH8fGBipj2h0AN+2o9Je+ZHL79u3Vd6/sKFMMG/oCWMC5sCpyemWHrBfli9HZEhQsWFDuuOMONUa1PS/seK1IpLU/F1QZtP4eXtrpSBASWehI2ED7XKxI2JvVEEKIl9CRIDkd1pGwgX9m/FMTQgghJHSYbGmCEsyEEEIICZ0870ggX6BJkyZ6RgghhJBQ4IoEIYREIXklT43kfPK8IwFJJLL7CSGEEBI6TLY0Pf5IlfolhBBCcjoMbZhQtUEIIYSEB1ckDEN1iiSEEEJI6OR5RwJlm6naIIQQQsKDoY2s+PVXkdatRb77ThvSMWxYYEsPHt+gQeY/Rwgh54GqDZJTyPOOxIEDBzJWbcCJaNNGZPNmbUjHypUio0bpiY1jx0RGjhRJS9MGQgghJPfCHAnT49+c3lnASkK9eiIPP4xeydpoA07GlCki3bppg425c0VKlRKJj9cGQgghJPeS55t2/fbbb1K9enXTNzCdg/TA1rOnyIsvitSsqY0mCGeYPyNbtwbmzz8f+A4H5JFHRB59NLC9/vrZP2cD3Rr95tSpU7Jnzx6pVKmStvjDiRMn5MiRIxIXF6fmTZs2Vd+xGmR1kwRu29Hi2yLedOxq6r+Fl3Z8jrZs2aKtIjfffLP6jvfdS/sXX3yh/r4AnU8vv/xyNf7kk0/Ud+C2fffu3ZKamqqtZ57LTz/9JP/973/VGLhtx/t++vRpNa5WrZpqxw/sz9EL+1133SXXXXedGmcXJ+fXxYsXS1JSEpPBSVTC7p829u/fr07MGSZcZuRIwFmYMCFge/rpgM1yJOBgtGwpUrasSK9eWToStWvXlvLly+uZP+CC/tlnn8ltt92mLf6AiwFapleuXFnN0Qoa4L3ftGmTGgM37bjArVixQq688kplQ1LtNddco8YrEZbSuG1Hp0a0TG+AHBmTYTqH5uuvv5aPPvpIjYGb9jVr1siIESOC70edOnWkRYsWavy89dk0cdvey/yMwzm0HETrOX7++efy5ZdfqjFw045umLDD+Qf4v23UqJEa25+j2/Z7771XOTL33HOP3pM9nDoSaI2fmJioLYRED3ZHAh/mDMliV95h3z7DaNXKMLZsCcyPHjWMAQPOzIcODWzg00/PjLG/fv0zj8sA86JjJCQk6Jk/rF271jAv6HrmH6YDYfTv31/P/GHRokVGTEyMnvlHuXLljOHDh+uZP6xevdownRc98w/zTt1YtmyZnvmDeZE3brjhBj3zjxo1ahizZs3Ss+zj5Py6ZMkSw3TY9IyQ6CI2Lj64UbURCj/+KPL++2Le5uKWIpBsiQ13UB98EBjDjv1r1wZWJ6jcIISEQenSpVXolZBoJ887EohpO+61gTDFzp24lwhsQ4cGNiyFYrPsiGHXrx9wLjIJbRDvKVGihB75R6lSpfTIX5C34DfFixfXI38pUKCAHvnHjTfeqEf+gdyMH374Qc8IiV4o/zxwQE6ePKlnxAsQY7biz37Rtm1b2bdvn575B3Iznn32WT3zh4YNG8rq1av1zD+QW3TLLbfomT8MNR135Pn4zd///neVTOsWd9xxhx5lDpKiY2Ji5EeshBISxeR5RwJJT/hnzRAkkb33XuarCtZKRHrw+ORkrkYQQjLkfYRIHdC8eXOqNkjUk+cdiapVq0qfPn2CcjLiPocPH1ayRSfs3LlTHn74YbniiiuUk3fZZZfJ4MGD5fvvv9ePcMZ7pgP40EMP6dn5SX9cSEgnT54sx48f149wBo756quv6pk/QLWB5+43UDdstSTQPgHVhl0t4xc47ncu5TthBdRpWKhLly4ydepUPSMkOmGypUmPHj0kf/7ofSv+Mv6S2dtmS/W3q8sFSRdI4WmF5bb3b5MtB87UE/Aaw/z617p/SenXS0vy3mRtdcbGjRtl+/btepY5WLKGrHDs2LFBxwHLui+99JLcfvvtIV1A/vrrL5mComEOyOi4ONaAAQOkX79+IYVI5s2bJ7t27dIz/3jrrbf0yD9eeeUV+fnnn/XMH/bu3SuPPfaYnvnHqlWr9Cj7/O9//5Ny5WzSuSzA5x7OtN/hMkJCgY5ElIML+HNfPyc9P+0p5YqUk6S/JckDVz0gX+75Ulp80EK2HdqmH+ktq/asknEbx+mZ+2DVAhcmXMhRh2HRokXy559/yvLly1UiIRyKkSNHyi+//KJ/wh3w+5555hl1XNR+gNODehu4C0Sy5qxZs9QYjgkhboDcEqyEOmXChAkyffp0eeGFF7SFkOiCjoTJ7NmzpTWac0UhK3avkFHfjJJ7qt0jy9osk3tr3CtjGo6RyU0my55je2T0htHK2fCSg6cOypDkIXLo1CFtcR+EFlB8ByAu3KxZM1XECkWWuulS5MuWLZMdO3aosROcqDa++uor9XtB586dpVatWipnplOnTqqSIYBTgyqLTqBqw3tyumoDRbbqoQS/Q5B0+fHHH8vSpUtV0jJW2hBSonNLogU6EiaoVof4p700rhtgCTM7wEGYmjpVLoy5UJ6s+6QUyl9I7xFpXam11CpTS1IPpsrhU4e11X3wHCZsmqCO0/yS5toaGk5UG7///rts2xZYXSlatGjwYgFnokiRImoMnIYNnKo27CGXsqhIqoETgvLIIDk5Wa1UOIGqDW+JVtVGKO8/HFM4y6FQpUoV5Uw88sgj6vW3adNGihUrJnfffbfK6bE2VOIcN26cCrER4hd0JDRY3n7wwQf1LPugnC5im4jn4iIZDvuO75Ovf/1aro27Vi4tfvYdZ5mYMrK+/Xr5vO3nUqqQd3fBq9NWy/hN4+WhWg9J43KNtdV9UGYZZcPBsWPHVFgD4K7LSnhEyCOUJWEnIIzhBCc5HiTvgURXrGbiAm4vXZ4ZyGWJjY2Vxo3D+19q166dWkHFigQ+u2+++SZKZAY3lA8vWbKk9O/fXzkshPgBHQkNPPtzuoBmA2Tu4w4BCXwXXXRRWA5F2vE02X9iv9SJraNyIuovrC8FkgqoZMt2S9vJj0e81ZdjpePxrx5XTszAqwaq1xMOTlQbaAJlhZcQakCfDDgRSHqcM2eOsnfo0CHYO+N8OFVtXGXr7pqWlqZOxgCZ9fZGbmg65gSqNrwlWlQblgOBlQVIOVHUDomRWYGf/8c//iFPPPGEtngD+oJMmzZN/v3vf2sLId5CRyIDkIDXs2dPmTlzphw6FF5eQI0aNVRsHxdfXJTCcSiO/XlMTp0+JfN/mC+tPmwlFYtXlOk3TZee1XvK0l1Lpcm7TdSKhVdM3DxR1v+6Xl5o+ILEFQ40ZgoHJ6oNhDJwgsX7hPfrzjvvVDYsnaNMMJa00ZjKHubICqeqDTTassIu//nPfyQlJUX9LJyZcO7oqNrwlkirNtI7EEePHlV5MY8//rjanxH4PCFZEvk+Tz755HkdDjdAfg8ceHuHWkK8go5EBqCTI+KhEydOVA6FxbfffquSpLBdf/312hqw169fP7hZtG/fXsX4AVo84wI5ZswY5VCEAvITHqvzmLxz6zvSo3oPea3JazL1b1Nl7/G9MvLrkfLH6T/0I91jw/4NKqTRrWo3aVa+mbZ6C1YAvvnmm3P6C8DxwmqR04THUED4CXFnJCsiFwJ/PzgwiEFbbbkJAVgJgTNgORAWCL3BucFnB+cFbDhHQAVkJe8uWLBA3n77bRk4cKD+Ke9p1arVWd1TCfEKOhIZULhwYdWyGBn9aAtt57XXXlNb+uVr3J1hmzRpkraIUiHYC10hiRB3L7hwhULVklWlzxV9JJ/5ZXHnZXdKo/hGKodh5+87tdUdsBIyNHmoxMbESmLdxLOO6xVIjBw0aJC88cYb6gS8du1adSeHpXPcAS5ZskTFfa2ETCc47bWB1Q+c6BMSEtTPYDVp/PjxYYUoqNrwnkipNtC6HKuMhQoVOqsaLj6nzz33nPrfx2cGG84ROB8gn+HgwYPq8wslkp8gCRc3OYR4jpEJWewiDilbtqx6H00HwoiLizNefvllvcdZG/E1aWuMUjNKGY0WNTIOnTykrWfovKyz2o/HOcFpG/FxG8cZRaYVMeZtn6ctAUasGxHS8Szuueee87ZgXrRokXqvsE2ePFlbA8yfPz+4b+zYsdrqPeZFINPnRPIWn332mZGSkqLGqampRq9evQzToVCt6rENHjxY7YsmNm/ebNSrV0/PCHEXthH3Aaw64E4EagQkpeGOO1RVyMVFL5YSBf3tYIkEy3k75snxP49LwrIEyTclX3BLTElUtSQa/l/DsCpcZsWGDRv06Nw73fj4eD1ynvSYXcz/k7NWPyC/IwRgxQrJl7jb79q1q1p1hOQy2jp1VqhQwfUCboRkBB0Jj0B3PyzFh+NAWFxU+CKpeWFN2XF4h1Jw2MEFf9fRXVK6UGkpX7S8tmafIgWKqHDGmze/ec7WsUpHtX9EvRGqwiZCLk5wotqwL83b1RMAcwuny9pOVRvIu+jbt6+S6+LvBekpgBNoLQsjsQ6xbidQteEt0dRrw3IoNm3apOSflStX1nuiA8hAw00WJyQU6Eh4BJKyEGfPDrhod67SWTkRSKqEgsPivZ/ek5R9KdKyUkupULyCtmafgvkLyq0VblVJlum3q8tcrYpi3V7hdkmokiCxhWP1T2WNE9XGddddFyz4A/UEEh8Re8aqADLeAepIOC2AhJ91otpA3gqUB5Cbfvjhh+qijKRYqC8WLlyoHoPES6e9Eaja8JZo7LWB3IloVUeE2nSOkHCgIxHldK/eXZXHRtOu29+/XaZ/P136fd5P+nzWRyoWqyhDrhniSzKk16A+xFNPPSVlypRRTsQNN9ygVh9wksbqApIghw8fLnXr1tU/4Q4IPUGZg9+Pfh5wVJBsi2ZdAAmg6A4bbg0NQiIJHGpCvIaORJSDFQCEEUY3GK0adPVe2Vs5FR0qd5CVbVdKlZK5I3aPCzVaJq9bt061DceyMUDIo3fv3qpq4P333x9Sxr5T1QZ6bCxevFipNuDI4OfQDRSZ9qNGjVKliJ1C1Yb3REq1QQjJmHzIvtTjs8CJPZNdxAVQDhoXSyzj+wXkrLjTt8pP+0X37t1VER70NCEkJ4LS0wiDIQSXk+B5nHhF3EVnwr1ckSCEEEJI2NCRIJ7jRLXhNk5VG25D1Ya3RJNqgxASgI4E8Rwnqg23caracBuqNrwlGlUbhOR16EgQQgghJGzoSJBci1PVhptQteE9VG0QEl1QtREhLNUGuoH6BcILqNLodylflAvHcSGptIPKewA5FHbctHv5u0F6OzrH4gKbvqKg5WB4Zccx05cP9+OY6G7r1e/P6rh+v1ZUOaVqg5Az2FUbdCQiRNmyZVXbbL/B3xR/W78pUqSIasttFcjBSdm6s0RLZq/skLpaZa9x0bNqQnhlh7y2cePGMnPmTNm/f7+yoz5G+fKBMuZe2Zs2baoSTFEPA1SqVEk6duyoxqgO6oUdDuLOnTtl6tSpQYcKUl+rTb5XdrToRitv1BYBVatWlbZt26ox2s17Ze/QoQMdCUI0dCSigIEDB6qS0A888IC2EEKIu/A8TryCdSQIIYQQ4gp0JCJEtHUKJIQQQsKBoQ1CCMml8DxOvIKhDUIIIYS4Ah2JCIGM90mTJomg7G7r1iIZKTiwr0GDwPf0TJ8ucvfdIloxcBbDhgU2QgghxGPoSESI48ePS5m0NJGWLUW0jO8s4CCMHCmCx6QHjsXTT+tJOtCHYNQoPSGEEEK8hY5EhKi2e7e0wYrECy+IxMZqq425c1EdRyQ+Xhs0cDAmTBBp1UobbGBVA/0lunXTBkIIIcRb6EhEiL8aN5ZZzzwjUquWttjAisP8+SKdO2uDDTgYqKpYr5422HjxRZFbbhGpWFEbCCGEEG+hIxEh0Pb5/vvv17N0zJwp8uijKH+pDRqsOCxfjgQLbbAB5wPV/7p00QZCCCHEe+hIRBvIcQA33RT4bgcrDn37isTFaYPGCnc8+CBqQ2sjIYQQ4j10JCIEVBuvvPKKntn44INAsmS+fCJXXimydm0gIXPVKpFPPxVp2jSwr3dvkTlzRO67T+T770Xefz/weOzDz2OjcoMQQojH0JGIEGj0hGIx5/D88+isFdi2bBGpXz/gXKCN8Zo1Z/ZNmxZIqkxKErn2WpGdO8/sGzo0sOF3EUIIIR7CypYRAvkRV199tQzACgNyHpAXkT5kgbyHXr1EXn9dpGZNbdSgjgTyJeBIpA9nWCsR6RyJr776St555x09848DBw7Ivn37pHr16mreALUxTPbs2SM//vijGgO37cnJyeq7hR92tGjfu3evtpx5rNd2+3MpVKiQ6VuazqWJl/bvzM+n1ZUTWM/Fa7v9uaDt9xVXXKHGXtpTUlKCnWWB9Vy8toP27dvrUejwPE68gt0/o4AxY8aoVtcDBgzQFu+BI4E21/HpJaUeg1bbf/zxh2olDho2bKi+HzlyRDZt2qTGwE07LkDffPONuuiBChUqqA2sXbtWTp8+rcZu27dv3y4///yzFC5cWNmt53jw4EFJTU1VY+Cm/bffflPO2sUXX6xsXbt2lZt0jk3//v3Vd+C2HW22p02bJmXKlFH2yZMnq+/4nMFu4ab9iy++UC3U0bId9OnTR7UVB/bn6LYdrczxfKxVROs5Ljed+Xnz5qkxcNO+YsUKWbRokSxcuFBbQ4fnceIVdkcCH7IMyWIXyaGYFz7DPAHrmX9UrlzZME/OeuYP5gnYiImJ0TP/KFeunDF8+HA984ekpCSjePHieuYf5gXWMB1iPfOH559/3jCdYT3zj7JlyxopKSl65g+mY2FUq1ZNz8KD53HiFbFx8cGNORKEEEIICRs6EhECqo1XX31Vz4gXFCxYUI9yPwUKFNAj/7DCN3mBSLy/hOQU6EhECCQfHjp0SM9yN/Xr1w8m7fkFYvi7du3SM/9A/sKjKCbmIwkJCbITqh2fQQy/N2TIPoL8hQ+gYvKZLVu2SNWqVfXMHzp27Cht2rTRs/AoX768HhHiHXQkIgSSAJEklxfAygASS/0E2fbY/CYSx43Ua8Vdel55rZE6bnb55Zdf9IgQ76AjESFq164dlJuRM0AFsXr1arn33nslNjZWZZ03b95cFixYoNQfToGK430U6XII7uhRthx/Exzzsssuk8GDB8v3KPYVAjim0+OmP2bTpk1Vtj46w4bCmjVrQnqtboFjfooiaT7y8ccfK4WK30Ce6Td4fyH3zQ55KfxEIohOwDyHLHaRHEp2VBunza/ElESj1IxSxpq0NdrqDKeqjT/++MMYPXq0UaJECfX5S78hYx+PcUIoqo2VK1caNWrUyPCYl156qWFeLPUjz49T1UZWx+zevbuxd+9e/cjzQ9WG9+RE1cahQ4eMiy++WM8IcReqNkjIrNqzSsZtHKdn3vDee+/JM888I7///ruqr4FaEMhzuPPOO9X+8ePHy/r169XYLXAMlCrHygPqMEC3j5UP6PpNJ0IVuho5cqSrS8T4XXidOCYKD23cuFFOnDihahWYTpTMmjVLje0FiggJFdQzsWqLEOIldCQiyCWXXHJWcaFo5eCpgzIkeYgcOuVdcigST2fPnq2cCFxchwwZoi6qeI9Q2Q+Fl+rWrauSVJ3iRLWB8ILlnCCE0qxZM1XsCMma3VCC3GTZsmWyY8cONXYDFDbC7wSdO3eWWrVqSUxMjHTq1EnuuusuZYdD89NPP6mxE6ja8JacqNrYvHmz7wmiJG9CRyKC9OrVS15++WU9cwd7+WQ3MMyvCZsmSOrBVGl+SXNtDQ0nqg3c+W/YsEGNUTo83lZ9s0ePHipvYsmSJdK6dWttzRqnqg04Ltu2bVNjJIRaFww4E1YlTuBUAeJEtYHqlxZlba3i4ThVq1ZNjVGmGSsVTqBqw3tyomrjyy+/VM43IV5DRyKCDBs2TF0ckUjoBigfXLNmTfnnP/8Z0p17VqxOWy3jN42Xh2o9JI3LNdbW0HCi2sCF0LqgV6pUKdsqD6dZ9nFxcSrxFaCRmpXQibCClfSI5WGnFxEnx0UYwwl2hyMrnL5Wt6FqI3KgPDk+k9YKVka8++67aoWNEK+hIxFBcAeKXgLZacpjp3Hjxqox1sSJE9XFDw7Fr7/+qveGzuFTh+Xxrx6XS4tfKgOvGhjsM+AF6CFhAe373LlzVTjDUm3gLtQL1cbll18eXOVAuAF32XAiVq5cKXPQpt2kQ4cOciVatDsAxzzfca+66io9EklLS0NWsxqfPHnyrL8Xeog4gaoN74kW1cbSpUvVCh8+k7t375bu3bvrPWeDfiT4bOOxhHhOIP/yXLLYRTzixRdfNBYuXKhn4WGeaIzSpUurvx9UC1BpmA6FYV6gQlZtPLv+WaPkjJLG8v8tV/MR60Z4ptp4+umng6oFZJpbY/vmlWrj2LFjxtixY40yZcqcdTyoR4YOHWrs379fP/L8OFFtmBcHo1GjRuoYDRo0UH8X00kylixZolQi1vHxnjiBqg3vibRq46OPPjKuv/56o1ixYsHPR61atdS+9JjOsFG0aFHjk08+0RZC3IeqjSgFS8UTJkxQy+0IU1ig5bi1zZ8/X1tFHnjggeBm2W+99dZgkiHucHF3DVUCcg7QcdQpG/ZvUCGNblW7SbPy/i6P4k4cqgWEAJA7Yak2nn32WbVS4DZYBUCn0PQFwpA/gYS1UJIenYAaFSiRDlUIciFw14i/PeLhp06d0o8iJAC6yrZr104l6R49elTZUNAOicj2cwPCGFjFw//L9OnTGdYgvkFHIooYNGiQkh3i4oVMfgskH1qbPbyAJXJrs9vThyCQb4BwQZUqVbQla479eUyGJg+V2JhYSaybKPnML6+xJx0ilIFwD5QMyJewFBy4sEMi6vRi60S1gVwSvO9vvPGGUougNTicr61bt6qQB3JYkOBn5W+4BU72yI1BoiReW40aNZS8Ndz+K5FQFVC14T0o0IYQBW4K8P9gB+3b7ecG/I8jyRifaaiBCPENvUpxDlnsIlHMnDlzjFKlSqm/34UXXmiYzoMxY8YMtc9paGPcxnFGkWlFjHnb52lLgHBDG+ZJzXjttdf0LGPmzp0bXLLt16+fCjdYpKamGrVr11b7OnbsaBw8eFDvyRw8xsnjEAKxjjt58mRtDTB//vzgPoQ+nOD0uJkxe/bsTJ9PZmT3mOGCMJPfx43Ua43UcRGWBAiH9e3b18ifP78K2eHzER8fr/YREgkY2sjF4O4dd9RYfXjppZdU5j9kpk5BguW8HfPk+J/HJWFZguSbki+4JaYkqloSDf+voZR+vbQk703WP5U1TlQbyEB3UjwHkkzzZKpnmeM0y96SnILixYvrUQC7BNVp4mN2svvN/82zVj6criBl55jZgaoN/0A4zHTGVT0T/D/jfwBJp6NGjdKPICRy0JHIRezfv1+KFSumVBtwIHr27Kn3OKdIgSIqnPHmzW+es3Ws0lHtH1FvhCT9LUmqlnRPV498AUuGiedu3v2pMUCxKqs+BuLFTqShTlUbOK6FXUEBMLdwurSNY57vuMi5MO8u5eabb1ZhE8hOAV7zt99+q8YI79jDW1lB1Yb3RItqA59X9GOBvWXLlq7JvAnJFmqNIgOy2EVyKNnptQG8VG2cPn3amDJlSnBZPzEx0Thy5IjqOXHfffcpG9Qc6FHhBKeqDdPhMGrWrKl+PxQUq1evVgqKrVu3Gq1btw4eNzk5Wf9E1jhRbZgnf6NFixbqd0OlsXz5cuPEiRMq/AMbtnHjxqn3xAlUbXhPTuy1QYiXMLRBog4kiKIktXkRVvMRI0aoUAOSMM0LpUpIRF2MG2+8Ue13C9SHeOqpp1TiGhQU5kVKrT6gHgcSO3FcPCc3KwRClYPVIvxuqFJuueUWlbjYr18/tR/Jn3369DknaZYQQqIROhIkakBYBg4ElnTNO3Z1ocUFvmvXrsqGltuhZM87UW3gYt2lSxdZt26dahsO9QTAEjLKP6OCIKR1bmftI6t+8eLFSrWB14jXitcMlQji3ngvQsHt5+cEqjYIISAflij0+Cxwgs1kF8mhQIeOO+5QKkS6AS7UyAdAXoBfIK8C+J0gF4njRuq14nOEugZ54bVG6rhwbseOHatnhEQPcReV0yOuSBAfcKLacBuc8P0+6YNIHDdSrxV36XnltUbquITkBOhIkFyJU9WG2+CYfh+Xqg3viRbVBiHRCB0J4jloZ4zNT6C3d6sZWiggr8Lv1wqnKRKVDBMTE2X9+vV65g84ntNW8m6CYyKPxk8gC0aVW0KiHToShBBCCAkbOhIk1+JEtZFboGrDW6jaICRzqNrIQ1C14T1UbXgLVRuERAd21QYdiTyE5UhccMEF2uIfqJVw+PDhoBODQlOWkmPXrl2e2RFntspr43VXrFhRjb22oww2OjeCcuXKBe/evbJPmjRJFdSaMWOGsqGU+BNPPKHGXtlxgUPr9YEDBwbf98ceeyxYdtwre506dWThwoUyd+5cZatWrZqqMQKQ/OmFffTo0apkOkqaW4wcOVIVFwNe2VEynY4EiUboSORR4EhEIuM9M9CICOzcuVN9t3DT7uXvBtFkj8QxQSTskTgmsNvh1MGJA17aUWWVkGiDjgQhhBBCwoYFqQghhBDiCnQkCCGEEBI2dCQIIYQQEjZ0JAghhBASJiL/D4t2xbqI/TIeAAAAAElFTkSuQmCC;" vertex="1" parent="1"><mxGeometry x="186.69229830228358" y="213.23075045072108" width="530" height="673" as="geometry"/></mxCell><mxCell id="4" value="" style="shape=image;verticalLabelPosition=bottom;labelBackgroundColor=default;verticalAlign=top;aspect=fixed;imageAspect=0;image=data:image/png,iVBORw0KGgoAAAANSUhEUgAAAgkAAALfCAYAAADrBVHKAAAAAXNSR0IArs4c6QAAAARnQU1BAACxjwv8YQUAAAAJcEhZcwAAEnQAABJ0Ad5mH3gAAP+lSURBVHhe7J0HfBTFF8cfEFrohBI60jtI70UITaUISFFAQYooKn+poiIgTUBEUGkiCiggLVKNIL13kCIdQgkkQCgJEgL3v9/cTNgcl2Qv2d209+Wz7MzbvW132Xnz5r03Kbxy5LYFBQZQVKRIkYJsNpusMQzDMAyTXEgp1wzDMAzDMJFgJYFhGIZhGJewksAwDMMwjEtYSWAYhmEYxiWsJDAMwzAM4xJWEhiGYRiGcQkrCQzDMAzDuISVBIZhGIZhXMJKAsMwDMMwLmElgWEYhmEYl7CSwDAMwzCMS1hJYBiGSQA8fPiQ+vbtK+bL0S4LFy6UeyQdcE+4t+bNm9OtW7ek9HlGjx4t9sNzwfPRon1e2M9dojq2kqslKT5/d4ibkhAaSvTGG5gF6tmyZYvcyDAMw+jh33//pVq1atHMmTOl5BlvvvlmrBpBxn127NhBn3/+uaw5KFy4sCwlT2I/CyQUhF69HOXZs4k8PR0KQsOGRJs3EzVo4NhmMCdPnqQ2bdpEaH7ly5enEiVKiPLatWtNlS9btkysQbt27cQ6MDCQtm7dKsrAaPnVq1dp9+7dolylSpWIH+zKlSvpyZMnomy0PHPmzPTTTz8JGXB1LcBI+b179+j69eu0Z88eKbWG+/fvU/r06cnDw0NKzCcsLIwePXpEmTJlkhJrwL162v9OU6VKJSXW4OXlRadPn5Y1xhVQApwbJ2e2b99OderUkbXEDXrnUH6aNWsmyviNuEI9lz59+tCUKVPE36oC7+gBAwYIxWrUqFH02WefyS36cHVsKAl169alihUr0uLFi6lkyZJy7+RL7JUEe2NNb71FNG8eUenSUmhn6FAif/9nioPBrFmzhn755Rfq3bu3lBA1btxYrDdu3CjWCiPltWvXphYtWoi1koFDhw7R7du3RRkYKUdD2suuiH3zzTdS+mx/M++1oV3RK1WqFHXo0CFCBrZt2yYaOIWR8r/++ot69OhBH374oZRaA14seEnkz59fSsxn//79tGHDBvufiv1vxUKGDRtG//vf/yhnzpxSYj5Q6vF9s5IQNdrGzrkxhIWhY8eOdOTIkecaQu02EFWDC3P+G2+8QX/++aeUEC1YsEDInHFWVlw1ztrGFab6t+ztgLoGV42183Xi3MBMJUEpIVqc79n52JMmTYp07yCm60sWQEmIDvsusqSTH3+02bp0sdlCQqTAWFavXm0rUKCArFlH0aJFbfZet6xZw65du2ze3t6yZh01atSwTZw4Udaswc/Pz1awYEFZs44MGTLYfv75Z1mzhsGDB9vy5s0ra9aRJk0am72hkDVrsCt+tuLFi8sa44rQ0FCbvaES71os27dvl1uiBvuo/bWLvQdsO3XqlNzLJsqQudrX3rDKvWy2oKAgm71BdLmf8zHxOVf7qUV73KiuUy04J84dFepceD54Tlq0z017TrsyEOkc2gXbFM7HdnVfMV1fcsBYx0UMQaBnWqCAKVYEhmGYpAZ6x127dpU1EuZu5TSH3q4zsAwoub1hE5ZeeyMnesTorS9ZskRsQ08bPWTI0CO2N3ZiX3wGYPgUvXzw/fffC0sDzOx2hUDsh/3xOXwex1FDsFrQO9fuC2CyxzVi//nz5wuZ9vwYNnEXWAswVKaeCxbUnX04cF51TpxH+2wArFqu7gPAEqGuTT2H9evXJ28rgh1jlYR9+4h+/ZWoRQspMIdixYrJknUULVpUlqylZcuWsmQdPXv2lCVrqVy5siwxTPICvgbKDK8F5m80iFoPfDReqkF//fXXhUyraKhG+vLlyxG+P2gAVWP30ksviUYbQ40Yc8e++AwYNGhQxDg89lcmfBwHx9OCYyA6AWBfraIDtOfHNnV+3KtSVIwG50DDDuUA58F9uVImGP0YpyTAR6F7d6IhQ0xzWgRFihQRP2SrwR9l69atZc0aatasST/++KOsWQf8IAYOHChr1uDj4xPhTMkwyRGMl0fV00YjhzFzcPHiRbFGDx++Q6pnDQsECAgIEL32qEDjqe0hY198Bjj/DebIkUMoIziX8zGxLxpgPTgfF+9xs4Bi4PxMmNhjjJIABQHWg06diMaPl0KGYRjGXdCIQ1lwNpUrC0FyBM8Az0I9F+dno8DwyXvvvSdrjiEHV/sx+om7kmCxgnD+/HnatGmTrFkHIht8fX1lzRpgqoM1wWqaNGkS0WuxCkQ3IByTYZIb2p4vPOm1YBghX758oqwsBKpXrvUf0C6HDx9+LnRPWR8AGtJKlSpFDDHAWuDt7S3K2v0AzgcrAs6F/WKL83HxHjcDdb3KBwIKFxM34qYkxJMFYdGiRbJkHWfOnJEla7l06ZIsWceDBw9kyVqePn0qS+4REBpAZZaUoVEHzRnnVFx6cIm6bepGGeZmoBSzUlD+hflp0tFJFBoeKvcwlqshV6nQr4XEuaJass7LSntuGp9b4vTd09T6z9YR94p1u7/aiWfAGAuGDJTTH8L2lMKgFhWWhw5DwYIFI/ZHY7hEOikCODNif+W/gH1VJwPOfMoKgRBcfBameCgKGHZQjenEiRMjnBmxv3KQVOd2B+35tcfFOZ1DDY0Gw8NQoMDBgwfZJyEOxF5JwPjU22/zEAMTr4Q9DaMhe4fQyWC7wmoi5++dpyarm9CyC8vozeJv0s8Nf6YauWrQkD1D6N3t74rrMBpPD0967YXXqFuJbs8tzfI3I4+UHpTeIz1lTJ1RfsIYdt7YSbV9a9OGqxvEvS58aaFYr/dfT9VXVKcDQQfknowRoJF2zi3gCjj/wbKA/ZWToHJs1CoTaj8syCMAKwAaTVgCsJ/KHwATvHIW7tevX4TiofwcsD8+B/mYMWPE8dwB+6vr1B7XTD8BrcKlokTYLyFuxF5J+OMPImTHmzDBkY5Zu0B7hBJhEhzdYC6JJboBPfgBOwfQgjPPe4Ubic3+b9zhceQf4k9z6s+hmfVmioZ6qc9S6l26N/129jf60/9ZohqjyJY2G02pNUUoJNpldv3ZlM4jHaVKkYq+rvk1lc1WVn4i7jwMf0hjDo2h8Kfh5NfST9xrl2JdxHpV81UU8jiExh4aS4+fPpafYIwAPfmoxs7VeLzWdA4nR/SUoQAo1PCDdj8MOyCKQTWcCkQXzJgxI6LhV1EBzlEHOPeKFSsinBzdBdfifJ04h6tIDiPAdU6dOjXS+XAu5QzqKkqDiQHDkykZwNChQ2XpeU6cOGFbu3atrDFJiY8++kiWYubIrSO2yssq21LOSmmrtLSSjWaSbeSBkXKrfvQkUwp+FGxrvra5rcaKGrZb/92SUgdLzy91+9xxTaY05+Qccd9vb37bFvYkTEpjRk8ypesh123lfy9vq+Nbx3b30V0pdYA65AUXFrRdeXBFSqMnpmRK9gbI9uDBA1ljGCahYUx0g4FgvGzChAlCI5w2bZqUMswz7oXdo37b+9HxO8dpXPVxNOzFYXKLOWRJk4XWtVhHu9vspuxps0upg4v3HQ5Z+TNYk9YZ/heTj04m7/TeNKTiEEqdMrXcYgzent50tP1R2t5qO2VOk1lKjWfXrl308ssvi3S98WEtYxhGHwlOSahataowd2MyGuS2R555rbLA0Q3mkxiiGyp5VaK9bffS4IqDhdndamCWn31qNo0+OJoqelWklgWsaehmnZol/C/6lOlDJbNaO/nM+fvn6VTwKSqQsQBlSh27yamUcoC8GJhI7fHjx/HiiMwwjD4SnJIAMBENPN0xDocwFmdlgaMbzCWhRzeghzu9znSqkL2ClFjLx7s/Js+5ntR7a2/R817ZdKVYm8310Ou08MxCKpq5KHUr3k1KrQGOmV8d+YruPLpDHYp0cNvK4KwchISEUNq0aen999+nPHnyyL0Yhklo6FIS4CFq5QInQW2DoZQFZAH8Aw6TDBOP1M5dW3j8w2nR/4E/1VhZg3bffDb1tVn4XfGjs/fOUvsi7alwJuuyUz6xPRHOiovPLSaffD7Uq5ScIt4NkL5XKQcKTM8Nxd/VOyAhLBkyZJBXyjDJF11Kgs0pWYfZy7lz5yhlymeXhtSfCMeBCbxVq1Yc3WAyPHdD9LR7oV2Ex//ypsuFx3//Hf0pOCxY7mE8GN5YeHahMPO3LdxWSs0HFoTh+4aLYZW63nVpUZNFIjTTXeA5j9+ytuENDw+n/v37u3wHJIRFq9AwTHIlQQ43jB8/nlKlShWhHKAeGBgoXig8d4P58NwN+qnvXZ9qe9emM3fP0L/BjmQxZgALwuGgw1QuezkqnbW0lJoLQkz7bO1DE49MpAZ5GtByn+WUNU1WudU9atWqRWvWrBG+J0pZePToEU2fPp2uX78u92IYJqGR4JSEAwcO0Jw5cyhjxoyRlAOGSYggmZFzxIMZIJIj8L9Aapq/qalRBwpYRTpv7EzzTs8TlhPfZr7klS7uU+Y6KwupU6cWEQ4MwyRMEpySUKVKFRoyZIhICepKOeDoBvPhuRsic/T2USq5uCS18WvzXBIhhGNeCbkiTPBmKgubrm0S4Y7VclaTEvOAgtD+r/a0+vJqeqvEWzSv4bxYRzNEhVIWkFZ43bp1Upr4wFwL8F9Qcy6oOnww4mMyJjUvA65Bzc1gFfF97+4Q22tFumukvcZno1pUKmvn30ZiJUEON4wbN06WXMPRDeaS2OZuMJtimYuJPAibr22mvTf3SqkD30u+QtY4X2PTnAkfPH4gQg9zpMshrsVMbPZ/Yw6OoY1XN4pUzDPrz4yVD4JeMISXWB0E0bhgTgRk90PodnIGColK98w4wG8Cvw3tvBmJkQSpJDBMQgKN5Ohqo8VcCU3XNqU+2/rQL6d/oY4bOtLbm98WDffIKiMNT2ykgG/AzYc3RZilESb/6Dhx5wQtOLtA3EvQf0HUa2sv6r65e6RlwK4BIhQyuYN0w/BVis3kR2aBNMyYBRKOl9r0zGaCBlD1npM6SGONdNbOTq4qzTSUgtdff12U1QRX+I2oyaYSI4lSSeDoBnPh6IbnQdjjztY7qUm+JmKuCDSWG69tpPfLvk+72uyiIpmLyD2NB0McUBSgrHik8JBSc4DFAlkdcc61l9cKZch5WX5huWkzXyYWYHZGDxHUq1fP5eRHaDxhznY2QzujZm9US1Tmae1+MHlfuXIl4vjqM66GG5xl2uNArmZn1GNKx+I8jPH999+LhtAItNeKxdVwgLp+XCsUIu3+rp6x8zFdPV/ck9oe1YLz4Rk5g+NjlksAp3o1TTd+E/htAPxWXH02UZAQ526IDp67IeniztwNRqFn7gajievcDbFFz9wNRhPT3A2JFXvP0GbvNYr34/bt26XUZrP3KIUsqqVPnz620NBQsS/WqLvab9SoUWIfEN1+asF5gavr0spcLdiGffScB4v2flGGrFmzZravv/46ohwUFCT30I86lvOirk+BZ+NqP7Von11Ux1SLutaY9sOi/e4U2mfmars6rvM9JCZ4uIFhGMZNkNwN0x/bX/4iTNsV9kZDJIKzv2cjzNEzZ86k5cuXizLWqOMY9gZE7GdvVMS2ZcuWRfTwDx48KPYDOA72w3FxfHfBbJC4du014T4wZ467aIcZMNV1rly5RDk2aI+FWSK194jrW7JkidjmjHoeuCc10yWsAjie1tqjvW/1jI1A+92oKbq14LeB7xf3gPMnRhKdksDRDebD0Q0MEz0XLzom9vL29napJKBhGDBgQESj8dprr0U06niHoQHbtm2bqLdr1y7CRI0hN9Uwqob777//Fms0dDC/AxwXx8d53AENmZr2GcdSDSvAMV2NtzsvytdBDTOgUY+r/wOUJBwL96PG9HE9uF6gGn4t2ueBe1L7KjAlNN6hQHvfuFZcsxbIXN2rdtFOra1Q3w2+M1fDpfht4DcC1G8msZEoLQkc3WAuHN3AMNGDhh4gARiSvjnjrDygccmXL58oX716lW7fvh3RaHz++ecR4944luqZqnMonM+lbYD0YlTCMjTauG401P369ZPS2KOeBZSjUqVKRTyPunXrCnlAQMBzPfGonr0rnO8bSfniCiw9sPiAqPxScH3q3M7fZ2KBhxsYhmEYtxwXVQ8avX8oK5CrEEglS0z5AWLjuAilBUoNrB9JOQSWoxt0wtEN5pNY5m5gmJhw7vmicYEFAcCikD179ogephqDd14wzq8FvW2M0ytwfJwnKaCeBRpc5Z+hXRDFoIZkYoOzqd+IXr1SlPSGwBphvYgPzI2nMgE1d8PmzZvFXPQK5P4HZsnhZISkLxg7V2TKlCnCZ8As+ZQpUyLJgLpGs+SdOnUS59bKMZ1vuXLlRNksebZs2WjChAlSYg1PnjwRY79Wzh+AFxbmLbD6XjGc4+fnR4cOHZISJraoF75quJ1Nzehh4m8XC7YpJ0Xw0ksvCRlM1JDBZI1xeDSCMGEjTTU+Dwc7jJVjf5j20UPHRFlvvPGGUDpwbOwXH0CBcVZiYDmANQFDECgrHwBXwEkR94SxfNwHhhjwOdwjnBTVsZ33c2XSjwqVpwDPCCGK6O3jGauhkrjgrPRFdV34bTgrKImNFAiBDAqMWhuFmQWaXEIB889/99131L59e9q791n2OzgGAcQOmyFHimj8KJRnMqhdu3bEmKBZcqSv3bhxo9CkAabXxUyYANqwGfIPP/yQLly4EOlaGjRoEPFHb4YcVgQ0nNpnbgX37t0T44a4b6sICwsT9wpFzEpwr1B0MXmalaDXfPr0aVlLGqChwXg5er6LFy+O6OWqhjIqtI0dHPHQ4KNhdEa7HxokOCkqJUPRtGlTunHjhmgE4eWPY7lSMlzJgPb86vNxIS5KAu4zumenve6oFAdX51ffU1TouVZX6H12UT37REViy5MwYsSIBHdNDMMkL4KCgkSMPd5F9pe/lD7Lk4Bt9gYiYh8s2vh9LZCrffTuh7L2GnBegFh8u+IiZOq6XMmAq8/HBe2949jRoe7F3tBHyi2gvVYsKEOmJarPRnV+52Pi8+5cqyuieqbOYFtczpMQSHRKgl2DTHDXxDBM8gKNExopvIuMaGBjg9GNvNXgmtFgJ2WUMuKs0CQmOLqBYRjGTWDiVnH5yHeg9Xo3GpjDlYc9ygp7b1aYu+092kTnXQ9z/fz584W/RVIFvwmVCwO/FTUskthIdEqCXbGRJYZhmPhDOdshYQ8S95iFmk0QYMxdKQxqrB3OeQllgim9IBETGs5EOUavE5XMCb8R/FYSK2xJYBiGiQVwdkNDB6e02KQ11gucIuG8jMbGmVGjRrnMBJjQQfRCXB0lEzr4TeC3oc32mBhJdNEN+HF9+eWXbFFgGIZhGJNhSwLDMAzDMC5hJYFhGIZhGJewksAwDMMwjEs4uoFhGIZhGJckPUsCJkCB12yKFI4FZc2kKAJMvPLyy0QnT0oBwzAMwzDOJD0lYdEiosaNYXIgCgl5JlNAQXjlFaLjx6WAYRiGYRhXJD0loUcPxwI8PR0Kw8aNDmsCLAfITPbxx0Rlyzr2YRiGYRjGJUnfJwGzzxUo4FAYSpfG3K5EjRrJjQzDMAzDREXSsyRo2bKFaPNmooEDpYBhGIZhGL0kXSUBCkL37kQ//USUI4cUMgzDMAyjl6SpJMydSzRkCJJnO4YYGIZhGIZxm6TnkwALwqxZRKtXswWBYRiGYeJA0rMkrFtHtGcPUc6c0edKYBiGYRgmWpKekjB+vCNHgnZZuNAR3aCAhWHNGh6KYBiGYZhoSHRTRQ8bNsyuB4w3/Jru379PW7dulTUHRYoUEevz58+LtcJI+Z07d8SiUPuaLTfznoAr+eXLlyk8PFxKnu1rptz5OqzC399frAsg/NZCcF7tOdWzMfN7NfPYICo5KM2KPsOYCisJEigJbdq0oTNnzoh6s2bN6LXXXhPlOXPm0L59+0TZaDle6l9++aWQgZkzZ4r1vXv3aNCgQaIMjJQHBQXRqVOnaP78+UKG68D1gKlTp9KJEydE2Wg5lJWBAweSh4eHkKtrvHbtGo0cOVKUgZHy69ev08qVK8nPz09KreHx48eUKlUqSpnSWmMdlCT1fHPlykUZM2YUZfzOcE3AaDl+Y4GBgeJdgXsuVKiQ2B4aGkoBAY53i9FyXIO3tzdt27ZNyBmGMQkoCdFh30WWEgZDhw415ZrsDYytcOHCsmYdlStXtk2bNk3WrMH+ordlyZJF1qyjXbt2tr59+8qaNRw7dszm5eUla9Zhb8Bsn3zyiaxZw+zZs232RlvWrCNbtmy2yZMny5o12DsK8fK9MkxyI+lFN8QB9DqTC0+fPpUlhmEYhnFN0nNcZHRhtRmcYRiGSXywJUHDe++9J0vW8d1331FVTDplIfnz56eDBw/KmnUsWLCAuiMLpoWUK1eO3nzzTVlL+hQuXFiWrGPt2rVUu3ZtWbOGypUri4VhGHPh7qQEDljx8YKtWbOmWKxG6yFuFenSpYuXe00uQCFSDoZWEl+/YYZhzIeVhHgGYXtWc+XKFbpw4YKsWQfOafV5cT543zPmER/fK6IdHj58KGsMw5gFKwmSBw8e0Ndffy1r1tG2bVuaPn26rFnHiy++KEvWgVDMr776StasISQkhP744w9Zc4/ly5eLsD4sO3bskFLjuXjxIn388cdUqlQpcS6sEeaLsEJ3+Oeff8RiNVWqVKEVK1bImjUg3PXkyZOyxjCMWbCSoIGjGxgFGiArFJotW7ZQw4YNhYL677//ChnWyAfy6quvckPIMEy8wkpCMoWjG6IGiaY++ugj2oM5QEwEyaWQdOrSpUtUo0YNOnLkiEiG5OvrS3ny5BHnx3Y2qzMME18kupaCoxviDkc3uAa+C1OmTKE6depYkqERSkKJEiWoXr161LlzZ6pQoYLIKIjzowyOHTtGN2/eFGU9cHQDwzBGkmy6k0i7jLFepEZ2BUc3mE9Cjm5Ab33w4MH0v//9j27fvk3FixensmXLyq3mgO8AvgeYM+TDDz+UUsdQ0JMnT0Q5TZo0lDp1alGOCY5uYBjGaJKNkpApUyZhyoW1IG/evDR79my5JX7h6AZzwfncjW6AMylM/nXr1pUS64Cygt/mhg0bRL1ly5aUO3duUU6oxMf3ytENDGMNyWpg+ptvvhE9MzgooueGcV81ORBHN5hPQo9uyJEjBy1dupR+++23eLEq4To9PT1p+PDhlD17dvG7+OCDD8QQhB44uoFhGKNJtD4Js2bNEg08lhkzZkQsP/zwQ8Ty/fffR1rgIIaXMEAvBL0RmJcxmx325+iG5Ev69OnFbJzt2rWjtGnTSqm1aH9/GPJA2GV8WJoYhmEUiU5JyJIli4glh+PdoUOHxAKvcLXA0Ustx48fj7S46nlg7Bfx6MmtV8LRDQkPOHVCecMU240aNRIWja5du0ZMX84wDGM5iW2q6KlTp9rsSoKsuceuXbtsGTJkEPdk7y2K9XvvvWe7evWqmCr6f//7n9zTOnBNWKzm3LlzsmQdDx8+jJd7/fDDD2VJP6GhobY+ffqI3wiW7du3yy36iOtU0cuWLYs499dffy2l0YOposuVKydr1hEfv2E/Pz+bj4+PrDEMYxbJqjv56aef0qNHj0T5nXfeEQ58GPeFIyNHN5gPz92gH62zIpIr6XHS4+gGhmGMJtkoCXv37hVDEL17945QDvLlyye3xh8c3WAuOF9in7sBfjR6nRfjg/j4Xjm6gWGsIdkoCdWrV6cDBw6I5EWulAOObjCfxDZ3g9ksWrSImjVrJpICqSgbBbI+KpCvAVE5McHRDQzDGE2iUxJscci4iEyD0cHRDYyVFCtWTAwlwPn2p59+on379onv5ejRoxF5PJB9sXHjxqLMMAxjNezinkzh6Ib4Bz3wsWPHikRfmKcB1i4MK1SsWFHUsZ44cWK8+MowDMMAbik08NwN5pLQ526wGoTyYs6Gbdu2iaRJJUuWFHKsR48eLeZEqFWrlpDpheduYBjGSFhJkHB0g/kkpugGJFdCci4Mb2GB2d8MoCjAYoDZHuGHgHNhjUgcRN24A0c3MAxjNKwkxDMc3WAuOF9ij25I6MTH98rRDQxjDawkSDi6wXw4usFcOLqBYRijYSVBA0c3MAzDMMwzWElIpnB0A8MwDBMT3FJo4OgGc+HoBvPh6AaGYYwkBSZ4CgoMkNXngfd1XBIYGc0333wjpnc22lx+//59mjdvnmhUELuuUJnwMM20GfI5c+aImSjff/99evz4sZC1adOGWrRoIcpmyTHL4NmzZ2natGlCBtQ1YlzbDPncuXPFNfTp00dKSMxyWLduXVE2Qw4FYcOGDWKxkjt37oh0ylZPO425SUqUKCF+Z4oaNWqINZz9zJQjt4OidOnSlDlzZlE2S+7h4UF+fn5SwjCMGbCSIIGS8Pfffwu/BH9/fyl1pHMGZssxt4QWK+Tnzp2jW7duScmzfc2Wa68FjShCAIEZckQ2qEbGSk6fPi3WaLDjG1fPHZgp9/b2poIFC4qymfLWrVtLCcMwZsBKAsMwDMMwLmGfBIZhGIZhXJLolISEZNVgGIZhmKQMWxIYhmEYhnEJKwkMwzAMw7iElQSGYRiGYVzCSgLDMAzDMC5hx0WGYRiGYVySKC0JyN0QJaGhRG+8gZ0cC8qQAcwah7S1atvcuQ45wzAMwzDPkfSGGxYtImrcGCYHzBP8TAZFASmC161zbDtxAvmDHYoDwzAMwzDPkfSUhB49HAvw9HQoDBs3Ourff4+k745yoUJExYoR7drlqDMMwzAME4mk77iIHPoFCjgUBi2wLJw7R1S0qBQwDMMwDKMlaSsJW7YQbd5MNHCgFGiYNImoYUOiBg2kgGEYhmEYLYlOSdAd3QAFoXt3op9+IsqRQwolQ4cSYSbGzz+XAoZhGIZhnEmalgRELQwZQrR//zMfBKAiH8DChc8PQTAMwzAME0HSUxJgQZg1i2j16uctCKNGOfwTxo+XAoZhGIZhoiLpKQkIcdyzhyhnzsi5EjC8AP+ECROeyTlXAsMwDMNESdJTEmAlgN+CdsHQAiwIu3c/v02FSzIMwzAME4mk67jIMAzDMEycSJqOiwzDMAzDxJkUXjly24ICA2T1eTBPQkLqvU+aNImGDBlCT548kRJjuH//PjVu3DjiuFmzZqVq1aqJ8t9//22aHM/Xz89PyICPj49YP3z4kLZv3y7KwGj5vn37KDg4WJRz585NFSpUEOW//vpLrIHR8sePH9Nm+IVI1LXcuXOH9iMSRWK0fNeuXRH3midPHipevLgob926VayB0fLAwEA6qUn5Xb9+fbE2Ux4QEECnkTzMYkJCQsQ7ImPGjKKurvHatWt09uxZUQZGy8E0pFpnGMY0WEmQXL9+nbp160atW7eWEqL3339frKdPny7WCiPlb7zxBuXPn58KwGdCykBQUBAtwpwTEiPlV65coV69etHLL78sZOnSpaN33nlHlLXXaLT8vffeo8uXL1OzZs2EXF0jGoD169eLMjBS/s8//1CfPn0oX758QoaGrHLlyqKsbdyNls+YMYM8PDyoRIkSQq4aNjz78+fPizIwUg5laPXq1RHP1ypw//gNFylSRNTVNZ47d46uXr0qysBI+alTp8S9Xrx4UUoZhjEFKAnRYd9FlhIGEydOtKVMmVLWjMPeW7GlTZtW1qzD3qDY7L0hWbMGf39/W6ZMmWTNOtq1a2fr27evrFnDsWPHbF5eXrJmHd7e3rZPPvlE1qxh9uzZNruSImvWkS1bNtvkyZNlzRrGjx8fL98rwyQ32CeBYRiGYRiXsJKgIVeuXLJkHfYevSxZS506dWTJOsqXLy9L1qL8JKwkh3MiL4uw965lKemTnO6VYeILDoGUYCx50KBBsmYdcORTY+pWgfHjdUg6ZTEjRoygH374QdasoVy5csJh1GqOHTtGY8aMkTVrwL3CcdJqKlasGOGfYRU4XyFM984wjKmwJYFhGIZhGJewkiB58OAB+SN1s8X07t2bDhw4IGvWAM94nNdqPvroI/ryyy9lzRoQ3aAiLqyka9eu9PXXX8uaNeBeL126JGvR8/TpUxENgSiXUqVKiSimwoULi2d15MgRtyx2CB+OKfRy9OjR4hwxLX379hVhuzFx8ODBeAn3ZJjkBisJGr799ltZsg4oCHhZW402LNIqoJxoQ9msYuXKlbJkHRs2bKBbt27JmnWgwY6J8PBwmjhxItWuXZvmzJlD//77r5BDwfjxxx9FGPCKFSt0KwoIxYSSbTXxcU6GSW6wTwLDJDPQC586daooI1cGeuSwLCAfAepQFmAF0WuV0MNnn30m/nadlwsXLkQ40cLHoHPnzpQ+fXpRZxgm/mFLggaObjAXjm4wHz0e/ydOnKCyZcuKRvn1118XGSJh6kcyJNTBjh07aA9mUzWRR48eiaRbOBfAUJRKoKQHjm5gGAtIbMmUJkyYEOtkSsuWLZOl57l3757t22+/lTWGSXzs2rXLVrNmTVmLHQsWLBB/81hGjRolpdHTsGFD26ZNm2RNP1u2bLHlyZNHnKtbt262u3fvyi0x4+fnZ/Px8ZE1hmHMItlYEpAOuFOnTlS6dGmyKwtSyjCMAr4KsDIozLSs2ZVy4f+AdOiwaPTv358yZ84stzIMk1BINj4JBQsWpJ49e4px1x49eoiYcq2ywNEN5sPRDebiTnSDK2D2X7hwoShjGKxYsWKiHBN6ohucwQRjcI4E7du3d3soiqMbGMYakpVPwieffCJ6S+jFHD9+PEJZWLp0qdjO0Q3mwtEN5qMnusEVUDAwcZpSMpo0aaI7QZK70Q3wRfjjjz/EtSL5E/wg0qZNK7fqh6MbGMZ8EqWSAGtClSpVxIIXGZYXX3wxYqlUqZJYkAkOCxzXsLRs2ZI8PT3lURwmTygLb775ZrxkW2SYhICytihHRVgRunfvTtmyZRN1o8HMjVu2bBFlKCMYAmQYJmGS6JSEokWLUpo0aWj27Nliwbgmlp9++kks8+bNo59//pl++eUXmj9/Pi1YsECYUH/99Vf67bffxLTFWnCsVq1aiaEIjm4wF45uMB93Pf5PnjwZSUEAw4cPj5hG3Az2798vEjYB/A5j+zfA0Q0MYwGJLbrh999/t9kbellzjxkzZtjSp08v7gnTQrdv39529OhRsY2jG5jEjrvRDSdOnLDVqFFD/D1gsTfWInrov//+k3vow53ohkePHtkGDBggzofIBrvCILe4B0c3MIw1JBufBPuLjwYOHCh8Etq1ayccp+wKR7z1bhkmPrlx4wYNGzYswoKQPXt2sivR4m8kNv4BegkKCqJDhw6JMoYCeZImhknYJBslAcMM8EmAqROOis7KAUc3mA9HN5iL3ugGKMoYqvP19RV1NNQYlkO2w5Qp3X8luBPdgJBHlQYayZsw+2ps4OgGhrGGZKMkgMWLF0c7Ps3RDebC0Q3moye64fDhw2LOBgB/gLFjx1Lz5s1F1sXY4E50A75/KAoAU5Y7+wi5A0c3MIz5JDolwWazxfplxjAM0bZt2yIsDlAq3njjDWFBUDMxqgUzNxqNVolB7hKGYRI2ycqSEBMc3WAuHN1gPjF5/IeGhkbKqmg1sDoYBUc3MIz5pEB0Q1BggKw+D3oU6L0nFOBsiBhuvOyMBD0chE8iPSzDJEZ2795NAwYMsHz4qlGjRjRixAhq2LChlJjPX3/9Jaa79vPzkxKGYcyALQkMwzAMw7iElQQJRzeYD0c3mIve6AajcSe6wSg4uoFhrIGVBA0c3WAuHN1gPnqiG4zG3bkbjIKjGxjGfFhJYBiGYRjGJawkaODoBnPh6AbzSU4e/xzdwDDmw9ENEhXd0LZtWylxgIQvAKZyLUbJ8+bNK2LUzTp+VPKcOXNSYGCgrDkw+5yYFjhVqlSmHT8qefr06Z8LvcO1AJXYR5GY5fBJmD59ukivbCUffvihiKooXLiwlDgw817Pnj0rJnTj6AaGMZdEpyQsWbKE3nrrLVOUBCSPCQ4OjhivR4PWq1cvUTZLDme+kJAQkSJXvQRfeuklKlGihCibJcf02KtWraIVK1YIGabQ7tatmygjr78ZcjQkGKeHoqfG65HpTzUuZskx5TGu4/bt20Lm4eEhlCTw6NEjU+U3b96kJ0+eiDJ6vph1FJghz5w5s5j+PD7A3A/4bT99+lTUYUlJnTq1KON3YIYcFiJWEhjGXFhJYBiGYRjGJeyTwDAMwzCMS1hJYBiGYRjGJawkMAzDMAzjkkSnJCQk/wiGYRiGScqwJYFhGIZhGJewksAwDMMwjEuSnpKA0Mg33kDspmNBWYVLBgUR1azpkCOm/uRJh5xhGIZhmOdIekoCEhU1bgznBaKQkGcyMGkS0YQJjm0//0z09tsOxYFhGIZhmOdIekpCjx6OBXh6OhSGjRsd1oTx44kaNHBsK1sWqeuInFITMwzDMAzjIOn7JGDO+QIFHAqDluPHiZC6V6bPZRiGYRgmMklbSdiyhWjzZqKBA6XAjvJZaNiQqHdvJIGXGxiGYRiG0ZJ0lQQoCN27E/30U2RFABaFhQsd/goYhpg7V25gGIZhGEZL0lQS0PAPGUK0fz9R6dJS6ASUBQxDYDiCYRiGYZjnSHpKAiwIs2YRrV4d2YKghhmwHSCqAUMRLVo46gzDMAzDRCLpKQnr1hHt2eNwSNTmSgBTpzosDJBhO3wSVLQDwzAMwzCRSOGVI7ctKDBAVp8nhb1BTUjzJSxevJjefvttClUJkhiGYRiGMYWkHd3AMAzDMEysSXRKAs8CyTAMwzDWwJYEhmEYhmFcwkoCwzAMwzAuSXSOi4sWLaIePXoY7rh4//59at68Oe3cuVPUmzVrRrVq1RJlPz8/0+R4tiNHjhQyT09PGjx4sCjj/r766itRNkOeMmVK+vzzz0W5VatWVLlyZVH+448/6ODBg6JstDxLliw0YMAAIcuePTt98MEHonz79m369ttvRdkM+T///ENLly4VZcvIaF8eOIqWksq+PHEULaO4fTnjKJK3fWnlKBJeK384imbIqz2tRntn73VUGIYxBVYSJNevX6e2bdvS7t27pcQaqlSpIqI13n//fSkxnytXrlCFChVEo2olHTp0oBw5ctAPP/wgJeYDBQEK2dWrV6XEGnJ656SglkFE70mBFawkyjIjCwUHBkuBNeQokYNu/e+WvdWWAivYQ5R5bGa6e+WuFDAMYwY83KDh8OHDspT0CQ8PlyXriC9l89GjR7KU9An7L0yWrCPsgfXnZBjGGlhJYBiGYRjGJawkaGjfvr0sWUffvn0pQ4YMsmYNMPn7+vrKmnV8//33VL16dVmzhmLFitFCTOhlMWWqlCEqJSsWkjVnVlmyjr6f9JUlC3mRqHhTOEMwDGMmrCRIMmbMSDVq1JA16+jVq5fwSbCSdOnSUaNGjWTNOnLlyhUv9wqfBKuBYyh5yIpVFCXKkiOLrFjHq2+9aq0/Akhjf8ap+PXFMGbDf2UMwzAMw7iElQTJgwcP4sUsjeiG6dOny5o1ILoBIYJWg+iGd999V9asAdEN+fLlkzXr+GffP/b/ZMUqzhFdv3BdVqyjbeW2RPtkxSr2EP277l9ZYRjGLFhJ0MDRDeaS2KIbAkIDqMySMjTq4CgpMYeeOXrS0TJH6XHlx2SrYqP7L96nNcXWUM0MNeUe+nEnuuH03dPU+s/WlGFuBkoxK4VYt/urHV16cEnuoQ890Q1dvbrSvUr3xP1FtTyq/IhG5TX3WTMM4x6sJDCMC8KehtGQvUPoZPBJKTGHvjn70qT8k6h0utJ09OFR+vX2r3Q17Cq1yNKCZhaaSWXSlZF7GsvOGzuptm9t2nB1A71Z/E1a+NJCsV7vv56qr6hOB4IOyD2N4Xb4bTr+33Fxj87LhUcX6Kn9X7gtnO4+4bwHDJOQYCVBA0c3mEtiiW4IDQ+lATsH0IIzC6TEffREN2RKlYl65+hNmVJmEspBlZNV6I0Lb1C1U9XoQOgBKpe+HPXP1V/urQ890Q0Pwx/SmENjKPxpOPm19KOZ9WZSl2JdxHpV81UU8jiExh4aS4+fPpafiB490Q1r7q6hWqdqUcUTFSMtnc93pnD7P1iZlt5ZSpNvTJafiAGObmAYS0h0SgJeJsgCGRuaNGlCf/75p6xFhqMbzCcxRDccvX2U6v1Rj2acnEEVsleQUvfRE91QO0NtypIqC90MvykaSMX9J/fpSOgR+x9nSiqezo2GUGd0w92wu+T/wJ/KZS9H5bOXl1IHVXNUpUo5KtH+wP108+FNKY2euEQ3jMg7goqlLUb//PcPjQkYI6U64OgGhrGEZPVXdvz4cWrTpo3ozUalLDDJl3th96jf9n50/M5xGld9HA17cZjcYg5/3vuTiv5TlPIezUur7q6SUgfeqTFJAVFQeJBYG4m3pzcdbX+UtrfaTpnTZJZS6+mUvRM1ydSEQp+G0tyguXT6v9NyC8MwCYVkpSRMnDhR9Cz37dtH7dq1E8oCJl0CHN1gPokhuqGSVyXa23YvDa44mFKlwGxJsSO20Q3VMlSjJUWWkE9mHwoMD6SVwSvlFh0YEN1w/v55OhV8igpkLECZUmeS0uiJbXTDOzneoewe2Wl3yG769qZjYi7dcHQDw1hColQSnjx5QqtXrxbLmjVrxLJ27VqxrFu3Tizr168XCywGWKAMwNwNJQGEhIQIZeG1116jhg0b0t9//83RDSaT0KMb0KueXmd6nIYZ4sKOkjtob6m91CFbBwp5GkLDrw6nRbcXya36iMvcDXDW/OrIV3Tn0R3qUKSDbitDbOZu6JK9C1X2rEzBT4Jp8e3FUsowTEIjUSoJqVOnppkzZ4oFMwpi+e6778Qybdo0sUydOlUsU6ZMEcvkyZNp0qRJ9PDhQ3kUB1AWMPOjsigwTHxx8r+TNP/WfDoYelA4M04tMJVG5x0tt5rLE9sT4ay4+Nxi8snnQ71K9ZJbzOGVLK9Q1lRZ6djDYzQ7aLaUMgyT0Eh0SkLp0qWFx/qqVavE4o5FAUqDdoppOCs2b96cNm7cSOPHj+foBpPhuRui551L71C3i91ElMMPgT+QRwoP6pWjlwiH1Ets5m6ABWH4vuE0+uBoqutdlxY1WUSeHp5ya8y4O3cDhlRqZaxFj22PafP9zVLqJhzdwDCWkKx8EkaOHEmPHz8WjTKUAygPUCTq1KnD0Q0WwHM36Gf+7fl09fFVyuaRjWplqCWlMRCLuRsQ7tlnax+aeGQiNcjTgJb7LKesadxTNNyNbmiUqRHl9sgtfC5irSRwdAPDWEKy+StDZMMff/xBTZs2FUMLSjlgmITIvpB9wuvfTILDgqnzxs407/Q8avdCO/Jt5kte6bzkVvNAgqj0KdPTqf9O0d/3/5ZShmESIslGSShbtqwYVsCwQ+3ataX0GRzdYD48d0NkhngPoduVbtPpcqepRLoSUurgpUwviRwKMMkjj4Iu3IhugILQ/q/2tPryanqrxFs0r+E83dEMzrgb3VA+fXmRYRFKQqzh6AaGsYRkZa+rVSt6sy1HN5hLYpu7wWy23N9C957co0JpCtFbXm9JqYMeOXpQntR56Pyj8+R3T79TrZ7oBpv935iDY2jj1Y0iFfPM+jPd8kFwxp3ohnoZ61Euj1z08OnDuCkJDMNYAg/qMUw8gfwAC28vpKe2pzQo9yA6UPoALXxhIZ0oe0KECAaHB9P3gd8bnmToxJ0TtODsAkqdMjUF/RdEvbb2ou6bu0daBuwaIEIhjQZJojxTeooQz0uP3JtIimEY60mUSkJs0zLHBEc3mAtHNzwPciEMvjqYLoRdoArpKwjl4IU0L9CekD3U5UIXmhE4Q+6pDz3RDUiWhBkuMTfD2str6ZfTvzy3LL+wXDg16sGd6IZ0KdNR6hSpxTAKFIVYw9ENDGMJKbxy5LYFBQbI6vOgQY4vM7ErDh06RD179qSDBw9KiTHcv3+f5s2bR/37uzehDsO4otGrjWhzo81EDaTACo7Z9ZLvS9HJvebOXOnMtgfbqP6/9WXNOqrNqEZ7Z++VNYZhzICHGxiGYRiGcQkrCRKObjAfjm4wGQPmbogNsZ27IU5wdAPDWAIrCRo4usFcOLrBfOIyd0Nsic3cDQzDJA5YSWAYhmEYxiWsJGjg6AZz4egG84nN3A1xxd25GwyBoxsYxhI4ukGiohuQtnnu3LlSSjRmzBixPnfunCnyESNGUJo0aWj48OFS4vBTwBTWwCw5GuubN2/SsmXLpPTZNeLZmiEfNmyYmCNDey2YQ6JJkyaibJb81q1bYtKv8+fPSymJ6cHB5cuXTZFfu3eNrlS9ImvWkW1rNmpYpSFdvXpVSp5d45kzZ0yRF21flBbXW0xPv3sqJfb3RvMUlKKoI1TZLHnlvytzdAPDmAwrCRIoCZhqGg0KnN0UDRo4YtjMlm/ZskWsgZeXF5UrV06UzZTjRX/27FkpfXYtZsu11wKnQvT2gZlyNOD+/v5S+uxazJLHJzlz5qTAwEBZe3aNJ06cMFWufe6lSpWi3Llzi7KZ8qFDh0oJwzBmwEoCwzAMwzAuYZ8EhmEYhmFcwkoCwzAMwzAuYSWBYRiGYRiXsJLAMAzDMIxLkp6SEBpK9MYb8Lh0LChD5gzCEKPaxjAMwzBMElQSFi0iatwYOYCJQuRUtJBpOXmSaNQoWWEYhmEYxhVJT0no0cOxAE9Ph8KwceMziwHW06YRtWzpqDMMwzAM45Kk75Nw+jRRgQIOhQHAqpA5M1HVqo46wzAMwzAuSdpKAjK0bd5MNHCgox4U5LAqqDrDMAzDMFGSKJUEZIGMESgI3bsT/fQTZjRyyCZNIurd+1mdYRiGYZgoSXRKgq4U0YhcGDKEaP9+otKlHTJYEWBVwCQ1UDJ69iT69VeiXr04woFhGIZhXJD0hhtgQZg1i2j16sgWA5R373ZEPWD58UeiLl2IZs9+5q/AMAzDMEwESU9JWLeOaM8eTIUXc64EhmEYhmGiJNHNAonZH3v16kUHDhyQEoZhGIZhzCBpRzcwDMMwDBNrWElgGIZhGMYlrCQwDMMwDOMSVhIYhmEYhnEJKwkMwzAMw7iEoxsk9+/fp55IsKShfv36Yr1161axVhgpDwkJiXQval+z5dprSZ06NdWqVUuUzZQHBgbSSczAKVHXYqY8ICCATmP+Dos5e/YseXp6Ut68eaXEfG7dukV37tyhYsWKSYk1BAUFiXdEToQd21Hfx7lz5+jq1auiDIyWg/fff1+WGIYxA1YSJDdv3qTXX3+dSpUqJeqFChWiDz74QJQ/+eQTevTokSgbLf/hhx/oxIkTlCZNGiGfPHmyWOOFP3bsWFEGRsqvXLlCo0aNokyZMglZhQoVqDtSWNv5+OOPxRoYLZ89ezatXLky4hmrazx//jx99913ogyMlP/zzz/0v//9jx48eCCl1gAlIVeuXJQZk4lZRGhoKF26dIlKqyyjFnHt2jXxW1K/J9WIQ47noDBS7u/vT2fOnKHjx49LKcMwpgAlITrsu8hSwsCuHNgqV64sa8ZhfxHZ0qZNK2vWgXuZNm2arFmD/QVrs7/QZc062rVrZ+vbt6+sWcOxY8dsXl5esmYd3t7eNrtSKGvWYFfCbBkzZpQ168iWLZvNrpDJmjWMHz8+Xr5XhklusE8CwzAMwzAuYSUhmfLCCy/IknWkS5dOlqzF3quXJSYpEV+/J4ZJTrCSIMmYMSNNnDhR1qwDvhVWO1/lz5+fjhw5ImvWsWDBAuGDYSXlypWjJk2ayBpjBhUrVqTKlSvLmjXgfGXKlJE1hmHMgpUEhmEYhmFcwkqC5OHDhxQWFiZr1jF37lzhlW4liG6YOXOmrFnHnDlzxP1aCaIb2APeXJ4+fRoRtRMVo0ePFpFSMS19+/YVf4sxgSgnbVgkwzDmwEqC5MmTJzR8+HBZsw6E7FndcIJBgwbJknWsX7+e9u3bJ2vWcejQIVlyj4DQACqzpAyNOjhKSszh9N3T1PrP1pRhbgZKMSuFWLf7qx1denBJ7mEOOH63Td0izpt/YX6adHQShYa7p7QeO3YsXhSxGzduyBLDMGbBSgLDuCDsaRgN2TuETgY/S85kBjtv7KTavrVpw9UN9GbxN2nhSwvFer3/eqq+ojodCDI2H4ji/L3z1GR1E1p2YZk4388Nf6YauWrQkD1D6N3t74r7N5LPPvtM5FtxXi5cuEB16tQR+yB3SOfOnSl9+vSizjBM/JPolAS8WGCWZOIGRzdEDXrSA3YOoAVnFkiJOTwMf0hjDo2h8Kfh5NfSj2bWm0ldinUR61XNV1HI4xAae2gsPX76WH7CGOzNM407PI78Q/xpTv054nzdSnSjpT5LqXfp3vTb2d/oT/8/5d7mgSGK6dOn044dO0T9yy+/jEigpAeObmAY80lWloTosjRydIP5JIbohqO3j1K9P+rRjJMzqEL2ClJqDnfD7pL/A38ql70clc9eXkodVM1RlSrlqET7A/fTzYc3pdQY7oXdoyshV6iSVyVqVqCZlBKlsP9rkq+JUEoO3dI/RBPb6IY9e/bQr7/+KsrdunWjVq1a6e4AcHQDw1hDslES4MDWsGFDevXVVw1P6cwkDdB49tvej47fOU7jqo+jYS8Ok1vMwdvTm462P0rbW22nzGmsS9+cJU0WWtdiHe1us5uyp80upQ4u3r8o1vkz5Bdrs7h37x79+OOPdP36dTHM0L9/f0tTWDMMo49koySgR9m8eXNavXo11atXj9q0aRNJWeDoBvNJDNEN6F3vbbuXBlccTKlSpJJS6zl//zydCj5FBTIWoEypHXMimAmGPmafmk2jD46mil4VqWWBlnJLzOiJbnAGDqwrVqwQ5fbt21P58pEtKTHB0Q0MYw3JarhhxIgRYiIlKAS+vr4RygJeOBzdYD4JPboBvfnpdaabPswQE3Aa/OrIV3Tn0R3qUKSD6VaGj3d/TJ5zPan31t7CurGy6Uqx1ou70Q1QKP744w8x82qePHnExGpp06aVW/XD0Q0MYz6JUknAjHAYv3S1tG7dOsrl008/pQwZMsijOKwHUBYwjTFmCmSY+OaJ7YlwVlx8bjH55POhXqV6yS3mUTt3bRFVAadF+EjUWFmDdt/cLbcaz8WLF2nLli2iDH8Rq2etZBhGP4lOSahSpQrNnz9fTBftaunZs2eUS48ePZ7rsWB6W0xd3KhRIylJHnB0Q8IDFoTh+4YLk39d77q0qMki8vTwlFvNo90L7SKiKpY3XS6iKvrv6E/BYcFyD2PZv39/hOMswh/VFNPuwtENDGMBiW2q6LiwaNEiW5YsWcQ9YarkihUr2nx9fcW2e/fu2b799ltRZpIWH374oSy5x9LzS200k2wjD4yUEv24O1W0vWG2vbXpLVvKWSltjVY1sgU9DJJb9GPEVNGhj0NtPmt8bFl+ymLbfWO3lEZPw4YNbZs2bZK16Hn06JFtwIAB4m8wT548NrvCILe4h5+fn83Hx0fWGIYxi2Tlk4AhBTgnImQL4XiHDx8WQxQME5+gx955Y2ead3qe6NX7NvMlr3Recqu1pPdI/1zEg5EEBQVF+Ijg7xCRDQzDJFySlZJQtGhRWrRokUvlgKMbzIfnbngeKAjt/2pPqy+vprdKvEXzGs4zPZoBuSBKLi5JbfzaPJeoSeVQwDCHXmXBnegGhDz++++/olykSBGRnyQ2cHQDw1hDslIStm7dGqXlgKMbzCexzd1gNsh8OObgGNp4daNIjTyz/kxLfBCKZS4m8iBsvraZ9t7cK6UOfC/5ClnjfI2pcKbCUho97kQ3oGGHogCQ1CsufgUc3cAw5pOslASGSUicuHOCFpxdQKlTpqag/4Ko19Ze1H1z90jLgF0DRCikkUARGV1tNHmk9KCma5tSn2196JfTv1DHDR3p7c1vCyViZJWR4rqMBmGPioIFC8oSwzAJFVYSkikc3RD/IFkSZpqEyX/t5bWioXZell9Y7vasjHpA2OPO1jtFGmbMUQGFZOO1jfR+2fdpV5tdVCRzEbmnsZw/f16W4g5HNzCMBSSn6Ibo4OiGpEtsoxvigrvRDUZgRHRDbHAnusEoOLqBYayBLQkMwzAMw7iElQQJRzeYD0c3JE1iM3dDXOHoBoaxBlYSJBzdYD4c3ZA0cXfuBqPg6AaGMR9WEhiGYRiGcQkrCckUjm5gEjsc3cAw5sNKggSZ3yZOnChr1nHgwAF6//33Zc0akMRGTbBjJUiF/cMPP8iaNZQrV07MNMiYB9IrV65cWdasAecrU6aMrDEMYxYpEAIZFBggq8+TIkUKxEDKWtIFSV7mzZtHgYGB9NVXXwlZ5syZ6bPPPhPlVatW0ebNmyllypSR5FHtr1c+duxY4TQJv4STJ08K+RtvvEGVKlUSZbPkWOAj8O233wpZrly5IvwU/P39TZGPGTOGgoODhR8GpgsG77zzDpUsWVKUzZBj9s+bN2/SsmXLRN0q8DeDvx2ria/zpk+fnv7777+Id4Wnp6f4WwEhISGmyGvXrk1+fn6izjCMObCSIFGZ4B48eCDWCpVbvkOHDtSpUydq1qyZqCs59l+7di0tX75ceO9r5VoSojw+zgmslKOs5FairsHKc8fHOaPDne8JxEYe22mmGYbRBysJOmnTpg29/fbb1Lp1ayl5xrVr18Q6b968Ys0wDMMwSQH2SdBJsWLFZOl5oBywgsAwDMMkNdiSwDAMwzCMS9iSIEEyJSyxAf4I7dq1kzXJli3QsJ4tqDsDR8IaNRxrZ+bOhYchkatsjEOHOhaGYRiGMRFWEiRIjZwtWzZZe57JkyeTr6+vrEWmZs2aNG3aNFmzExRENGsWQhngbk60eTPRkCEOuQKN/5dfIm2cFGiA0jBqlKw4AWVjwgRZYRiGYRjzYCVBAi/pe/fuydrzbNu2TQy9uOI5n4QcOYgWLnSsQdmyjrU2de2iRURZshDlzi0FEigPUDhatpQCDUr56NJFChiGYRjGPFhJ0Emc/DKURSFXLkcdlgLE7Xfs6KhrgfKQOTNR1apSoGHSJKLGjYkKFJAChmEYhjEPVhIkMfkkFC9eXJaex6VPgkINK/TpQ1S6tEP2889Egwc/UxoUsBRs3Eg0cKAUaIBiAUtHp05SwDAMwzDmwkqCJCafhEn2XnyrVq1kLTLP+SQooCD06uXo+ffo4ZApB8YGDRxrLbAU9O79bJhCoYYg+vdHqjkpZBiGYRhz4RBIs4BV4JVXHI2+UhAAohKcHQ8LFSL69Vei//2PaM8eKZTA/wCWhbZtiS5dkkIJnCHHj5cVhmEYhjEWVhJ0gugGDDlEZU2IhLIgwH9AqyA4gyGEt94imjfv2VCEAiGQGHqYPft564EKf2QFgWEYhjERHm6QxOSTsHXr1iijGxAa2R9DAQr0+HfswOxCjhwJanGVK4FhGIZhEihsSZBggqd8+fJFGQYJC0KvXr3o1VdflZJnnD9/noKCgqh69epSwjAMwzCJH7YkSGLKk1CiRAlZep4iRYqwgsAwDMMkOdiSYCCPHz+m1KlTyxrDMAzDJG7YkiCJySchJt577z3aCEdDhmEYhkkisJIg0TN3w6pVq2Tted544w1q3ry5rDEMwzBM4oeVBElMPglbYohMqF27tiwxDMMwTNKAlQSdZMiQgW64mrHRiW+//Zb8/f1ljWEYhmESL6wkSGLySXjhhRcof/78shY1qVKlokePHskawzAMwyReOLpBElOehNhw/Phx+vLLL+m3334TdeRSqF+/Pp04cSKiXrJkSVFWvIUMjHYePnxIixcvFmVgtPzAgQN07NgxUa5SpQqVL19elP/66y+6evWqKBstx5COdo4LdS3BwcG0cuVKUQZGy8PDw2nBggWiXKtWrYhnvmbNGgrEDJ12jJbfunWLFmFGT4vBvXp4eIhyrly5KGPGjKIM6xaib4DRcvjzBAQ43iFQkgshzbgds+UXL16kp0+finKePHkoffr0omy2fP78+eI3zTDJAVYSTObChQvCCgGgFKAxKS1TMKPerFkzatGihXB8BNptquEBRsr37dsnlJfxmrTOav+TSBWtwUh5hw4dRAP2+eefR8jA2bNnIxoeYKT8n3/+oZdffpnWr18vpc/2N/NefXx8RP4MXWm8DeLgwYNCCfvpp5+kxJHDAyDhlxYj5S+99BK98sor1KZNmwgZMPOcc+bMEUrYrFmzpNSa81atWpVmzpxJb775ppQyTBLHy64kRId9F1liypYtK0vGUblyZZv9xS5r1rB3715b9uzZZc062rVrZ+vbt6+sWcOxY8dsXl5esmYdTZo0sX3yySeyZg2zZ8+22Xv2smYd2bJls02ePFnWrMGu4MbL9+rp6WmbP3++rDFM0od9EiR68iTA12D//v2yxjAMwzBJG1YSJBj3jC5PAujduzdNnDhR1vRh701SpUqVaNeuXVISmfjK0KiGN6zk/fff1+X8aTQDBgyQJev48MMPKUeOHLJmHZkzZ5Yl68CQCqJ/rAT3iSEOq4E/RMqU/Npkkg/sk2Aya9eupddee02MxTdo0IA+/fRT4dymGDp0aCTfACZpgPFsOIa2bt1aSsxn9+7dQiGKSiFl4o7ySWDHRSa5wCpxHNA6BEZFy5YtqWzZshQSEiIUBji0wZGOX+QMwzBMQoeVBCcQMqgXhEUhFfPHH38sJUQ7duwQkQNqAaNGjYowx2qVBYQFbt26laZPny62WQWiG7p37y5r1tGxY0d69913Zc0aEN1QtGhRWbOOPn360N69e2XNGnCv165dk7XoQWgfFFVMf16qVClhMSxcuDC98847dOTIEbesh8WKFaOvv/5a1qIHYYX4e1HnxBqWND0Kt5YJEyZEOzOrYvTo0eI8MS19+/bV9bePSBbnaBaGScqwkqABDRhekHq5ffs29evXTygLCrxc4eCoFgC/A+eXLuK9sR1KQ3ywevVqWbKOuEygFRfu3r0rSwmfgNAAKrOkDI06OEpK3AO/yZhALgX41iCVOEIJ//33XyG/dOkS/fjjj2KIZMWKFboVBT3nBEht3rBhQ6FQqHNiPWzYMHr11Vfdbnz1npdhmNjDSoIGjOfWrFlT1mIGzlNw2ho4cKCUENWtW1f0XtQC4IcAx0iAzyCuHC/h06dPRyS+YZiwp2E0ZO8QOhlsbk8V+RSmTp0qyhj6wu8QloVz586JOpQFNORYG8WdO3fEOXHMGjVqCGUcyoqvr69Qsvfs2SO2u2PJ08Nnn30mlB3nBflL6tSpI/aBM2Lnzp0jkiUxDPMMVhI06DFfuoufn594IWqVA0wpjTLg6AbzSQzRDaHhoTRg5wBacMaRGTK26IluQMZP+MmgcXz99depePHiwuSOZEGoAwyboeHWg57oBigJ+PuqV6+eaJArVKggrGloqFEGcPS8efOmKMdEXKIbYMHDEB/uEWBYEJlQ9cDRDUyyg5MpPY+9dyNLceejjz6ylS5d2vb3339LSWSGDBkiS0xSwt4rt61cuVLWoufIrSO2yssq21LOSmmrtLSSjWaSbeSBkXKrfnbt2mWrWbOmrMWOBQsWiL95LKNGjZJS87ArBSLxFM7XsGFD29WrV+UW89iyZYstT5484pzdunWz3b17V26JmSpVqtj2798vawyT9GGV2IlTp07Rzp07ZS3uTJkyRfTcGjVqJCUM84x7Yfeo3/Z+dPzOcRpXfRwNe3GY3GI9MP+reUUA5mYwEwwtzJ49mzZs2CDqiATKnTu3KJsF5maB38X169eFVaB///66rC8Mk1xhJcEJ5W2t0M4FYAYw6XJ0g3kkhuiGSl6VaG/bvTS44mBKlSKVlLqPO9ENroD5feHChaKMybgQtaAHd6IbFH/88Qd5enrS8OHDKXv27OJv4IMPPhBDEHrQG93gDH77GPID7du3j5iQTC8c3cAkN1hJiAYkxEGII8ZTAWbAg8OTApMnXblyRdZiV8dsgfEBRzckDDKnyUzT60ynCtkd4/JxJbYe/1AwhgwZEuGs2KRJE6pcubIox0RszomevAKfh4Jy+fJlKdGHu+eFLwKUE8z4CmdJ+F+kTZtWbmUYxhWsJEQDHLl++eWXiHTNaOBHjBghygpt9kTgbh3DGwwTn0BBQH4E5agIKwIsTTGlKY8LOD4iKtRQHKZT79q1K505c0buYTzI0YAwTAAlSM3iyTBM1LCSEAP58uWTJUcDD6VBAe91WBcUsanr7a0ZDUc3mEtimbsBpnOtggAwBIBQSL3EZu6GdOnSiYgKNNT4XQBcg14LV2yiGzA5m8qDgqgKKEPuwtENTHKDf+3xDJLLqJekVVSrVo2+/fZbWbMO3CsaICspV66c5ecEZcqUEZYoK8G9FixYUNZiBgrC22+/HcmCgLH+jz76yK38HfPmzRM+GLFF66yI5Ep6ciXAtwXn1UtYWBgdOHBAlDHUgDkYYgP8KEqWLClrDJP0YSWBYZIhN27cEJkOlYIA58EZM2aIxGDxOU6PRliv86I7wP/n0KFDolyxYkVhEWAYJmZYSYhn8JLm6AbzSAzRDUahN7oBoY4IPUS2Q4AGc8GCBSLJUWxM6XqiGxYtWkTNmjUTw2uYRVGL1i8HSZ7SpEkja1HjbnQDHCVVKmhYeDJmzCjK7sLRDUxyg5WEeAZx2/EBRzckTfR4/B8+fFjM2QAwxDB27FgRxQMfgdig55xQJNBIozf/008/CUUVjotHjx4VCguAn0Djxo1FWQ/uRDdcvXo1IqICfjHwiWAYJmZYSWCYZMa2bdsiQh0RDggnVlgQ1IyIalFzjxhBlSpVhDICpQTWs+rVq4thBZj+Uccak05hJkozwH0q3PHbYJjkDisJ8QzP3WA+HN3wDEw0ps2qaAR6ohugdGA4AwoKkiYp5z+soYxg+nTn8ODocDe6ATlPjICjG5jkRgrM3RAUGCCrz4M/bpuYwoExg6FDh0bK8MgkDdAoYcIiTLtsFbt37xYK0a5du6SEMRpERcCnApYRhkkOsErMMAzDMIxLWEmIZzi6wVw4usF8YjN3Q1yJ7dwNcYWjG5jkBisJ8QxHN5gPRzeYS3ycE8TXeRkmOcFKAsMwDMMwLmElIZ7h6Abz4egGc4nN3A1xJTZzNxgBRzcwyQ2ObohnVHTDzz//LCUkXriY6x6YJa9Xr56Y1RLj2Arlp4Ac92bI27VrJzLdaa8lb9685OPjI8pmyRGDj7A/lRsAqGvcvHmzKfKaNWvS5MmTZc06/v77b9F4ItRRgSRFAImMzJRjumcF8h2oydHMlCOSA0mZFOpazJIfPHiQoxuYZAUrCfEMlASM1a9bt05KSDjaKacss+RoxOCAhZeeokWLFmKNvP5myGG9wDiy9lowEZLKo2+W/MUXXxSz/2kVFnWNmJXTDDmsCFDC4gM8B63CUrduXbHGNZop3759u1gDTDaVNWtWUTZTjlBTrbOmuhYz5f3792clgUk2sJLAMAzDMIxLeHCNYRiGYRiXsJLAMAzDMIxLWElgGIZhGMYlrCQwDMMwDOMSVhIYhmEYhnEJKwkMwzAMw7iElQSGYRiGYVzCSgLDMAzDMC5hJYFhGMZN/v33X6pUqZJINqeW5s2b061bt+QejDMPHz6kvn37RqTXxrPCM8Oz06bcToqo3wsWlBMTrCQwDMO4wejRo6lUqVIi1beWP//8U6TjXrhwoZQwCigEbdu2FfNeMIkLVhIYhmF0gh7v559/LsoLFiwQKeuxBAUFUbNmzYR84sSJia63yJhLyZIl6fDhw2JBOTHBSgLDMIwOYC6fP3++KI8aNSrSdOteXl40depUatq0KS1evPi5hgDWB+3QBMzuOJ5Ca46GIqLM8FiUZUJ7DO3no/ssPuOM2l/tg0Vr/dAez9fXN2JfdSztMAGWmIZZcLzGjRsLSwvAJFn4DCZ704JrUMfEOfE5LWq4Irp9nNHei7vPVeH83WnvV3tN2s+qz6h9tdehrlndLz73119/RRxf7eP8nLXfEXDejsXV9x1nMMFTdNh3kSWGYZjky6lTp2wVK1YU78Tt27dLafQEBQXZmjVrJj7jvECO7UB7bOcFcrvy8Zx8wYIFMX4WS58+fWyhoaEx7hvT8XDPUW2DDNtc4eozuPfTp09HPJuOHTtG2q72Uc8nuucY3XcR3f1CHt1zBXZl8LntWKL67vBZXI/aT12b2geLek7YV+3nvOC6nK9b+9nongeu2UjYksAwDOMG9pe18D3Qw/r160UPGp+xv+AjDU1A/v3338s9nwErhXY/+D6gl4i6vbEne6Mv9tu2bdtzvV5swz74vL0REjL4Aagp25csWSKOh23YR3s8TIvtjPZ4lStXpilTpkT6vDoPZDi2K2BV2bhxY8RwjL3hFM8le/bsog6Cg4PF/eF42A7wfPDMAJ4T6urZaPeDdcf5ObjC3eeK3vyyZcvEvs7XFhAQIGQA9zdo0CBRfvPNNyOmGcf56tSpI8oxgeNqj+/n50ft2rUTMjwD/H5wvfv37xfb1e9K+zxQBlevXtX1PPTCSgLDMIwJ4EWNBgegEVFDEBia6Nq1qyjDBO5sqn/ppZfE2tPTkwoXLizKaGzwufTp01O9evWEzBk0JAMGDBD7gNdeey2i4bt48aJYf/bZZ6JBwVAJTNM4R3TOhLhOdTw0pOo4aAyViRtl4Ope9ILz4P4AnEKVQgHwHNHwAfiDqPOqxnj37t10+fJlUY4Od58rvi/4EKBBhkKAYQB1Tme0zxqgPHDgQFmLHtwr7hlA+cT3CNT1FixYkGrWrCnKCnx/+B7xfaphC+UrYzSsJDAMw7gBenSqFxkd2kZVNUoK57oiKitFkSJFZCluoCFXjay7jQruGT1oM4jqeQDtc4wtsXmuUE6Uv4GraBYtzkoGykq5igncOxQXLVFdr0L5OODalJJmFqwkMAzD6EDbo/v777/FWot6caMhBtoeq3MjF9dGzxUxKS/o5SvHNjWMoDWzO+PcUKHs7e0tyso8rl3Q41bWACPRPkftMIdazIoYWL58eYSVxXk4wBl894hqUZgZ4QLlRQ37aIdC1HCD0bCSwDAMowP0DNUwAXrhWm9zNMAffviheHG/9957ooHA/vny5RPbtY0G9lVREsrcbRTa8XltI4dGVmsJUMMIMNPDXK8HbWOtPY/y5DfFs96O9jnivGpIQxsdoK7FSJSPBpQo+GMAV8qhttHu1KmTWFCGzIzr0lpW1DANnolSTo2GlQSGYRidoFFXPTbtuDx62XAkA1r/g379+kU4ycFkrd0Xcmw3EigFaMxxHmWGVg50WksIxtaxT0xmdC1aJUl7HihMsDq8/vrrYltM4NywuJw9e1ZKYgbHxjnw3PD8tPenFB6jUT4BzvfqjFLGcH1ffPGFWFCGbNKkSXIv44BSgO8TqN+g9vdnNB5yHXuGDiWaMMFRLlSIaN06otKlHfVYAk/XOXPmyBpFOICYLV9nv/bjx4+LMrBCDu1+3759EfIXX3xRxBSbKccLDL2asLCwCDnANmCWPHfu3HTjxg0qW7askKv9Ctl/N5cuXYrY32i5wko5XoDFihWLkKdJk0aUzZSfPHmS/vvvv4jrghzXozBTXrVqVWrYsKEoJ3XgLIZGq2PHjpEaWDQMzjkS8EKHGR69bG0Dg4YbxzESnH/evHk0Y8YM0UAB7XnQkI4ZM0b0QlWDAvM9rANouPU4HqJxgre99t5d3bczeA64jtg2ZDg2IiTgsKc9Bsz/qsE0GhwXz0cpI1Dq0G58+eWX4vmqSAM1zKBVDlHG5/CdQ9lAI24kaDvgzKn9ntVvUjlyRvd9uEMK5EkICozaGQVaCsY7XDJ3LtGsWUSrV2PAylGHlm1vDOOiKOABb9myhVKmdBg6lDkMZhal3QEj5Xfv3qXBgwdH/PDheKK+/I8//jjClGO0HPcJuYeHQ1+bPXs2lS9fXjTu+MJDQkIMl2fIkIEGDR9EGy9ujJCDjBkzijW+bzPknuk9qUBIAaEsQI5rAXh5wWSo9jdSjsZ006ZNdOLECSFv0aKF+GMHeGHi+Zgh37x5swifwvcK+TfffCP2xQtW/WEbLUePZuyvY8nTy+EEBTmeg8Ks7/dJ2BP6uu/X9NFHHwk5Yy1Q+PE3DmJqrBnGXWKvJNhfivTKK0S9exP16OGQ2Rtf6tWL7F3YZ7JYAA3u1VdfpaGwUlgEtLIKFSrEqEkbDRo1ZB5bEkWMsRlcuXKFSpcpTQ82PZASa0g9NDX1LNaTfvjhBykxn3/++Uf0cNGIWwl6+ZMnT6bWrVtLifmgl9N3fF96sviJlFhDup7paNxb41hJiCdYSWDMJPY+CbAcoGeuVQagJJw7JyuJD21viWEYfaRLm06MMTMMk/Qw1nHxjz8c61atHOtYUr9+fVmyFlhNkgsZMztMxsmBtGnTylLSJzn9hhkHsBwk1smDmISPMUrCli14OxH17OkYfoijkwZM8J07d5Y1a8icObMY57UapBtVPgtWkT9/fnqt02uyZh1wrlOZxayiXLly4uVpNXCysrp3jXtV/gJWgjCv+HjGDMOYjzFKQoMG8GKCvR5vR0fEQxxAfCo81a0kU6ZMlp8TwDkzPs4bH+BejYwJ10vOnDllyTrwnSaX7/XJE2t9IBiGsQ5jhxs8PR2WhEWLiE6elEL3cZWwwmwQ3XDt2jVZsw5EO6iIB6uA42LAVXPSqyY04Lho9fMF8dGzxr2Gh4fLGsMwTNwxVkkwCCgJ48ePlzX92Oz/vjjwBWWdl5X23Nwjpfp48OCBCBnUyxPbE1pwZgGVWFyCUs1ORel+TEdN1zalE3dOyD30gQximIdeD3fD7tK729+lbPOyUYpZKcQadcjdxW+NnyxFTVevrnSv0j2yVbE/2SiWR5Uf0ai8+tKBIoY/Ng12QGgAlVlShkYdjF3aUXciDE7fPU2t/2xNGeZmEM8Y63Z/taNLDy7JPfTRvn17MRe/HnDsbpu6RZwz/8L8NOnoJAoND5V76MedDG/NMjejfaX30ePKj8V3ef/F+7S62Goqk66M3EMfHqnjnm6FYZiESeyVBFgKkKIT/ghaEN2A/N7xYOLdGbCTvjnmiCOPDXqjG+zNI409NJa6b+5O3um9aXb92fRe2fdoR8AOar6uOZ25e0buaRzBYcHU6s9WNPvkbGqavyn92OBHsUYdcmw3mtvht+n4f8fp6MOjzy0XHl2gp/Z/4bZwuvvEfSVFL2FPw2jI3iF0Mjj2lim97Lyxk2r71qYNVzfQm8XfpIUvLRTr9f7rqfqK6nQg6IDc0zjO3ztPTVY3oWUXlolz/dzwZ6qRqwYN2TNEKIC4fzPom7MvLSqyiKp4VqFzj87R4juLyT/Mn1pmaUm/FfnNLUWBoxueB8ownEjV4iplMcKtmzdvLrYbbe1CymLtOeOSOtno9MeurgXHxfEhx4Lfk0pjHR/E5Xm5wvn7SEzEXklAsqROnYiGDHHkTABQHJBMKY7Oi7GJbkAjOWjPoFj1qhX4Uehh07VNNOHwBPFS3/DKBupRsgdNrjmZZtSbIXq9Xx35SigSRvLL6V9o6/Wt9GnlT2lRk0XinFijDjm2u4Oe6IY1d9dQrVO1qOKJipGWzuc7U7j9H/JnLL2zlCbfmCw/YSzoSQ/YOUBYbOKCnuiGh+EPacyhMRT+NJz8WvrRzHozqUuxLmK9qvkqCnkcIhTDx08fy0/EHfxGxh0eR/4h/jSn/hxxrm4lutFSn6XUu3Rv+u3sb/Snv3sZ6vT8hjOlykQ9c/SkLKmy0MZ7G6naqWrU6XwnqnGqhqiXS1+Oxud335LHOEDj79wgGDWLox5wbpUlMLGgnWcCYCIpo7MUxheJ8fvQErfhBgwJIBUrrAZ4OZWx9z5+/jlOiZQANEp3ohvwsp32zzQ6FXyKmuRrIqXuoTe6Aeeac2oOZUubjT6r/BmlSelIkwteLvgylcteTlzHvbB7Uho9eqMb9gXuoyxpslCLAi3IrmsLGdaoQ45esF7iGt0wIu8IKpa2GP3z3z80JmCMlMaMO9ENR28fpXp/1KMZJ2dQhewVpNR99EY3QLn0f+Avvr/y2SMPO1XNUZUq5ahE+wP3082HN6U0evREN+A3ciXkClXyqkTNCjybPx/fK37HUEgO3TokpTGjN7rh1SyvUvG0xSkoPIhmBM2g+0/uCznWs4JmUXB4MFX2rEwvZXqWlTQ6OLohatTsgUgnzMSMmp3SrBklGfeJu08CFAVENqgFkQ4xgNzX8PzGD8EV7kY37Lqxi6b+M5U+KPcB1fWuK6XuoTe6IfBhIB0KOkQv5niRCmWMvH/2tNnp4GsHaVurbaLh1oPe6IbiWYrT/cf3RUOmBY0Wetz5MjhmSTObTtk7UZNMTSj0aSjNDZpLp/87LbfEjN7oBjSe/bb3o+N3jtO46uNo2IvD5JbYoSe6wdvTm462P0rbW22nzGkyS2nswXca0/eK38i6Futod5vd4rej5eJ9xyxv+TPkF2sjKZWuFKVPmZ4CwwNp2Z1lUupg/b31dDP8JmVNlZXKpNc35BBddAOUYEyOg/TjSQHtEIFatLNBYthAO9kO5kTA/jFlckXDqDW3o+zKtI9eqfbc2v2UyV7NEYE19nEeyoAZHwqsOob2+mPC+f5dmdCdrzG6+1fXrHrasCbg9xLdNTlfPxbt/mo7FiivOH501xKX5+F8rziOGibR833gXNrPO1+f9l7g46SuUz13dQ71ee35jSJeHBcbNWokJvqBcxcmhnFWFtyJbkCDMnzfcNFgv1/2ffGgYoPe6IYbD2/Qrf9uid4ffBAwVu0x20M4Lrb1a+u2gxt+MHrGI9sWbku50+emwXsGix4tLBoHgw7SwN0DRaPWqWgnuWfMxCW64Z0c71B2j+y0O2Q3fXvzWyk1HjzfvW330uCKgylVilRS6j5GRDecv39eWIcKZCxAmVJnktLoiW3PGsMes0/NptEHR1NFr4rUskBLuSVmjIxuSJ0iNeXyyCVr7gPlAHN0YF4SDPc00NF5SOjgd+Rqtj00cK4aS3do2rRpJHM7ygMGDIhQAFTjrBocBfZr27ZtlI2wM7BsIIWzdmIqXL+ev5ELFy7QK6+8Eun+cT3aRhXPwfkasT8sKXqvMTrQADpfP8A9ODfu2AeTkWmfK65l+PDhEc/V1fFwLOd7cIWre8VxMGV4TPfqrBwpcH2YmM+5ocdx27RpE3GdmHsI58B3r70/bIe1Nq7vPC3xoiRgbgYoCnAUPHDgQISygFkSgTvRDdOPTxeN5cSaEylHutiPYemNbkCvHc5kcDRrub6laDjmNphL3Ut0J78rfsJEDkuDXvRGN8AEvuXVLeTp4UnVVlSjlLNSUpXlVShlipS0+ZXNVC1nNbmnPvRENzjTJXsXYYYOfhJMi28vllL96I1ugNIzvc70OA0zaInL/An4ruFjcufRHepQpINuK4M70Q2Kj3d/TJ5zPan31t7CsrGy6Uqxdgf18ouOi2EXKcwWJnwSnIcUGmZsKJRAd9BGNyjlAJO03bx5U1iP4tqAJgTwXPG3CpRJHMMIaHQBGgv8tvFuwzwhavIvbNdjOsf+apIwdUy8/A8ePCjKOAYaEMy4iGFR7KfOAzmeOyY4wwyQaiprrLGfdpZEPz8/+u677yJ9HujpmOGz+F7xWdw/ngPYtm2beD5o2DCpmat7CQgIEDJn1DVjtkWgnm1UwzNLliwRDSH2d74OWKCd0X5X6hyY0A+zJAJ1PFfXHB24X8z3A9S1aL8PfF/RfR/4XlXjjvNp7wXXM2XKlOf+lrX3gmPgO8e51HGxqGvHb1XPu0APumKXMD+2FlyMM3pk2jpeJKlTp6bHjx9HKAuY6jJbtmximx6O3DoihhngYNYobyMpjT3uzN2AnuUXVb4QjoMp7P/gcNYwT0N6e8vb9OWhL2lR40WUOmVquXfcgRc8QvNgqYBTW4M8DWjL9S3Cqe/1Da/T6uarqUhmc52jXsnyijBDb3+wnWYHOWZeTMogzBXOiovPLSaffD7Uq1QvucUcaueuTVVeqhLxvdZYWYN8m/lSzVw15R7GgO/vathV4VfS3as7/X3/WQPRMXtHyuGRQ0St6AXRDWgEsmbNKv6e8SJTYCgCL9Nhw+I2ZGQlVapUEUqeFjQqaFzQSKOHjwYAVK5cWby88cJHQ6ttkN0B0ygrRcL5mKijIQba6Yixf9euXUVDAQUFPcuYlBEcF8cD2BfXi8/rAQ0grBkA94+ZbLW9WJUeGkBhQI9Y9XyNAs9JTX3tqifvDJ6P+q7QEcX3p8DzUp0W7KeeHZ4JGt7ojo1j5svnGOKFNQALlIWohtCdUUoZzqN+MzgmrgPPVKvIKLT3olVScJ3O16o+b0Sabl2WBDXeoZZUqVI9t6DBd15gZtQuuEG1YApd56EB1LNkyRLxI44O9OgRJuaV1otGVB4hGuq44nw90VEsczF6p9Q7kc7bunBrqpO7jvCRUGPKRoB7xRg9zN7KC1553q9pvoauhV4T27GfXtydu6FahmpUK2Mtemx7TJvvb5bSxAF+e+4CCwKGsWD2h58LIklgxTGTdi+0i/helzddLiIq+u/o71Z4q57fMPxIvrn5Dd1/el/kwjhR9oQIh8S6Y7aOdCf8jtxTP3gHwK8HzqnO4G86MS2uQC8RDZ6z1z3eZaqxMArnY0LpunjR8T4pjLBzDc71mMBxcfzYgHPBXyAq0HCp8XGYvI1WEAAadRwfS0wKAhQCvRES7j5HMHDgQKF0KaAoqGuLzmKqbeCdo15wvVpFJiq0vwnTwVTR0WHfRZaMxcfHRxwbi/3lYmvatKlt69atYpv95sUSHd8c+8aW/sf0tt/P/S4lDkYeGGnL8lMW2+4bu6VEH/fu3YvxnADHxfHr+Nax3X10V0qf0XFDR7fOb+9pxXjeo7eO2nL+nNPms8bHFvo4VEodhD0Js726/lVbtnnZbPsD90tpzPT7uJ+N4Nqgcxl8ZbAt9Emo7UrYFdtL/77kcp+YlgwtM9i++eYbeQX6WXp+qY1mkvhuY8PNmzdlSR/2xtn21qa3bClnpbQ1WtXIFvQwSG7Rj57fcHTge8b37c5vadeuXbaslbK6fPaulp4Xe9r+ffivLfxpuO2p/d/VsKu2IVeG2P6+97ftv6f/2T6/+rnLzzkvacuntU2ZMkVcw/z5823Fixe3Zc1qvw7733aGDBlskyZNEtsSM6dOnbLZX95iQVlhf1nb7A2FuFd7r1DI7AqFzd7rFrLt27cLmSu0+9l7oVL6/DG1de1+AHXIcRwcD+Az6rMKVzIQlVyLOgeuAdeicJarOhZ131ijrn1urs4Z1Tm0aJ+X2k/7bNTxovqunOXaz+L8WvQ8F2e096+9D1fHiur4zs8rqnuJ7tqNJl58EuzKgDCfoedhVxZo9erVwuQF8xWIKboBzoq/n/9dOHl12NBBZKlTy4j9I0Q4W82VNd3KvKg3uiGPZx7dzmt60BPdoPwg4AGf3iNyLwBDGlVzViX7S17E+JsFkuvAI/7Uf6cimafdITHM3YBee+eNnWne6XmiZw9zv1c6969ZT3RDdOB7do54MJofg36kksdLksdBD0p5ICXlO5qPVgSvoAJpClDIkxA6+Z++BFba6Ab0pk6fPk3Tpk0ju7IgvnMMV9rfNXKPxAl6eLAiOI8Xa8eW4UwWWzCGrJzdnI+ptSwgXFo5tWF/5ScBk3V8/G1pUT4B9sYrwhqsx9dBL7DmYFgLKNO7GgaKDdrnqn3+sALEZKXAvhh6gdVAOUzCj8LeYIuyvYMQadjNGWVBwHmU1QG/KfV91qxZkwoWLCjKrojq2lW0BCw66jcaV+JFSTh06JAw76xatUo4wzgnT4rph4UXKIYYkBHPeWlfpL3YPrLqSJEJEcMCetAb3ZAzXU4qna208BFApIMWFfeeNU1WyuuZV0qjBz+Q6ExTAI0FTN0Iv3QeUkCUw7Hbx4QDo0dKfelxYxPdUD59eZFhEUpCYsKd6AYoCO3/ak+rL6+mt0q8RfMazou1QqgnugG5IEouLklt/No8l6RJ/ZbwvetVFvRGN9TLWI/OljtLNyreEDkTtCC81Tu1N11/fF2EQ8YWpSzAuQpDi4k9jwIaYDUWjgYcZne8jBHiCOw9wlj7IwB0kqCIaI+pbWz79esnfAKgpMCUj/2wPz4HObY7gwZI24iZjVKStM8npsbWHdBoovEEeEY4flyHNeAHZ++lu3z+0YHfAxQVoB1mQBlofRwU2u/jtddeixiqUPeCZ4Znh+vR+r1Ehatr154/ps/rJV6UBISInDx5MsqwKCgJ0UU3oPfsk99HjN86L4gCQIKjZvmbCW90vb1AvdENUEA6FukoFAQ4KGrT5q65vEaEJ7Yo2ILyZ9QX3w4tMKbohsKZClOt3LVox40d5Hsxssc8/B+QAbJ6zupUOmtpKY0Zd6Ib0KggHO7h04dxUhJiO3dDXNET3QBla8zBMbTx6kaRSXNmffuLLg4+CHqiG6DAIg/C5mubae/NvVLqwPeSr5A1ztdYfP960dN72PZgm0il7ZXKi5pleZbECdait7zeorQp0tKf9/6MSLIUE9HN3YCX1p07d0QoWmIHSgB6s2iUtcCjXCkQsQWdJdVoAJRhsVAvejQ4cIqDMqIFdefoCaVQWA2ej+pJA1yDv7+/uBc05Pv375dbYgeexZgxYyLdG86H5w/wblE9ar3AsW/x4sWR/ABwTOfn7ApYDtS5teDz2ugMV98H7kUb1aHAs9q1a5cuh0Psg6Rtrn6PcVFYnUkBn4SgwKh7ldBOrDYV4gZfffVVGhqLKacxCdDXR7+mP1v+KXLg6wWOJEWLFhUNWUxAMei1tZfwQK+fpz51Ld5VDGugDgsCzq030gBmodu3b4tQnOiA5aLZWvsfXYg/tSncRsTPQ2nAOTOmzuiWFzwsCaXLlKYHmx5ISfR0yNaBZhScIVIxv3PxHVp1d5Xc4h6ph6amnsV60g8//CAl+kC4KXr4sA59Xtm9ngl61w0bNhQv9+hA4qYma5qIHBhQQF2F06JHj/Mj22ZMFCtWjCZPnhyjgoJMmZh7A0NnUE7g+AplE/dcIksJt6JW5syZQ33H96Uni2OeuhlzN4zLN47SpUhHe0L2UEB4ANXOUJvypclHf9/7m147/5puJSFrv6y0YsIK8ZwZhklaxIslISachx+sAgqRHmCpwFDGVzW+EpM59dzSUzTWGMPe0mqLKaGIOCbmiXi9yOsinz8ml1LnRNIhd8Pk3IluSJcynUiug8iGkKf6w0QTCnqiGxDSink3YPZfe3mtmAvDeVl+YblbESR6QNjjztY7RRpmfJ/4Xjde2ygSg+1qs8vt35Le3/CMwBn0ydVP6Nrja1Q3Y116PdvrlDFVRlpwa4FbCgLDMEmbBGlJuHTJkbUwLo5f7nL//n3Ro7fynODp06fCJGf1ed8b+B593/l7WbOGDJ9noDFNx4jhJisJDAx0y3nRCOLjNwwHrhbvtqDgOcbPCBodad9OS+N7jKePPvpIShiGSSokSEuCu3M3GIHe6Aaj0RPdkFRIDNENRoHvNLl8r9HN3cAwTOImQSoJRobN6EVvdIPR6IluMJq4zN2Q2DBi7obYEB/e/EbO3cAwDAMSrJKgd+4Go9Ab3WA0eqIbzCA2czfElYQc3WA0sZm7wQiMio12h+iiGxiGSdwkSCUhvnBn7gaGYRxg7gZMUcswTNKDoxs06PUMTwq4O3dDYiY2czckVpLTb5hhGPNJkEoCcgd07txZ1qwhc+bMYgpWq0FGOqRatZL8+fPTa51ekzXrwOQ/yJBmJeXKlYsX/wAkObG6d417zZjReuUPQxyJPaMiYwwYTowpJTBmb4Qya+YU4nqug9FHglQS4BWO5EavvPIKlS1blmrUqEE//fST2LZz505T5EuXLhXnRVIjyJRcYZZcRTcgpamS41oUZsh/++03IcvaIyulej1VxIK6WsyQp76SWkQ3NG3aNOJatP4YZskR3bB582bxvCFDqlt8/8AseXBwsPhea9WqFSGfPXt2xP5myOED8TDkYZTP3yx52P1nWUeZ5AvSDetJaWw2CeU6kgoJMk8C2Lt3L504cUKUy5QpI9bVq1c3Xb58+XK6d++eqEMOGTBbPm/ePLEGZsuR5ztXrlyirJ4BwP4KK+VvvfWWWGu/E2CkHDKg5LgWPJukJEfoMCaOwTaF2h+YKYcM18MkX9A4Iw23c0ppZ2BBwDwGSH0c13TWrtB7HYxO4muqaIZhGCZxoJ2mWS32Rl5ufTb1sXZZEMUUxmpf7ecB9td+3nl6ZOC8DxZMr6xw5zoYfXB0A8MwDBMlmDQJExZhtkEtsAYY5Vegev9aMClUx44dI6bGdrUPeO+99yL2YYyHlQSGYRgmSjDLJBQEey9dDD1jQRnAdwzOgRg2UDMawswfGhoaaSbE6IASgnwxmIkRzuM4PtaoQ1FQk7NhOA2o68A51AyT8PUCcbkOxjWsJDAMwzBRgkYWjTIaYPTm4acGK4JRqGmwESEDf6nmzZuLKCg0/lrgbwNwblzDpEmTxHTL6toYc2AlgWEYhokSmPIRzouG2ZW53whUWCSUBOdhDQWUFWXBAEpZwALlhTEHVhIYhmEYl2AoAREC6NU3a9ZMmP61ww1GgJwGyjKBoQLtcIMzsBhgO5bt27dLqSO9PYYtGONhJYFhGIZxCcb0L168KMpdu3YVQwNojI2cg0UdH0oIhhrA/v37Iw03QFlBciRYDZSzZJ06dSIUhYCAgAjfBcZYWElgGIZhXAKlAI0xwFBDTEMCYObMmeTp6ak78qFq1arCaoBj4tg4h/OwBnIdQEkB2mEGlTSpXbt2VLJkSVFWuHsdjGtYSWAYhmGiZODAgSJSQIGhBjUcsHv3brp8+bKQv/baa5H20wsa9++++07WKCLKQQ1pYFZgAGXF1TAE9tM6Lsb2OhjXJNiMiwzDMAzDxC9sSWAYhmEYxiWsJDAMwzAM4xJWEhiGYRiGcQkrCQzDMAzDuISVBIZhGIZhXMJKAsMwDMMwLmElgWEYhmEYl7CSwDAMwzCMS4xVEoYOxVRdSPgtBQzDMAzDJFaMUxK2bCGaMEFWGIZhGIZJ7BiTlhmzb73yCtGePURduhDNnk3k6Sk3us9bb71Fa9eupdSpU4t6zZo1xfrJkye0b98+UQZGysPDw4UM96uw4ryY6SxDhgyRZjAz+7zIfY7zVqtWzZTjRyVPlSoVeXt7U968eS07L75XDw8Psc2M4wNX8tu3b4s5+HGvVp+3ZcuWooy/o3nz5okycuyr/Y2W3717l77++muqUKGCkDMMk3QwRknAMIPC3z/OSkKNGjXo8ePH5OPjE1EHkB08eFCUgZFyTEWKWcYGDRokpdacd+TIkVS8eHEqWrSolJp/3mLFitG7775LCxcuNOX4Ucl///13MR1sw4YNLTsvprXFHPW//vqrKccHruSzZs0SU9tCEbPqvNeuXRPK9Wz8/dmBko1tYI9dgVf7Gy3v0aMHffHFF/TRRx8JOcMwSQgoCdFh30WWomDzZputUCGb7cQJm23IEJutSxebLSREbowd9p6KrXnz5rJmDVeuXLHZFSJZsw5778vWoUMHWbOGvXv32uy9elmzjhdeeMFmbzhlzRp8fX1tadOmlTXr8Pb2tn3yySeyZg125cCWMWNGWbOOevXq2davXy9rDMMkJeLmkwAHRXuPiT7/nKh0aSmMO3ny5BHzijMMk/DBMJJdEZM1hmGSEnFTEhYtcqw7dXKsDQLzi5ctW1bWGIbRC4YArKZXr16ylPzAcFbz5s3FsGxUC4b1Eju4B9wLhtAwNGsk2me4Y8cOKU0c4Fngmei5bjzD0aNHy5q5z9RIYq8knDxJNHMm0aefxsn/gGEYYyhXrpxQsK1G+UAwrnnzzTeThKLARAbKTdu2be3NoL0djAEoB/gdJEZiryTs2kW0dy9RmTLwbnQsCIH89VeHDEpELNm8eTNtQUglwzBMIgEOsjabLdIyatQosW3+/PmiUUmsvPHGG+J+ZsyYQenTp5dSJjkQeyWhRw+4NEZehgxxhECeOGGojwLDMDHzzz//0J07d2QtZi5evEgff/wxlSpVSpg9EXWCRsBd0+dJe4fg8OHDssZoeemll2QpMjBP45mrRWuGVihTdlT7RWWmdyXH59TnVRkhuv/++2+k/dXibAJ3No1rj6fFlQnd+T7UeaMC27AP9nU24+sx0eu5H4U6nlrwOa0yp64Fi6+vb8R1ffjhh9S4cWP6888/xX5169Z97rNA3fvn8NuzgzU+73xfztfs/FyB87WibgVx80lIYNh1d/riwBeUdV5W2nNzj5SawxPbE1pwZgGVWFyCUs1ORel+TEdN1zalE3fsCpJJ3A27S+9uf5eyzctGKWalEGvUITeDqyFXqdCvhcS5olqseNYBoQFUZkkZGnXQ0Sszk9N3T1PrP1tThrkZxP1h3e6vdnTpwSW5h/Hg2N02dYs4Z/6F+WnS0UkUGu5+5tKrV6/KUvRs3bpVvJSQ30C9sGG9Q2hsnz59KDAwUMj0UKJECXufgDsFrvj777/FunDhwuQph2XxckejogWNh7YhQ6PhypSN/Vw1IHrB51WDhXwXGTNmFFYC1dgpcN5JkybJ2vMo5QeNnWoYsYbFBCCcHBYHV/eBHC1QTJ0bSgWGzNq1ayfK6vkBPJtt27aJcr169VxaNHA+PfejGm/nIQB8Do2/sxKDa27Tpo1YA5UrxAguXLhAr7zySqRrxnekVQLwnTtfK+px+S3oJUEqCbGNbtgZsJO+OfaNrJkHlJGxh8ZS983dyTu9N82uP5veK/se7QjYQc3XNaczd8/IPY0jOCyYWv3ZimafnE1N8zelHxv8KNaoQ47tRuPp4UmvvfAadSvR7bmlWf5m5JHSg9J7pKeMqTPKTxhP2NMwGrJ3CJ0Mjv3wlV523thJtX1r04arG+jN4m/SwpcWivV6//VUfUV1OhB0QO5pHOfvnacmq5vQsgvLxLl+bvgz1chVg4bsGSIUQNy/0Vy/fl28XPAiRM6DY8eO0X///Udz5syhTJkyiRc9ykjSpAeObnCAl7a2p4dFNciq0cQznzhxokhodurUKWHCDw0NFYoZGjKVB2P9+vWi0dDut337drFt2bJlzzVi7oDjqKGDBw8eUEBAgNvnQSOPnCe4RnwOYI065NgOvv/+eyHDsAuOrT0+fmeuevfAlRJy+fJlkcwLx4eC6wokpdNzP3jOSnFRz0N9D1AEpkyZ8ty1YRv2wb6dO3emjRs3imsBOAa+My8vL1FX4DvHc1bDTuo51KlTR9SBn5+fyM+jvQYAhQjXgGeA3xHOhfvDflijHtffgh6MVRLGj4eaHGdHxthEN6CRHLRnkGm9ai2brm2iCYcniJf6hlc2UI+SPWhyzck0o94M0ev96shXQpEwkl9O/0Jbr2+lTyt/SouaLBLnxBp1yLHdaLKlzUZTak0RDZd2gVKUziMdpUqRir6u+TWVzWZOJAp60gN2DhAWG7N5GP6QxhwaQ+FPw8mvpR/NrDeTuhTrItarmq+ikMchQjF8/NSRVMgI8BsZd3gc+Yf405z6c8S5oIAt9VlKvUv3pt/O/kZ/+kfuEcWEnugGZGfcsGGDKHfs2FE4PKKRf/3110VvCcC0ipeyHpJzdENMODcKeLmjEVK9aSgSsDCoBkv1nM+fPy/W6FErZ1QcA8fC0E5sHVTRAFWuXFnWSHTGkAVVXQ/M6ZDFdB40hlB8gLpmtcZ1YjsaOGXZQiOnFCdlRUGDH9VvzJUSsmTJEnGd6viu0Hs/6lrx/ajvBg26uidX16YUPaPRKj04PqwkWjAsCPAscC94hlijjvvcv3+/2G4W8WZJWLp0qSzFHbxsp/0zjU4Fn6Im+ZpIqTngXHNOzREN6GeVP6M0KdPILUQvF3yZymUvJ67jXtg9KTWGfYH7KEuaLNSiQAuy/6kJGdaoQ45esFXMPz2fVl1aJRrR9kXaS6mxHL19lOr9UY9mnJxBFbKbn+4XyqX/A3/x/ZXPXl5KHVTNUZUq5ahE+wP3082HN6U07uA3ciXkClXyqkTNCjh6JADfK37HUEgO3TokpTGjN7rh3LlzskSUK1cuWSJhRUD2T4DMirAw6CGm6IbozNZJCeW4iEYNPVmg7QkD9cKPDm3jWqRIEbE2CzS2U6dOjbherfLiaoxdS9WqVcXncI+nT5+OGD5QVgD0ivXcryuclRBcB46P80GZjQo99xPd80Xjqz5rFdqhKFcohTG+iBclAWNUXbp0odatW7vUgtyNbth1YxdN/WcqfVDuA6rrHXmsz2gCHwbSoaBD9GKOF6lQxkJS6iB72ux08LWDtK3VNtFwG0nxLMXp/uP7oiHTgkYLPe58GfJJibnAUjL56GQxzDKk4hBKndL4uHw0nv2296Pjd47TuOrjaNiLw+QW8/D29Kaj7Y/S9lbbKXOazFJqLviNrGuxjna32S1+O1ou3ne8XPNnyC/WRoKhBT1olYnYsHjxYuGr8Mknn4hycgGK2nfffSfK6O0NHz48wnSNBgFoTcfa5bPPPhO9yXz5HH/PehsIbWOsTO6uwHGde8O4XvSycX6tuRvXDhN6VBQsWFCMzWM/fL9Yay0VaPjU/bqK/IjJIqJVQmDOx/FxPpw3OmK6n+ier7L0OIPrgAIRHyhFBvehhju0C3wwzCRelASMRcEs+scff1CDBg2oVatWkSaucQc0KMP3DRcN9vtl3xcao5nceHiDbv13S/T+4IOAsWqP2R7CcbGtX1vTHNzaFm5LudPnpsF7Boserf3nQQeDDtLA3QNFo9apqLEJraJi1qlZwj+gT5k+VDJr7EyeesDz3dt2Lw2uOFgMa8Qn5++fF9ahAhkLUKbUmaTUHDDsMfvUbBp9cDRV9KpILQs4JmvSg97oBu1Q3o0bN8SLBjx69Ei8JBUYr9aDc3SDUg7wUkOvGj1LDGskJ2DCRsMIMJSwfPlyUVY9VW0DjN4terl4d6neuGoYtGPOWCvverWfQtvYLZFmeT3gODgejovjowHFeLxqWKNTUrSmceV7oXUo1DbG2hBQ5aUfXYQC0CohahgsJpO/3vtRzxfXrZ4lrkU5XupRRqxCKVpanxX1W1D3aSbxoiTAo3bIkCFiDc1o1apVIvzq1VdfFWZOd5h+fLpoLCfWnEg50pmv6aHXDmcyOJq1XN9SNBxzG8yl7iW6k98VP2Eih6XBaGAC3/LqFuFMWG1FNUo5KyVVWV6FUqZISZtf2UzVclaTe5rH9dDrtPDMQiqauSh1K95NSo0HSs/0OtMtGWaICXzX8DG58+gOdSjSwVQrw8e7PybPuZ7Ue2tvYdlY2XSlWLuDnugGzNaoxmHRoMCaBydF+CnAF8FdVHSDs3KA2SHxN/4pEq4lQ1577bWIxkk1kujlKs995eioxpexr+qFQ2mAtUFrLscadbUfTOvqe9SO+asGWw84Do6nPY/ykYAyE51pH6jrBNgfvX8t+LxSinCfOL7y0o+pwcc2NeQAcB5cY3TovR/tdwMfCef9BgwYEO21OYNj6Gmw1ffkTviiuiegrlX9FrQ+K2YRo5JQpUoVMd0tIg6wwClELblz5xYLxjXVkjNnTrHgB6EW/JixZM+ePWJB6NXTp0/lWRzjV6tXrxaaqN7ohiO3johhBoyNN8rbSEqtAT3LYZWGCSczOJvB6QzOZzD/f3noS0Md3AC84BGad+H+BeHUBs97rC8/uEyvb3hdbDcbKEFn750VfgiFMzm026QMwlzhrLj43GLyyedDvUqZ66BXO3ftiO8Vw0o1Vtag3Td3y63GgZ7JwIEDqVChQkIpr169uphOG2FYYWHuR1MgugGKRvfu3SOUAwV6Z5i6OnPmzIlmMcpfCo0MGhvVSMLTH2BIQVkZFGgE0ONVDRPel7A0KK94BerahEb4HlUDAnAumOZVwx0TOI7W+16B40Dpi6kB0ioqrnrf+Lw2CkCBa1Sfiw40huqz2B/niw6996P2c/U97Nq1S1fDi2vBd6mHfv366f5OnInqnlDXe/44EdMskPaeie3atWtiuX79ulgCAgLEcuPGjYjl5s2bYgkMDBRLUFCQWOzas1hu374dsdy5c8c2fvx4m11zg51TLJkyZRIzIq5cudI2dOhQ27hx4+QVuCbkcYit2ZpmttKLS9uuh1yXUptt5IGRtiw/ZbHtvrFbSvShdxZIHBfHL7GohO1ayDUpdYBremnVS7Y88/PYTgefltLo0TMLpLrXtHPS2n4986uUOth0dZO4HmzHfnqIzSyQoY9DbT5rfGL1bBWxnQVy6fmlNppJ4rt1l9jOAvnoySPbkD1DbClnpbTV/6O+7c6jO3KLPuxKdJxmgVzvv96W4ccMtqrLq+o+N2aBzJYtm6xFj11Btx04cED89vC3Z38p2qZOnSr+/tTfpP0lJPeOHnuvyLZp0ybxefuLM9Lfdbp06Wz2BsF27969RLUwCQO70mmzN/BiQZmxnhgtCa6sCHosCNCysCjLgf3lFbFkzZpVeDzDegCP6vLly9Mvv/wizCdwZtQDxm23BmylUVVHuW2SNYKc6XNSBo8MsuYAQwGQY0ji9qPbUhp3zt07J4ZU6uepT20KO8bmFHW86wj53sC9puYSgAXhcNBh4f1fOmvSTpyD76/P1j408chEapCnAS33WU5Z02SVW62hvnd9qu1dW+Tc+DdY35ijO3M3wGQJMyaGG+yNorAAfPDBB5H8EPB3rQcV3YDPw6dh7Nix4m8f5ls4SU6ePFn8nSemhYlflG+BMqsnJB+B5Ea8+CT07NmT7t+/L15q8+bNo6NHj0Y4poCYohvgrPj7+d+Fk1eHDR0iZQAcsX+ECGerubKmKdkA83jmMd15zRnlBwEPeCQv0oLogqo5q9JT21MR428WiDQI/C9QJHCyyvs/PkC+jc4bO9O80/Oo3QvtyLeZL3mli97EaQb4np0jHszG3mmgM2eeJQKLbfgdUtZCWRg3bpxQFuBzBFMvw8QGmOnHjBkTMcTCWEu8KAk//vijcGZCHDYcSNwFL9ARlUeI8VvnBePl2D6y6kiR9KdY5mLyU8aQM11OKp2ttPABQKSDFhX3jl5nXs+8Uhp30FjASoHwSygMWhDlcOz2MeHAiAyIZoEEUlBIrHCQjC+gILT/qz2tvrya3irxFs1rOM9UhRC5IEouLklt/No858Oifkv43vUqC3qjG5Akpnfv3iLqAB7msOiB4OBgobCDJk2aCCVeD1HN3aAsCxjnTW7RDUzcgP8BlFYsrjIZMtYRL0oCiIvHMxorn/w+wmHReUEUABIcIW0wvNGN7gVCAelYpKNQEOCgqE2bu+byGhGe2KJgC8qf0bj4djgJ1spdi3bc2EG+FyN7nyNHBBrw6jmrmzYM8ODxA+GoiegRo5WuhAKUrTEHx9DGqxtFJs2Z9WeKBtpM8CyRB2Hztc209+ZeKXXge8lXyBrna+yWk6ie6AYMA/j7+9OmTZvECxjZ5RD++Pvvv9OKFSvEPnBixNCiHmKau2H69OmyxDBMYiPelITo0BvdEF90LdFVNCRIF9xsbTOa++9c6rOtD72z9R0qkKEADaowSGTNMwooRRNrTBTHfnvL29RpYyeRhhnn9FnjI/IIfFH1C9MaNVgvELUB34/4ML1bASbmWnB2gXjWQf8FUa+tvcTcHNplwK4BIhTSKPB9ja42WliAMDkYvk98rx03dKS3N78tlIiRVUaKazIS/G0hEgFj75cuXRIT2qRLly7CSx7DBe+8844YE9YDz93AMEmXBKkkwPnK3bkbrASWCgxlfFXjK+FY1nNLT6EwYAx7S6stVCRz7MZyowPHxDwRrxd5XeTzR6OlzomkQzVzGTcrmTMwhUNRQKPmkcK8IY34BJYSZJPEva69vFY01s7L8gvLnxvuiSsIe9zZeqdIw4zvE9/rxmsbRWKwXW12uf1b0jN3A4D5H74CHTp0EI7FUBgQ844w5AkTJlCGDJGdcqOD525gmKRLCoRABgW6TuEZXwwbNoyyZMlCQ4cOlRLzgZm2QIECkXI3WAHid6EUwcvcKpDdslatWhQebp6joyvgCAcnpB9++EFKzAdZPZFARW8qYqOANaxHjx7C4coqMGyAuHzEeVtJo0aNaMSIESIhGsMwSYsEaUlwd+4GhmEYJuHhKuW0AlkHMWW5Qm+6ZrPAOXFu5+t0BfbRXqeVaZKtJkEqCQzDuI/e6AajiSq6gWGiAsqBSs+cEIAyg4kHkZY5JqDMqOmukwOsJDBMEkJPdIPRxBTdwCRfELqICBqEMupJw8wkPDi6gWGYOMHRDe6jNcOrRWt6127HpFuqDBP3Tz/9FFGeNWtWxOeVmVyZvpUci5pQSLvNlfkfclfm/qiGDXDNkGEb9gFa0zvmBtF+Tpn01SRUasIj52txfj7aZ6NwdZ/Ox1HX5/x5rRzHQYQP5tcAsBJo70cL9lcWEFgdEE6snq0WdXwsro6F61Tb1XUkVDi6gWGSEHqjG4yEoxvcAw3GG2+8EdEoKdBgumoskI1W7YsJ8NKkSSPKaKRU2CocgpHCGA0eIleQylgLGjY0Zni3qlko//77b7EGaLy3bdsmytrpnhWwCChLgPoc7kM1ygEBARHTjGOtUinnz+9+vpgLFy6IPB3a54Nno22MUVYpm7WggXfVaFsJkogpJQjgPoYPHx6heOH6nIcrsD+UJ2flLCGQYOPZrly5IlI2gzJlyog1OHHihCwZK1dZ59Q5gRXnVVh5XmWl2bt3rynHj0qusPK8165dE2ucE1h13sePHRkUrTxvypQpxfz96pwAcu1+CiPlSJaEuVgYfcD8joZDO4sflAM0FBgucm4ooACgYVFZB7WNIGYxhMKhwEyTaDiVHMdCxAsUivPnHTPFItMmzoUGHg09jossnIiOwbnQ83WF+py6RigDUA4AzomZQKGEKCUCygbyb2hRMxrid4pjaZ/BxYsXxdrPz8/l9UOJQYZevKsx9TbQfh7PBcrQxIkTxZTVuBY9YD/MVKkUt+hmqMS5EKWF80BBUzN3QjkDeA6Q4xohV9eEZ4tnDHB92lkptfeIqbET2rBMglQSEN1w8ODBiIZTa1U4fvy4LBkrx3z6MB29//77UmrNeW/cuCGm1l27dq2Umn/e4sWLiz/e/v37m3L8qOQ4519//SW+W6vOi5BWTIOMewVWnRchl8hguGHDBlG36rwwXV6/fl1MsgQwFwO+b/DJJ5+YIo9NbzE5g8ZINeyqEYkONByu0hK7atDRiDkrHs6o6ZfRIGJiLzRKS5YsEQ0crAyuzgXU51SDB6UAn4HlAg0elBBlXUAjiIY6NmjvCw0tlA00oApcM64d+2EKZgU+o+5LKSzxAb4vZYnBM8CzUCgrC8DzdAYKVoLz3Yhpquj4QM9U0QzDMIkRNf2x/fX73GLvhdrsvVAxzb69wRMye69aftIB6pBjO/bTgmm5tcfTLtqpv9UxIFPnwjXFNB0z9sfn7I22uFaUMb04Po8F58dx1LVp7wPbFOo4rq5JPQOFszyq/VBW14R9gKvzAGd5VNfpClfnV9+p8zN0lqvPRrU4X2dCgKMbGIZhLAKmZZio0Zu0N0qiZ2l/DwuzeVQULux67g7IYf1UoBevfBrsDZgweWNB2RnVw0WvH+Z19L71TMeMIQewbNmyiOGJKlWqiGvBMaZNmybuDb3hqCwScUU9DwxP4P4UKKshC2e0wzhYx0cUEFDXrv3utYuyAiUkEqSSAPNShQoVZI1hGCZpoG3I1DCC1gEwLqDRUT4CyuStfA2cgTIApQANu5qmX2smjwo15AC/AaUMYLgJ72ygpgRXyoQZwKcKCg6uHT4YCuXrgW3OQx1ahQLDndrhCyvRXjuuF+D7x1AJhgqN+B0YTYJUElq2bCkWhmGYpASUAjXmDF8ENAxoONBoxBXV8AN4z+PYriIAAJQBKAUKNPyuxsid0V4/gBMf0I696z0WgM8ErlPrjBkT8DUYNGiQKKvPY1G+Hdim/BGUsoLni+eM/WJKhITtCK1UzohRAUUDlhx3whdxXSq6xPn7h8WncuXKYltCgocbGIZhLGTgwIGRhgAw1HDq1CnRyGq94N0FDT/mCkEjrViwYIEYTgAqmkGhrALAneEBpRhoe+xaBUXPseBwqL1Od4Hjp3pmCpQhU06hANeCZ6AFdefhHVyvXlM/IixcDeHoBedxviYcT0VKJDQS5ARPiCnFLHTwomYYhmGMR+VUACocj2GcYUsCwzBMMgIWBZi51VCEHodFJvnCSgLDMEwyBSZ/DFEkRDM3kzBIkMMNKrEQOy8yDMMwTPyRIJUEhmEYhmHiHx5uYBiGYRjGJQlSSfj000/FOBnDMAzDMPEHWxIYhmEYhnFJgvRJQLKJtGnTCouCkWBK2zVr1sgaUbVq1SJyn2/ZskWsgdFyyMLDw8VshFo5MOu8+/btk7VnWHXeBg0amHZ8V/KwsDAxx76V58VU0Mi17uPjI+pWnRf3itk0VRpcRUhIiAhrU/srjJLj/Op6kCEOKYCtkA8dOlSsmbihciKo7ItIJuScPEg7ayQSExmdO4HzMiROEqQloVatWqakp9y6davI2x0cHCwWTNGsFiUzQ46Um9ptSq6VGS1HnvJ79+49J49qf6PkyEfuzv5GyHGfmJpZ7/5GyHHOTZs26d7fKDmmgca5tduw3L9//zmZUfLTp0+LqahVHaiy9jqNlk+dOpXeffddUWeMxTn7olHzRzBJj2QV3fD6668LbdZVLnMzSZkypZh1LE+ePFJiPk2bNhWKgkrJagVPnjwR1hL0sK0ESmXWrFlp3bp1UmI+/v7+VKhQIXr69KmUWEP58uWpbNmytGjRIikxH1iH8IxhDbMS/IZhXWD/pLjjbEkAeDeoeRigIGjnNDDDksAkTpKdT0Lq1KlliWGYhEzu3LmpdOnSssYYhTL5a6dV/vvvv8VabXMGEzBhGEotzhMgYagCcsxmqCwU6jNqXywoaz+r9unbty/99ddfzx1fO0MiFu1EUK6OB5zl2mPgHDiXOp6anEl7f9p7YBKokoBxMXdm1tJL/fr1RY+IYRj3iI+MfDlz5pQlxkgwMyIsBdu2baOHDx+KBZZOyFxN8YwGVM2wqIBFAgqFapzVhE0YWsX0zZBPnDhRbNPOyhgVmFERliMFjv/BBx9Q48aNI82QiWNqFQJ3wTm000SjrenUqVOk+1P3wDhIkEoCxl2vXbsmawzDKOCwCAdNK4HJH74KVhMYGChLjJG88MILYr4GNeMkFpQhwzYt6FHPnz8/YoZFDCWq2RfRkCsHU+0simh41bwQmN0QsybqAcMfOL4aIvXz8xPTKjufc//+/WJ7bMD1YBgWi5rJEcdW96Zmh3T22UjOJEglAV8WvKyNBo6LBw4ckDWGYZjkByJIoGyqBhcLypBhmxY0/nBGPnz4sIg6gSleKQDOwL9BOwWzO/NCYF8cF+A8UAiAsmxop6KOC7hHXA+WfPnyCZl2gitXlpTkToJUEmBiMqu3ZIbywTBWAdOw3l49xpw//vhj8fLFWGvhwoXpf//7n9vmWjQQzvPvR4fzeRs2bEgzZswQ1+4OJ0+eZI97k8BvAaxevVosQMmcUf4GaLy1pn9XaBtZKA1QMvSAczsrKFAUcE4jcXWPUBZ4gquoSZBKQufOnalnz56yljCw2f99ceALyjovK+25uUdKjeeJ7QktOLOASiwuQalmp6J0P6ajpmub0ok7J+QexnI15CoV+rUQpZiVIsrFrHu+9OASddvUjTLMzSDOk39hfpp0dBKFhofKPcwlIDSAyiwpQ6MO6m8AY8vpu6ep9Z+tI+4V63Z/tRPPwB3Q60MYb0zAaoZe39dffx2hFFy6dImmTJkiem3IS6AX5ITQqyS4Oi/OhVBGmHfdGULInj27WBjjgQKH3wGiZLBoe/JaoKSp3AkLFiyIZPp3BuZ5rS8ZPmeFkgerhhr2ACi7snQwsSNBKglmEtvohp0BO+mbY9/ImjlAERl7aCx139ydvNN70+z6s+m9su/RjoAd1Hxdczpz94zc0zg8PTzptRdeo24luj23NMvfjDxSelB6j/SUMXVG+QljOH/vPDVZ3YSWXVhGbxZ/k35u+DPVyFWDhuwZQu9uf5fCnobJPc0Bxx+ydwidDD4pJeax88ZOqu1bmzZc3SDudeFLC8V6vf96qr6iOh0IMnYIDHkUlPMYwm59fX1F+OLGjRtF2CaUhS+//FL4/hgJjodGAuetUaMGHTt2TOSvmDNnDmXKlEmMbaOMUFk9cHSDeaCHr8IfQVS9fhUBASUCyh9QwxPO4DcHSwP2VeP9+D1YMbavrhPWKvzOGONIsEoCzExGOy/GNrohOCyYBu0ZRHfDHIlezGLTtU004fAE0YBseGUD9SjZgybXnEwz6s0Qvd6vjnwlFAkjyZY2G02pNUU00toFCko6j3SUKkUq+rrm11Q2W1n5ibiDexh3eBz5h/jTnPpzaGa9mUIpWeqzlHqX7k2/nf2N/vSP3qwZF2CpGLBzgLDYmM3D8Ic05tAYCn8aTn4t/cS9dinWRaxXNV9FIY9DhGL4+Olj+Ym4gxemsjY0adKEGjVqRKlSpRJDeF26dBHyDRs20Pnz50VZD3rMscingOMCeL6XK1dOZE5FfpI2bdoIORQWOMrpgaMbzEU7NBDVWHzVqlWF1QCNP97JGHZwjnQAWosDHBjhiwBlAZ8bPny420NNetD6KeCacG0YstBGLzBxJ8EqCW3btqVffvlF1vSDUB4jQYM27Z9pdCr4FDXJ10RKjQfnmXNqjmi0P6v8GaVJmUZuIXq54MtULns5cQ33wu5JqbnMPz2fVl1aJRq09kXaS6kx4B6uhFyhSl6VqFmBZlJKlML+D88YDeahW4ek1FiO3j5K9f6oRzNOzqAK2StIqXlAsfR/4C++v/LZy0upg6o5qlKlHJVof+B+uvnwppRGj57oBvgsnDnjsDrhpanSgUNR0Db2V65ckaXo0RvdcO7cOVkiypUrlyyRsCIUL15clPfs2SMsDHrg6AZzUQ6C0Y39I3Txu+++kzWHnwCGG9TwE/IraIcZIFdWCRXtgEZ7+fLlomwk+C0rZUSBMqIjXA2HMLEEGRcTIvZeiS179uy2GzduSEnM9O3b12Z/EdoGDx5su3PnjpQ+o0OHDrZatWrJmj52BOywef3sZRuxf4Tti/1f2LL8lMW2+8ZuuVUfdg3Xdu3aNVlzzY3QG7ZSi0vZXl3/qi3sSZiUxh4fHx+b/Y9V1tzjesh1W+nFpW155+e1nbpzSkpjJjw8HGYOWYsdk45MstFMsv146kcpiRl7b8LWvHlzWYuau4/u2ur41rGlnZPWNuHwBNvic4vFuUYeGCn30I+9Nyy+17igrqfgwoK2Kw+uSGn0vPvuu7bvv/9e1lxjf4nb7C9J8V107drVdu/ePSHH9zNs2DAhz5Mnj23//v1CbhRjx44Vx8ayYMECKXVgbzwitn399ddSGj323qFt/vz5ssYwTHyQYC0JMHNBQ9X2SGLiq6++Er0mOGfhc0jicfv2bbnVgTvRDejxDt83nAplLETvl31fmLPM4sbDG3Trv1uidw0fBIxVe8z2EI6Lbf3auu3gFhdmnZolxur7lOlDJbNak5YVZvnZp2bT6IOjqaJXRWpZoKXcYix4vnvb7qXBFQeLoZT45Pz988I6VCBjAcqUOpOURo+e6IaiRYvSyy+/LMow/2OOCfgBwIHw119/FXLEn5cpU0aUY0JvdAPSRSvsyr1wcgOPHj2K5Fj24MEDWYoejm5gmPgn0TguqpdbdMCsifEvjIPCI3vatGnk7e1NAwcOjJXzzPTj0+lg0EGaWHMi5UhnbCiOMxgnhzMdHPlarm8pGo65DeZS9xLdye+KnzCRHwoyxwSv5XrodVp4ZiEVzVyUuhXvJqXm8vHuj8lzrif13tqbvD29aWXTlWJtNJnTZKbpdaZbMswQE/iu4WNy59Ed6lCkg7g2PeiJboCijBlUEWGABrp169ZChtBiKM1DhgyhkSNH6g770hvdUKFChQhnuCVLlohrhXICRQW+CO7C0Q0ME/8kGiXh559/FlPkwmtaERAQQC1btqQWLVpEeN4iDlxFMOAFqZQFWBZgRdAb3XDk1hGa+s9UMSbfKG8jKTUf9CyHVRomnPjgzAcHNzj3Ycz6y0NfGurg5gooJGfvnRV+CIUzuY6bNprauWsLj384LWL8vsbKGrT75m65NemBMFc4Ky4+t5h88vlQr1K95BbjQM8dFgBnSxqsEJjRUa/zoDsgBh0KOSIo4HtQvXp1oZy88sorYoprd+HoBoaJfxKNkgAvWYRYYShBAfM/8nt/+OGHNGDAACFDL0s7W52yKnTt2lX0cvREN6BXj1A8r7ReNKLyCOFQZxXFMhejd0q9E+mcrQu3pjq569CuG7vo4v1nk7IYDUz+C88uFKbvtoXbSqn5tHuhXYTH//Kmy4XHf/8d/UVUSVIDFgQMYWFYpa53XVrUZJEIQzUSOPzhbwKOv1Cq9+7dK3r0mPIZwxBInoNJbpRzox70Wh1gtYCTWocOHYRlD45vmPL5hx9+kHvoh6MbGCb+STRKAsiWLRvVrl1b1hw9DVgQsCgPV8R/o7cE5QC88847wot73rx5lDmzPpMuxsa3BmylUVVHmWL2jo6c6XNSBo8MsuYAjQjkUF5uP4rcMzQSWBAOBx0Wnvils8ZPD66+d32q7V1b5IT4Nzj2E7kkRPD99dnahyYemUgN8jSg5T7LKWuarHKrPvREN+zatYtWrFghym+//baITsB05Ygw6NGjh5Cjp68y7cWEO3M3QHGvXLmyGG5AvgZ4wkOR1/oh6PUz4ugGhol/EpWSEBOrVq0Szll4USFjI+b8nz59OuXNm1ds1zN3A5wVfz//u+hVd9jQIVLmwRH7R4iQtporaxqehTCPZx7dzmtmcfzOcQr8L5Ca5m+qe4zcaJC4KXvapDcODatI542dad7pecJy4tvMl7zS6UtZ6y7aRDcZM0ZOggXFWqHXgTCuwIFRa7UoUqSILDEMk9BJUkoCejxYkFEOsb358+eXW54RU3QDGikMMWCM3HnBOD22j6w6UiQbwtCAUeRMl5NKZystMhEi0kGLyiuAXmdeT4fCYwZI5pQ6ZWqqlrOalJgDchWUXFyS2vi1ec7HQt0rrCdJRVmAgtD+r/a0+vJqeqvEWzSv4bxYK4R6ohvgE6DQRhkA1BXwF9CD3ugG+Dn07t1bJObBcAZm2gPBwcF09OhRUUZyJyRZ0gNHNzBM/JOklAREMmCO9AIFCkiJ+6CR9MnvI8bInRckw0GSI6Qrhke6kT1BKB8di3QUCgIcFLVpiddcXiMS7rQo2ILyZ3xe8TGCB48fCKdJRHEYqfy4AsfPnyE/bb62mfbe3CulDnwv+QpZ43yNLXOcNBMkyRpzcAxtvLpRZNKcWX9mnHwQ9EQ3VKlSJcLhD2Z/DC3AJwG9+blz5wo50jUj2kEPeqMbkLgJ1juEXGLmQEw/DOfh33//PWL4A06M+DvVA0c3MEz8k6SUBD3Edu4GK+haoqtoSJAuuNnaZjT337nUZ1sfemfrO1QgQwEaVGGQaU6UGC9HBAV8MMwygyvQSI6uNlrMC4HJq3CPv5z+hTpu6Ehvb35bKBEjq4wUCltiBxNzLTi7QNxL0H9B1GtrLzE3h3YZsGuACIU0CuQ/QIpcNLBQEOCsC6tBiRIlaM2aNcKh8JNPPhG+A0aCrH3du3cXx4c1D0oIIpJUHn84U8JHSG++EY5uYJj4J1kpCbGdu8EqYKXAMMZXNb4Sjns9t/QUCgPGsLe02kJFMps3lguzPxQFNOAeKfSZoeMCwh53tt4p0jDjHtFYbry2USSt2tVml6n3aiWwzmDeDTzftZfXCmXIeVl+Ybl49kaBRrhTp07C/wYhwYgwABiGgK8OIoX69eune7gB6I1uwJwN8A1CdAOUFCgMcCyGk+SECRMoQ4bITrnRwdENDBP/pEBa5qDAAFlN2sCJETPUIW+ClcCzHHNKwMRrFU2bNhVjwshjbhUwaaPh0Y6BWwEUv6xZs9K6deukxHxgVkej+/TpUymxBjTu5cuXF1MvJ3UQtoyoJVcTCjEMYw3JypKgJ7qBYRiGYRgHyc4nwZ25GxgmoaEnusFo9EY3GA1HNzBM/JPslASGSczoiW4wGr3RDUbD0Q0ME/9wdAPDMAkSjm5gmPiHoxsYhokRvdENRsLRDQwT//BwA8MkIvTM3WA07szdYCQ8dwPDJAAQAplc6NChA2LzeOElUS9jx461tW/f/jm5v7+/qfK1a9dGlNOkSWO6PHv27Lb58+fLv16GYeKDZJUnAfM5wGMa+RIYhmEYhomeZDXcgEx0dsVI1hiGYRiGiY5k55PAzlAMwzAMo49kNdzAMAzDMIx+OLqBYRiGYRiXJCslAXPcY/4GhmEYhmFiJlkpCceOHRNT1jIMwzAMEzPJzpIQH0lhGIZhGCYxkqyUBGSOe+ONN2SNYRiGYZjo4OgGhmEYhmFckiwsCU2bNqW9e/fKGsMwDMMwekgWSsKNGzfEtLMMwzAMw+gnWSgJp0+fZiWBYRiGYdwkyfskPHnyRAw11KpVS0pcg6iHmTNnypqDF198UawPHTok1goj5ZCdPXuWihUrJqXmn7dAgQLk7+8va88w+7xRYeZ5b968Sbly5RLbzDg+cCW/evUq5cuXL+K8ah/td22GPD7KCC0ODw+PkCvMlqdLl47q1KkjawzDmAE7LkquX78uXurZsmUTdS8vLypYsKAonzlzhh48eCDKRsv//fdfCgkJEZNPaeXArPOi0dy9e7e4XzOOH5UciphaW3XeTJkyUUBAANWtW9eU40clz5gxI2XNmlXMFQJ58eLFhbxChQp09OhRUTZafvfuXaEUqX1w/uDgYFG+cuUK5c+fX5SNlkMhwn2XLFlSyCtVqkSHDx8W2+7duxfxfIyUr1q1ilKlSkUnTpwQMoZhTAJKAmOzXbt2zWZvqGXNOuwve1uHDh1kzRr27t1rs79gZc06XnjhBVvfvn1lzRp8fX1tadOmlTXr8Pb2tn3yySeyZg2zZ8+22ZUTWbMOu2Jtmzx5sqxZw/jx4212ZUjWGIYxiyTvkxAYGEgNGjSQtehJmTJZpY1gmERL5cqVqXDhwrLGMIxZJPlWEaZQuzIka1ED87Cnp6esMUziRA1bMQzDGEGSVxIw/n7u3DlZYxhrKF++PL3wwguyZg0+Pj7Cyc9q4MDYrl07WbMOZ0dGhmGMJ8krCYhu+Oabb2QtauB4hX0ZxghglYLTopUUKlRILFYTX+eFcsIwjLkkeSUB4X4dOnSQteh5+PChLDGM+YwePVoMD8S09O3bV9dvExErO3bskLWYuXjxIn388cdUqlQpcR6M8f/vf/8TETfugHPqPa/zORs2bEgzZsxw+2/v+PHjIuqBYRhzYU89A7DZ/31x4AvKOi8r7bm5R0qN54ntCS04s4BKLC5BqWanonQ/pqOma5vSiTvmhoFdenCJum3qRhnmZqAUs1JQ/oX5adLRSRQaHir3MJeA0AAqs6QMjTo4SkrM4/Td09T6z9YR94p1u7/aiWfgDnv27LE8Ffg///xDzZs3l7Xo2bp1q9j366+/jlAKLl26RFOmTKFmzZrRli1bhEwPr776qrjfmHB1Tpzn3XffpT59+ggnY708evSIlQSGsYAkryRcu3aN3n77bVmLnthGN+wM2EnfHIt5SCMuQBEZe2gsdd/cnbzTe9Ps+rPpvbLv0Y6AHdR8XXM6c/eM3NNYzt87T01WN6FlF5bRm8XfpJ8b/kw1ctWgIXuG0Lvb36Wwp2FyT3PA8YfsHUIng09KiXnsvLGTavvWpg1XN4h7XfjSQrFe77+eqq+oTgeCDsg9jeGzzz4TTrXOy4ULFyKSBMGM37lzZ0qfPr2oGwFyDnz//feioc6TJw/5+vqKZEUbN24U54Oy8OWXX4rcIUaBY8FygnPWqFFD+E78999/NGfOHJHLYv78+aKsd8iPoxsYxhqShSXBz89PlqImttENwWHBNGjPILobdldKzGHTtU004fAE0WhteGUD9SjZgybXnEwz6s0QPe2vjnwlFAkjwfHGHR5H/iH+NKf+HJpZbyZ1K9GNlvospd6le9NvZ3+jP/3/lHsbDywVA3YOENYTs3kY/pDGHBpD4U/Dya+ln7jXLsW6iPWq5qso5HGIUNIeP30sP2EO6CFPnz49wnyPxrp+/fqirAeY8GMCJv+DBw+KcpMmTahRo0YiMRFChbt06SLkGzZsoPPnz4uyEezbt08cE3Ts2JHKlStHadOmpddff53atGkj5FBWLl++LMoMwyQMkryScOvWLeGXAIz2OUAjOu2faXQq+BQ1yddESo0H55lzag5lS5uNPqv8GaVJmUZuIXq54MtULns5cQ33wu5JqTHgeFdCrlAlr0rUrEAzKbU3RPZ/uF80mIdumeM8dvT2Uar3Rz2acXIGVcheQUrNA0qe/wN/8SzLZy8vpQ6q5qhKlXJUov2B++nmw5tSGj2xjW6A2f7XX38V5W7dulGrVq10NfxAb3QDMl4iSyOAYuzh4SHKUBS0FgtkV9SDnugGbYQRIo4UsCKoDJG4d3eiMzi6gWHMJ8krCUWKFKESJUqIXPelS5emMWPGuFQWYhPdsOvGLpr6z1T6oNwHVNe7rpQaT+DDQDoUdIhezPEiFcoY2Ys8e9rsdPC1g7St1TbKkiaLlBoDjreuxTra3Wa3OI+Wi/cvinX+DI4UvUYC5aTf9n50/M5xGld9HA17cZjcYh7ent50tP1R2t5qO2VOk1lKY09sohswDPDjjz8K0zzM/v3796fMmfVfi94ogxw5clDFihVFOTQ0VAw1APz+1d8GhiG084lEh57zYmhBD+6EK3N0A8OYT5JXEjJkyEC//PKLeOGhB4NxUby8YcbFC1KLO5YGNGTD9w0Xjfb7Zd/X3duLDTce3qBb/90SPXr4IGB83GO2h3BcbOvX1m2nurgAs/zsU7Np9MHRVNGrIrUs0FJuMRbc6962e2lwxcGUKkUqKY0fzt8/Lyw1BTIWoEypM0mp8cAkv2LFClFu3769sEa4g97ohqJFi9LLL78syhgC2LRpk1AQ4ESorBiwDJQpU0aUY0JPdEPZsmVlyTF1O3wvAIZXgoKCRBmouS9igqMbGMYakoVPgmL8+PFiHBQTKk2YMEEoC1AaUHeX6cen08GggzSx5kTKkS6HlJoDxubhwAfnwZbrW4rGam6DudS9RHfyu+InzPKwNJjNx7s/Js+5ntR7a2/R817ZdKVYGw168tPrTLdkmCEm8Nzh73Hn0R3qUKSDbiuDu9ENaCz/+OMPMRSAXjzG6vFbdQe90Q0YXvj0009FlAHO27p1ayFr3Lgx3b59m4YMGUIjR47U7SypJ7oBE1IpZ8wlS5bQ/v37hWICJQW+CO7C0Q0MYw3JQknAy/Ojjz6i33//PcI5ET0WWBK++uorYX4dMWKE7uiGI7eOiGEGOLY1yttISs0HvdlhlYYJx0E4EMKpDg6FGCf/8tCXpjvV1c5dW3j8w2kR4/c1Vtag3Td3y61JD4Scwllx8bnF5JPPh3qV6iW3GA+cCVXYIZwJMTRmJui9Y4ZFKAVaoKSgl260AyEiEQYOHCiGJaBQVK9eXSgmr7zyCoWFuR8hw9ENDGMNyUJJgCd1165dRc/IeVgAZs/UqVNTlixZdEU3oFeP8D+vtF40ovII4cRnFcUyF6N3Sr0T6ZytC7emOrnrCP8I5SdgFu1eaBfh8b+86XLh8d9/R38R4ZHUgAUBw0kYVoG/yaImi8jTw7y5PdCzPnLkiCijxw2HvtigZ9gL+Qg+/PBDMQyHcERYPNCrP336tBiGWL16tUjgpJwbjQIWi+XLl4vkZrg/TC09depU+uGHH+QeDMMkNJLNcEOVKlVEr0UNLcBXAU5hn3/+uehNYa0HjMdvDdhKo6qOMsXUHh050+ekDB4ZZM0BGi7IobzcfhS5V2gm9b3rU23v2iI/w7/B7mXoS+jgWfbZ2ocmHplIDfI0oOU+yylrmqxyqz7ciW5AT/rAAUcOBgw1VK1aVZTdRW90w65duyJ8H5BDpFq1asKKhiiDHj16CDl6+1AW9KB37gYoMLAAYLgBTpqnTp2iDz74IJIfgjbyISY4uoFhzCdZ+SQMGzZMjGVCOUAiG5hcBw8eLMyeeqIb4Kz4+/nfhfNehw0dREY+tYzYP0KE0dVcWdPwzIt5PPOY6jAXG9J7pH8u4iEpAKtI542dad7pecJy4tvMl7zSecmt+nEnugG/Q+Wpj6gDPREKrtATZQCUxQIgP4iW3Llzy5J+J0K953UFLHlaiwWikfTC0Q0MYz7JRknAGCtyJnzxxRfC3ArnLAwzaIkpugENI4YYMC7vvLQv0l5sH1l1pMiGiKEBo8iZLieVzlZaZD9EpIMWlcsAPd28nnml1BiQq6Dk4pLUxq/Nc/4O6rywZCQVZQEKQvu/2tPqy6vprRJv0byG8yxRzhDyqNIUo5F0brj1oje6QdugayMNAOoKlT8hJvREN+Dvr3fv3vTSSy+JoQwVWQTnw6NHj4oyfDEwNKgHjm5gGGtINkpCwYIFxYtl6NChlCbNs2RE7pA6ZWryye8jxuWdFyTgQZKjZvmbCS/42PQ+owLKR8ciHYWCAAdFbSrkNZfXiCQ/LQq2oPwZjc1ZAEUHeRA2X9tMe29G9tT3veQrZI3zNabCmRK/AxkSVo05OIY2Xt0oslrOrD8zTj4I7kQ3XL16NSIFcv78+SldunSi7C56oxsw9KYcI2H6x7XCioYe/dy5c4Ucwx6IdtCDnugGWFb8/f1FuOX69euFQgOrHpyJ1dAHhgO9vfUN4XF0A8NYQ7IabogppCy2czdYQdcSXUXjhRTFzdY2o7n/zqU+2/rQO1vfoQIZCtCgCoMMd6JEIzm62mjySOkhJpLC+X45/Qt13NCR3t78tlAiRlYZKZSnxA4myVpwdoG4l6D/gqjX1l5ingztMmDXABEKaTSIKFBAmTUb5D+AD0727NlF416rVi1hNUDSsTVr1ginwk8++UT4DxgFIoi6d+8ujo25IaCAQBnCxE4AjpTvvPOOLsdLwNENDGMNyUpJiI7Yzt1gFbBSYBjjqxpfCWfBnlt6CoUB4+ZbWm2hIpn1j+W6A8Ied7beKdIw43xoLDde2ygSSO1qs8u081oNwksxBwaGVdZeXiuUIedl+YXlwqnRaIycI0FPI4t9OnXqJJwlMTU0ogwAhiF69uxJf/75J/Xr10/3cINeMGfDqlWrRHQDFBQoDLB8wEESeUvgTMwwTMIihVeO3LagwABZTb6gN5cvXz7hdW0lcFTDSxpmX6tAZj/0HlU6XqvAeDumIbYy5A0JipCYSG9aYKNo2rSpOC96x1aBHjqIrRNhbImP8/71118iEROUC4ZhzIMtCRI90Q0Moxd3ohuMAo201QoCiK/zcnQDw5gPKwkajJ4lkmGsRG90g9HoiW4wGo5uYBhrYCWBYUzAnegGo9Ab3WA0eqIbjIajGxjGGlhJ0JCQoxsYhnkGRzcwjDVwqyhJ6NENDKMHvSGEDMMwemAlgWFMwJ25G4xC79wNRqN37gaj4bkbGMZ8OARSgox3SGSjEi5ly5aN8uZ1pDm+cuUK3b17V5SNliN8DOF5KhzRivMisQ0aE+TpN+P4UcnhGJo1a1axtuq8sBBh7BqhpmYcPzr59OnTafz48SIlMeSIAOjSpQsNHz5chKCaJUdq47Fjx4rrwbPGxE2tWrUyXY5wUwC5l5eXmHXVLDmypiIr5M6dO4WMYRhzYCVBcu3aNSpatGikGH5kpgMnTpwQa4WRcsiQTEc7sY3Z54WSgEmFnDH7vFFh5nnxvaIRxzYzjg/ckUNWvXp14dRollyh5FoZsEIOZRt/T1rMkOMZMAxjHqwkSJBEqUCBAqJHxjAMwzAM+yREom7durLEMAzDMAxbEhiGYRiGcQlbEhiGYRiGcQkrCRL4Iqxdu1bWGIZhGIZhJUFis9lE+BjDMAzDMA5YSdDA2eoYhmEY5hmsJEhgSahdu7asMQzDMAzD0Q0MwzAMw7iELQkMwzAMw7iElQTJnTt3OLqBYRiGYTSwkiCBT0LXrl1ljWEYhmEY9kmQ3L59m0qUKOFy4iMzweyTWjBrIXjw4IFYK4yUQ4ZF7QOMPD5wJYcMi9oHGHl84CyPCqvPq/ZTqP2TghxltT05lDNlyiTWDJMcYCVBcuvWLerWrRutWbNGSqyhQoUKYtpmFX6pXkSwbISEhIgyMFLuLANWnBdTYqdKlYoePXokpeaf19PTU0xnjLUZx49KjumNIcP9hoaGUoYMGcTMhX5+ftSgQQOxzQx5lSpVxPTJkD958oQ8PDyEvGrVqrRjxw5T5ClTpqSnT5+K+y5btiwdP35clM2W4/eULl06UV60aBF16tRJlM2U58yZk3799VeqUaOGkDNMkgdKAhN/2JUEW4cOHWTNGvbu3WuzN16yZh0vvPCCrW/fvrJmDb6+vjZ74yZr1pE3b17bJ598ImvWMHv2bFv27NllzTrsDadt8uTJsmYN48ePt+XObf27K1u2bLb58+fLGsMkfdgngWFMQPV8rSYsLEyWrCM8PFyWrCU+zlukSBEqXbq0rDFM0oeVBAl8EeIjuqF+/fpiYRiGYZiEBisJGrp37y5LDBM3ChQoIEvWUa5cOfrpp59kzTpmzZpFFStWlDVrqFy5Ms2YMUPWrGPo0KGyxDDJA1YSJMiT4O3tLWvWAfOw1pGPSRrkzZuXqlevLmvWULNmTWrfvr2sWQfO2bhxY1mzBh8fn3i51/Hjx8sSwyQPWEmQZMmSRSxWs3v3btqzZ4+sMUzsefz4sVisJj7OG1/3arPZ4s0Hg2HiA1YSJLly5aLt27fLGsPEjX379tHevXtlLXrg5Lhr1y7q0aMHeXl5iXDYJk2a0PLly91qkH7++Wdd1rDRo0eLc8S09O3bV4SPxkS+fPlo2rRpshY9Fy9epI8//phKlSolzlG4cGH63//+R//++6/cQx9ff/21W0M6zudt2LChGK7Qc39aLly4QGfOnJE1hkn6sJKQiLj04BJ129SNMszNQClmpaD8C/PTpKOTKDQ8VO5hPjb7vy8OfEFZ52WlPTfNs4CcvnuaWv/ZOuJesW73VzvxDKwiIDSAyiwpQ6MOjpIS/eiNboASMHnyZGrWrJnwJ0BSL7Bx40Zq166d2OaOopCQoxu2bt1KzZs3Fw28UgouXbpEU6ZMEfe/ZcsWIdNLXM6Lc7377rvUp08fCgwMFDI9cHQDk9xgJSGe0RvdcP7eeWqyugktu7CM3iz+Jv3c8GeqkasGDdkzhN7d/i6FPbWmcdgZsJO+OfaNrJnDzhs7qbZvbdpwdYO414UvLRTr9f7rqfqK6nQg6IDc0zzwPIfsHUIng09KiTkgeRd69vfv3xeN1r179+jKlSvUunVrsX3q1Kl08OBBUTaKzz77TJjNnRf0kuvUqSP2KVSoEHXu3FkkhTIC3Nf3338vGuk8efKQr6+vaOShDOFcUBa+/PLL5zKQxhUcD88X50UCJCQuQ5KkOXPmiMyJ8+fPF2UkhmIY5nlYSdBw9OhRYa6Nrxj3qEDvfdzhceQf4k9z6s+hmfVmUrcS3Wipz1LqXbo3/Xb2N/rT/0+5t3kEhwXToD2D6G7YXSkxnofhD2nMoTEU/jSc/Fr6iXvtUqyLWK9qvopCHofQ2ENj6fFT88ajYZkZsHMALTizQErcR48p/O7du7RgwQKhIKABGzRokGi4YL5/7bXXhCMivPj19nTjEt0A59np06eLbIoADbbe0Fw90Q0w9ytlB0MpjRo1EtkokTWyS5cuQr5hwwY6f/68KMeE3ugGDPvguKBjx47iGSFz5Ouvv05t2rQRcigsly9fFuWY4OgGJrnBSoIGpEhu0aIFDRs2TErizsqVK4XZWJmRndET3XAvzN67DLlClbwqUbMCzaSUKIX9X5N8TUSDeejWISk1Bygq0/6ZRqeCT4lzmgUUEP8H/lQuezkqn728lDqomqMqVcpRifYH7qebD29KqbEcvX2U6v1Rj2acnEEVsleQUvfRE92A3vORI0dEuXz58pQ7d25RBkgRDj+F1atX08svvyyl0ROX6AY4zyLdMMC5W7VqJcbu9aAnugGKkBrLR4pspHMGUBS01gpYUfSgN7rh3LlzsuTwO1JAGStevLgo495hYdADRzcwyQ1WEpzAuOWECRNkLe7gxbhu3TrRAAwcOFDMEaFFT3RDljRZaF2LdbS7zW7Knja7lDq4eP+iWOfPkF+szWLXjV009Z+p9EG5D6iud10pNR5vT2862v4obW+1nTKnySyl1gBlrN/2fnT8znEaV30cDXvROGXRFehdq4azYMGCovGMC7H1+MdQwI8//ihM8zD99+/fnzJn1v/s9Zw3R44cEdYGzDWh/Alg5lfOgxiGKFasmCjHhN57xdCCHrTKRHRgWMYdHxGGSeywkuBEtmzZZMmB6unFFpiQ0avEiwXmXAxnwMs6rrNNwiw/+9RsGn1wNFX0qkgtC7SUW4wHjefwfcOpUMZC9H7Z93X3MI3m/P3zwpJRIGMBypTanJn4YK3Z23YvDa44mFKlSCWl7qMnuiE4OFiWHJYHTCIEawCeL0zyUC7daZD0Rjc4g2tdsWKFKKN3DquGO+iJbihatGiERQTm/02bNgkFAQ6EyoIBi1uZMmVEOSb0RjdgQijFjRs3RCMPYL3T/g1ilkc9cHQDk9xgJSEa8NKGWRNm4wEDBkgp0f79+8U4ploUUcm7du0qzJt4MeGl/91334leU4cOHWLVK/l498fkOdeTem/tLXreK5uuFGuzmH58Oh0MOkgTa06kHOlySKm1wJHwqyNf0Z1Hd6hDkQ6mWBlwzOl1psdpmEGhx68Fww0KOBPCUVBZleDQ17JlS9OjG/Cb/OOPP8RwAH6TGKvHmL076Lk+DC98+umnonHHOeGYCRmGKTAUN2TIEBo5cqRbjpJ6zoshROWMuWTJEvE3CuUEior2b1QvHN3AJDdYSYgGTA17+vRp8fJCb0kLHMTUosWVHL0o7csbL0m8INFTRLy2u3M31M5dW3j8w2kR4/c1Vtag3Td3y63GcuTWETHMAOfBRnkbSam1PLE9Ec6Ki88tJp98PtSrVC+5JemAniy87GEeh/KgohvGjBnjdmigO2DIQx0f1gszG0D03A8fPvycfw4UFEz/rNd50B2QhwHDfBhGgQIGhR9/e6+88kq8hIsyTGKDlYQYyJo1q3BmxItGgTn14ZCoFkVU8qVLlwrFAKCnBJPwN998IxoGzJXvLu1eaBfh8b+86XLh8d9/R38RfWAk8PJHiKVXWi8aUXmEcJS0GlgQMNSBYRX4Qixqsog8PeI2dm8FekzhWkc6NNCIaEAvHv4JKtIBDSjCJPU0aLGJbkDPWg2poceNc7qLnugGRGh8+OGH9Msvv4hIDgzFoEcPJRzDEHDQRPImvaZ8d+ZugMKFxFSw3OH+SpYsKUJLf/jhB7mHfji6gUlusJJgMgcOHKD169dHKAdIHAMHMSRxAXqiG6Kjvnd9qu1dm87cPUP/BruXtS4m4POwNWArjao6ytThjKiAktJnax+aeGQiNcjTgJb7LKesabLKrQkbPdENUEAVUBjSpUsnaw5HP5i2gb+/v67MgO5GN+C3h98nwFADlNzYoCe6AZEayu/h7bffpmrVqgkFGREGyDQJ0NOHsqAHd+ZugI8HlAoMN8BJ89SpU/TBBx9E8kPQKmzRwdENTHKDlQST+eKLLyh16tRiLFarHCjiOndDeo/0z0U8GAGcFX8//7twkOywoYPIeqiWEftHiFDFmitrmpZ5EVaRzhs707zT84TlxLeZL3ml85Jbkwbw5EfjHBNQMPVYnPR6/Ctg/j90yBE6C0sATPKxQc95tQ7AGTNmlCUH2tBPvQ6E7t6rM3Bg1FotlEIWExzdwCQ3WEkwmVWrVokZJmFKjS2I3S+5uCS18WvzXBIhlUMBJngjlQUoHxhigO+D89K+SHuxfWTVkTS7/mwqlllf2JpeoCC0/6s9rb68mt4q8RbNa/j/9s4E7qZqffzLkJlCt1Q0o1k3RcZkbkRISlFmUVcDfxpuiKhLv+5tIFKh0kCJRFFIyFjckDFJyUwhkvM/32Wvc7fTed+zznn33ue87/t8ffbn7PWc/Z519t7HXs96pvWab9kMfmGT3cCgbMz0pOC5sx0otLRt27FaEGXLlrVKj0w0uwGl1ZQpZpCMHrxtsclucCsg7iwDoG0w9RPiYZvdQJxDp06dVN26dfX/QdIvgWtN8TTA1YOrxgbJbhByG6IkBIDtgy8jGISpgzDrp1lq4bbjB55JmyZpWb0z6qmzi5/tSLPOCXlPUA3KNtCxD9EbRY4K5C2gGpVtpDMNvJzhU7Rp4NKBauaWmboU84jaI7JFDEI0NtkNLOZEHAIQbT9ixAi1f/9+7b8niJFBHEsD6w5QdMiGRILxtmzZovsAFBG3uyMRbGbWlStXjgRFYvbHekZMAgPu6NGjtZxzTWTJaZt+Ua5w15ByidsPyx3uvXfffTfi/iCI0Va5kuwGIbchSkKKsVm7gUFywFUDVP68+VXDqQ1V5y86qzFrxqhWM1qpu2fdrZWIfpX76YE9u7Ny90o1bt04fS47ft+hOs7pqNrOanvc1nN+T50Kmd3BV05J4r59++o2WTTM5vGPjxw5UgfZkXpbvXp1/b7XEBRpIFjST6h/8Pjjj6tSpUppBaFatWpaea5QoYIOzORcuQ7EDngJsR1t27bVn0/WCEoIypBx+xFM2aFDB30vBEH4K6IkZBNIe5zXZJ4uicyaAgyWM3+aqYsbzW86X51bws6nmu5QLInVF3GrTP1hqlaGoreJGycGuvJlMtguY1y0aFGtHEydOlVbDBjMGEipmYCMwlu2lqhEsxts10mIh012A4MwKcUESrI0NBkGgBuiffv2avr06apbt27W55pIdgNrNuD2I7uBa8s15loTJEl1Ve6BLZLdIOQ28pQ++dTQju1bnaYQNMxomE0xGAQF/nJmckEHYGGqZUngZFLPkoVCQRQIsi3P6xUsHkQUv6l3IOQMyADBLYT7RBByA2JJSDFZzW4QBENWI/6TJRX9pupcJbtByG2IkiAIPmCT3eA1ya7dkFVsshu8xja7wWsku0HIbYiSIAg+YJPd4AepKDWcqpl1KvqV7AYhtyFKQoqxyW4QBEEQhFQgSoIg+EAqTOHJrN3gBTbZDV6TSHaDl0h2g5DbkOyGFEMON4vsmNQvY1XAbExQo8FLOaVvx44de9xa+0H0Sz48q/Lt3LnTkfrfLwPnhAkT9HX24/Mzkp9zzjk6u4E0RiMni4UiPkBWi19ylkB298t3JGbAb3mPHj0i14HfFsWi/JazWBSBv0bOdwG/5Fu3btXnLtkNQm4hX5EixZ7o1et/KxwKwTJ06FAdMc0DnsIvPHx4ZfEf0vbY91pOFboSJUrooj02x3slJxr9xBNPVCVLlrQ63gs5CwjxykzXj8/PSH7ttdfqc6U+gJFTE6Bhw4b6vrP6oV9ySi27++U7stiU33LqLpjrwPLoKIR+yymMRAEqI+e78J38kt911106vVUQcgtiSUgx3bt314FQ9957ryMRBEEQhPRAYhIEQRAEQYiJWBIEQRAEQYiJWBIEQRAEQYiJKAkphmWBd+zY4bQEQRAEIX0QJSHFPPHEE3p9fUEQBEFIN0RJEARBEAQhJqIkCIIgCIIQE8luEARBEAQhJmJJEARBEAQhJqIkpBjJbhAEQRDSFVESUsw///nPyGI9giAIgpBOiJIgCIIgCEJMJHAxxXTr1k1deumlqmvXro7EfxYtWqRXKTxy5IhulypVSq9yBz///LM6ePCg3vda/tNPP+mVIP/888/j5OBXv4ULF1ZbtmzRr358fkZyVg/kXFmWm9UDWTr6gQce0KsL3nHHHfp4P+Qsi71p0yYtL168uF7B0G/5TTfdpCZPnqzPfffu3XqVT/BbzvU94YQT9P7555+v1q1bp/f9lHM/+X/DfUd26qmnqi+//NJX+bRp09T999+vHnpIVusVgkeUhFwISkK1atXUpEmTHIlS5557rn5lOV43XspvuOEGvT5/mzZtHKn//aKQ3HrrrXpwc+N3vzzU69Wrp26++WbdNscZzPFeyt977z310ksvqZkzZ/ry+W7c8rp16+ollNu1a6fl5lg/90eNGqXGjx+vZsyYcZzc7/1atWrp82zfvr2WG3gfzPEGL+TPPPOMmjp1qtq6VZ7TQgpASRByFwsXLgzly5fPaQVHeLYb6tKli9MKhrAiFCpYsKDTCo4yZcqE+vbt67SCYeTIkaHwzN5pBUd4Zh8aOnSo0wqGwYMHh0qXLu20gqNIkSKhsWPHOq1gePfdd0MtWrRwWoIQLBKTkGJSld1w8sknO3uCIAiCEBtRElJMKrIbTjvttIivVfAHfPVBU6BAAdW8eXOnFRy4VIoWLeq0gqFEiRLqxhtvdFrB0bJlS5U3b7CPzSJFiqi7777baQlCsIiSkGJ++OEHtWTJEqcl5BQuvvhiVaVKFacVDMQFvPbaa04rOOizc+fOTisYCPRN1bnefvvtTisYDhw4oF599VWnJQjBIkpCiilXrpye2QcJkekSBCUIgiDEQ5SEFIO7YcCAAU4rOEKhkLMn+MHatWvVwoULnZY9ZGMQzZ4nTx69kRZnCxH/Z511ltOKz9GjR9X8+fPVPffco0qXLq37q1+/vpo4caJOw7PlvPPOU8OGDXNaseE3bs4ps61Lly6RVNLMGDJkiKpQoYLTis/333+vHnzwQXXBBRfofs4++2yd0vndd985R9hRtmxZNW7cOKeVOdF91qlTRw0fPtzq/NwsWLBAb4KQCkRJSDFlypRx9tKXTb9tUnd9fpcqOrqoyvNyHlX2jbLqX8v/pQ4cOeAc4T1r9q5RTaY3ifTJa/NPm+vvEhRbD2xVF71zkeq/tL8jsWfXrl3OXmIsW7ZMvfDCC04rcWz7RQkYOnSoatSokTZlm78jfZK4Bt6zVRSoXZAKbM91zpw5qnHjxlqRMUoBtR6effZZff6zZ8/WMhtszzVWn/SDmwTXDAHLtlx99dV6E4RUIEpCLsU2u2HDvg2q/pT6asLGCapN+Tbq9Tqvq6qnVFW9v+qtus7tqg4fPewc6R3zfpmnqk+qrmZsmaH7fKPuG/p12uZpqsr7VdSSHf7HcHBevRf2Vqv2rHIk/rN//3718ssv6wHMbz766CM9u//111/1wLVv3z71448/qiZNmuj3n3vuObV06VK97wWPPfaYtl5Fbxs3blQ1atTQx2AFad26tS585RWc14svvqgHatx61AZB+UEZoj+u9ZNPPqldcF7BZ3Ft6ZO6ICtWrNAFr7D0UIBq7Nixet8UFROEdEaUhDTguuuu0w+OoLDNbgg/xtVTXz+lNu/frEbVHqVG1Bqh7qpwl3qvwXuq04Wd1Fvr3lLTN093jvaGg0cOqoHLBqojR4+oT67/RPd5+/m369fJjSer/X/sV4OWDVJ/HP3D+QvvwULSc15PNW6tnVk5FslkN1BVkAJByWKb3bB3715tMkdBYBB7+OGH9eB1xhlnqFtuuUXPWq+44grr2W6y2Q2HDh1Szz//fMSlwmBdu3ZtvR8P2+wGTP5G2cGVQqXRfPnyqWuuuSYSgEhBJlPEKB422Q0UKzNFnlq1aqUuueQSVbBgQV3Uq2nTplqOskLQsg2S3SCkElES0oDu3burQYMGeTqzoKphVoMT9x0Ozy73/6guL325alSukSNVKk/4X/0z6uuBetnOZY7UG/Ye3qs2/7ZZXVLqEnVpqUsd6TGuPPlKdfnJl6vF2xerbQe3OVJvWb5ruar1YS01fNVwdVmpyxxp4iSa3cBgxoDJwJ0sttkNzJ6/+eYbvU9JcEr/GvgM4hSmTJmiK2TakGx2w1dffaXefPNNvU+/KBv47m2wzW7gehIfAgy2+fPn1/soCm6LBVYUG2yyG9avX+/sKXXKKac4e0orYuXLl9f7nDsWBhsku0FIJaIkpAE8jM0MxwsYBN555x11+umn6/LA0cqCbXbDiQVOVB9f97Fa0HSBKlWwlCM9xve/fq9fyxYtq1+9okyRMmp5i+Vq7s1zVYkCJRxpMKAUdZvbTX27+1v1VJWnVJ+/93He8RfM38zsmVEzi2eW6ycoJGbgPPPMM/XgGTS4AV555RX9W8Ts36NHD20d8BrcapUqVdL7DLYmzgKF3AQQYlljnQSvwLVgg1uZEIR0RZSENAG/qYGZXFbgoYsPmIf/iBEjtLJw3333Hed3xR+cDLgDRq4eqQYsHaAqla6kri93vfOO/2z4dYNavWe1KlesnCp+QnFH6i1YTRY2W6h6Veql8uVJXmlLJLuBWaXxV/fq1UtHwyeDbXbDnj17nD2lfxu4OFBOmMVjkv/444+tgxbBJrshGkzy77//vt5v0aKFtmgkgm12A9/NWERwAXz++edaQSCI0FgxcNFcdNFFej8eNtkNWJEMv/zyS+T/Gu4Vd3VVFnOyQbIbhFQiSkIaguuBhzbR159++qkjVXoVRfdmiCUnvYsUNx5MPKQIiMPnzIwt2TLQDy54UBUZXUR1mtNJz/g/aPiBfg0CAgmf/uZptfvQbtXy3Ja+WBn4zOdrPJ8lN4PBNvKeaHmCBLH+tG3b1tonnxE2/boDI1EmCRZEUQEC+q6//npfsxv4TX744YfaFcAsHl89PvtEsTlX3AuPPvqoVmLol8BMZCy+xd/37t1b9evXzzpY0uZcL7vsskgwJha9xYsXa8UEJcW9qJotPAvYBCEViJKQhhDAhomUyG/jwwT8vldddZXe3JHnseQEkrkffEZZwMTLzDGZtRuqn1pdZxoQtEjcQNUPqqoF2/yf4fwZ+lMHK769/m3V4IwGquMFHZ13sjfcD7IMKMvN/WbZ8KBN/8xmsUBgIkd5MNkNAwcOTCg1MBFwd5jPxnJx4YUX6n2/QCn++uuv/6JUoKR8++231gGEtlCDgWWdseqgfBGbgmJCoOXhw95nAwmCn4iSkKbgJvj3v/+tHzgGlIctW7bozR3ZHUtOtDZR7AbWp8c8y4DAAJDM2g3Nz2keyTSY2HCizjTo8WUPtefw/8zXXoMF4ZFFj2j3Rs0yNdX4+uNVkfzB+9ATxSa7Yd26dTpYEe69996k3QwG2+wGdzAdgzQZDczkiU8wmQ4MoCgwNoNaotkNzKxN4CQzbvpLFNvsBjI0iMsZM2aMzuTABcSsfs2aNdoNQYAmBZxMjEY8bNduQNmiKBXHc34VK1bUFiOW8k4UyW4QUokoCTmUp556Sj/MUA6wRjAYkbftVd352mVqq+plqqu1e9eq7/YkVrXOFlIRO8/prJ755hl1zWnXqIkNJqqTCpzkvJvexMtuwJRPpDwzzWbNmunUONvI/oywzW7gN2FAYShUqJDTOhbod+655+r9zZs3W1UHTCS7AaXDrFWCq+HKK6/U+4lim91AfI+JfWCgxdrG/wv+T1BpErgHKAs22GQ3APeSNFLcDQRprl69WscFueMQ3MpaZkh2g5BKREnIgWBFGD16tF4XAuWAWdMdd9zhvOvN2g2F8xf+S8aDl2CdaD2ztXptzWvagjGp0SRVulBp593sD1YeM1gyiDFgMLCYYFNDzZo1tTyR8szxIJKfAToeuKu8XvEQ0z9VJQEXi02gZVYwFguItu64Uz9tgwizAu4lt8XCKGOCkM6IkpAD4eFDtgQpVm7lwI2JuM4MagZUfLuiavpJ078ULzI1FDD9e60soCC0+LSFmvLDFNWuQjv1Wp3XfMtm8ItEshu8wja7gWNMWiC/EXe2A8rLtm3HalAQyW8TI5FIdgMKqilTzO80maJTYJvd4L4e7kwDoG0w9RPiYZPdQIxDp06dVN26dbUrA0sAcJ2XL1+u93HzUGTJBsluEFKJKAk5lGSK20RzfonzdR2EWT/NUgu3HT/gTdo0ScvqnVFPnV38f3ETWYUqjwOXDlQzt8zUpZhH1B6RLWIQookXec+CStOmTdODlntjQHHfu7lz52q5iZaPh03EP30ThwBE3GO5oCQ0/nsUDQZyLA2sPWBTuyOR7AbiZkwqLgOu29WRKDbnWrly5UhgJKZ/XAvEJKDEYW0DzpVsBxtszhXFClcN6ZbcYwZ4AocJUDWuD+IpbNdtkewGIZWIkpBLscluYHAecNUAlT9vftVwakPV+YvOasyaMarVjFbq7ll3ayWiX+V+6oS8iQdBZsTK3SvVuHXj9Gfu+H2H6jino2o7q+1xW8/5PXUqpJAcuC/wq/ft21e3SQFkRo/LY+TIkTrQrmfPnqp69er6fS9xV5QkUNJvqH/w+OOPq1KlSmkFoVq1atpqgBWCwEzOletA/IBX8H+LdFY+m4wRFBCUIaP8EUjZoUMHfR8EId0RJSEXwszJNruBtMd5TebpMsysZcAgPfOnmar7xd3V/Kbz1bklvPWrUiyJ1Rdxb0z9YapWSqK3iRsn+roCpRcka0bPCrbZDUA2AsrB1KlTtcWAAY2BlJoJyFji2NYEn0h2g+0aCfGwzW5gIL7tttt0/Ae1Q8gyANwQ7du3V9OnT9epp7bnapvdwJoNZB1xPNeV68t1JkASV0ki2SCS3SCkkjylTz41tGN71oLYhOwFdeqZUWESDRJ80CzNm0waWLJQtIdiPbalcr2CbAUe7KbugCAky3vvvafefvtt7a4QhKARS0IuxIvsBkEQBCHnI0pCLoVgOME/0jm7wWuSWbshq9hmN3iNTXaD10h2g5BKREkQBB+wibz3g1T0m+jaDV6RW85VshuEVCJKQi4lmbUbBEEQhNyFKAm5kESyG4TkSPfsBi9JdO0GL7DNbvAa2+wGL5HsBiGVSHZDLoTsBiruuQcUU6wnuvyvl3JS7liwirLABr/7JaPiiSee0OsauPG7X6oW8mAnF99A8Zz+/fvrfSryGbyWsxyxu1++I3n7fstff/31yHXgPrM0ud9yij1RHMnI+S7gt9yAnFoMJUuWdCTH8FL+xx9/6CXgSdcUhKDJV6RIsSd69XrIaQq5AcrikoaIT5flqClwQ+16lvCdN2+eLtXrh5yUS7IqUFKC6pdSuKQ/0qcfn5+RnAA3Kv1R1c/IUY4aNmyo70GvXr0icgL/YskTPd7Iub/ufikUxGJTfsv/7//+L3IdGNi4Bn7LKVL02WefReRHjx7VrjS/5bTNfWfRKipJ+iXH6kdxK7dyLQhBIZaEXEiq6iQIgiAI2QuJSRAEQRAEISaiJORS5syZ4+wJgiAIQmzE3SAIgiAIQkzEkiAIgiAIQkxESciFEEFNaqAgCIIgZIYoCbkU0q0EQRAEITNESRAEQRAEISaiJORSvvjiC2dPEARBEGIj2Q2CIAiCIMRELAmCIAiCIMRElIRciGQ3CIIgCDaIkpALyZMnj2Q3CIIgCHGRmIRcCMvOXnXVVdqiECSNGzdWq1at0qvaQc2aNfXrvn371PLly/U+eCnfu3evWrp0aaRPCKLfnTt3qh07dqjt27dHZK+99ppatmyZGjBgQOR4r+Xt2rWLfJ9zzjlHL6fst7x9+/bqlVdeicj5LuC33ICclT5POeUUR3IMP+QsilauXLmIvESJEnrfb/ncuXMj592yZUv17rvv6n0/5axw+swzz+j7LOReREnIhaAkHDp0KPD//Dz8ypcvH1ny1qzNv23bNrV27Vq9D17KOdcnnnhCtW3b1pEG0y/LGp966qnqzDPPjMj4DgzuM2bMiBzvpZzlk1944QV1++23azkDzKWXXqqPf/311yPf02v5yy+/rM4++2x1+eWXaznfBXBpbdiwIXK8l/Jp06ap1atXq3/84x9ajjLIb8uNH/L+/furBg0a6FVUkRuF4uuvv9bnD17LJ02apJYsWaL7BpaSRgGFL7/8MnKdvJZ37dpV9835CrkYlARBCIKwUhLq0qWL0wqG8EMuVLBgQacVHGXKlAn17dvXaQXDyJEjQ8WKFXNawVGyZMnQ0KFDnVYwDB48OFS6dGmnFRxFihQJjR071mkFw0MPPRQ644wznFZwhJWz0Lx585yWkFuRmAQhME477TRnTxCEdCd//vwqrIg5LSG3IkpCLgQTPCbcoKFPY9IU/IEYgaDBrZIKUtFv2bJlnb1gMe6IIHnwwQedPSE3I0pCLgR/Y6oedrmFqlWrqipVqjitYOjQoYP20wcNwagPPPCA0wqG3r17q2+//dZpBcd3332n2rRp47SCgeBBgm+Dhn7z5pUhIrcjv4BcCJH+pEEGzbx583SAlCAIgpA9ECUhF3LBBRfoiP9QKORIgiHo/lIJ1pr//ve/Titzvv/+e23a5b6gvPE6ePDgSPqkLaNGjVI33XST00qMP//8U88c6Z8tEWWOPsnmsOHo0aNq/vz56p577tH+bvqqX7++mjhxojpy5IhzVHyGDh1qda6kiZpzymzr0qWLOnjwoPNXGUOf48aNc1qZE31fyQDB4oI1IhH69euX0H2N7rdOnTpq+PDhVufnhuyKjRs3Oi0htyJKQi6EB8e1116rX9OVNXvXqCbTm6iio4uqPC/n0a/NP22uNv22yTnCf7Ye2Koueuci1X/psdSzRFi/fr06cOCA08qY2bNn64f4sGHDIoMHr3369NEDA6b8RJg1a5azlxikVJI+mQwoFAz+8UAJYHBv1KiRevXVV9WuXbu0fObMmap58+b6PVtFgeNQNoLms88+c/YyZ86cObouiPu+btq0ST377LP6/LnvtlCvgPtjQ6x+6Yt0xs6dOyekeJIKWaxYMacl5FZESRACwza7Yd4v81T1SdXVjC0zVJvybdQbdd/Qr9M2T1NV3q+iluxY4hzpH4ePHla9F/ZWq/YkNkgnwu7du9Vzzz2nBw9iGL755hs9+JGbzrX66quv9PuJzgATZf/+/brWAd/DTz766CM9s//111/1oEWxoB9//FE1adJEv8+5eu17f+yxx7QFK3pjhmyCaM866yzVunVrVbhwYd3OKpzXiy++qAdp7iP3k/uKMkRfXOcnn3xS/fzzz85feAOfx/WlX35PK1as0EWgsDAVL15cjR07Vu9jNbJBshsEECUhl/LOO+9oM2+Q2GQ3HDxyUA1cNlAdOXpEfXL9J2pErRHq9vNv16+TG09W+//YrwYtG6T+OPqH8xfec+DIAdVzXk81bq2dWTlZUBIqVKigatWqpQepyy67TOXLl09fI/aBBz1mX1uSyW6YPHmyGj9+vNNKHJssA4oRYaZHQWAAe/jhh/XAxfe95ZZb1NVXX62uuOKKhGa6yWY3UEjs+eefj7hUGLBr166t9+NhE/CLud8oO/wfw2rHfb3mmmt0oSugEBYFomyxyW5YtGiR/lxo1aqVuuSSS1TBggXVrbfeqpo2barlKCw//PCD3o+HZDcIIEpCLoUHx9atW9WHH37oSLIOJmdmw1lh7+G9avNvm9UlpS5Rl5a61JEe48qTr1SXn3y5Wrx9sdp20H7gTITlu5arWh/WUsNXDVeXlTo2UCeDTXYDShOxB5iI77//fkd67Dqa2V6BAgWOKymdGclkNzCgMWAyeCeLTXYDs2fz26BKo3uAv+uuu7TrYMqUKeqGG25wpJmTlewGLDRvvvmm3qfvm2++2dr1xiw9XnYD15LKkFCkSBE9IwcUBbe1AiuKDbbZDbi4DG6lAmXMVJHk3FE8bZDsBgHkF5CLGTRokOrWrZvTyjrMgP/+979r32esgCeb7IYyRcqo5S2Wq7k3z1UlChyrWx8U+w7vU93mdlPf7v5WPVXlKdXn732cd4ID18LIkSMjM8Lrr7/et3oAmMCZ3XNPmMkz0/ULlBEzcFKqmsEzFeAKYB0ITPOY/nv06KHLS3sJvvxKlSrpfeJSTJwFip9xHeGGMOXJvQLXgg1uZUIQ4iFKQi6GGZTtbMYG6voza+KVmUu0soAvOCts+HWDWr1ntSpXrJwqfkJxR+otl5e+XC1stlD1qtRL5cuTz5EmTiLZDQasOgyejzzyiCpVqpSe4d933316BmpDotkNzCqNv7pXr146Gj4Z6DNedsOePXucPaVOP/107d5AMWEGj0n+448/jgymNthmN0SDSf7999/X+y1atNBWjUSgz3jZDeedd17EIoKy9/nnn2sFgQBCY8EgUPOiiy7S+/GwzW64+OKLnT2lfvnll8j/N9wrZo0GIBDSBsluEECUBEGDmZqoaAK9ki3Ig3/9jjvu0Ps8FI2y0KlTJz2TzAoEEj79zdNq96HdquW5LX2xMvCZz9d4PktuBoNtdoMbdyAbkf/M8G39xwbb7AZ30CQLN9n65GNhk93gDorkN0YMBkoKENCHxcTv7AYGSxQx3AHM5HG54bNPBJvsBhTlRx99VGcY0CeBmcjq1aun7yuuEgZ+20BJ2+wG4lhMzA8xR4sXL9b/D1FUiEVIFMluEECUBEHDLJKHJrNfHmAGVp8juIztyiuvdKQZy3kQGh8sD0geUiwxzAPMNrshmj9Df+pgxbfXv60anNFAdbygo/NOzoLBmsF25cqVOtjtrbfeUnfeeWfETO8VzDDJNGA5YMziuJyCNP8z6GHBwDyO8mCyGwYOHJhQamCioKiaz8d6ceGFF+p9P2DmzoqOJs3TgIJCLEWiyp8N1GF46KGHtBsFBYyYGP4v3njjjerw4cPOUfbwt5LdIIiSIESgwA2mWAYnAwM7Jlo2d5BjRvKFCxfqJYsNmLIxq5KDn8zaDVgQHln0iBqwdICqWaamGl9/vCqSPzX+bL8pVKiQNr8zeHXv3l3LeNgT0GcLSls81q1bp10ZcO+99ybtZjDYxEy4A+kYoMloYBZPfILJdGAARXmxHdASjdVgZm2CJ/kd0mei2GQ3kKFBIOqYMWN0ACv/J1CW16xZo90Q3E+KNyWi/Nmu3YDCRWGqli1b6vOrWLGithi99NJLzhH2SHaDoJGlogWv2LNnT6hAgQI4QkPhB1QoPEvVSzUb2rRpk9Ayu/v/2B9q93m7UN6X84aunXxtaMfBHc479tB/sktFv7fhvZAaoUL9lvRzJPaEH9ahDz74wGklzty5c/V1ZOvcuXPowIEDzjtZI6zA6SWs+dxmzZqFtm3bpuV8Pv2YPunfS8aPH5/h+axevVr/VnivRYsW+nfkNYcOHQr17NlT9xFWcENhhcF5x3v4zZlzHT58uCM9xoQJEyLvDRs2zJH6z7hx4zL8Thlx/vnnh8KKjNMScitiSRA8w6SGYcImuAtzK8GRhkTWbthzeI9qPbO1em3Na6r5Oc3VpEaTVOlCudP0iSvANngxHtQrwFUEWI2YoWK9oI8RI0ZoOdSsWVPLbe9XPIjkt3E34af3I+0O87/x6/P7xCTvF+404Gifvtv6YRtAmFXCz/njrBapWAFWyL6IkiB4xn/+8x8d5R6tHBh4WNmAgtDi0xZqyg9TVLsK7dRrdV7zLZvBL2yyG4jwp0QvRYTcAzS4g0eJWqdeQjwSzW7wCpvsBgZlBmcgqNOd7YDiYgpGYc63iY9INLuBoFBTpphBMtmAPJvsBrcC4s4yANoGE7sTD9vsBuIcCBKuW7eudmeYwFmu9fLly/U+rh6KLNkg2Q0CiJIgeAaBU5TbzQqh8L+BSweqmVtm6lLMI2qPyJYxCDbZDcyuGbiY4bKWAfEdBC7yQKdWAuA7JxjUlnjZDQSiTZs2TQ9c7o3vSsqqYe7cuVpuE0Nik91Av8QhANH2KEWUg8Z/j3LDII6lgQwbG6tJotkNW7ZsiWSPoIgQ/5EMNtkNlStXjgRFkmVAXAkxCczmR48ereWcq+19tc1uQLnavHmzTrnkHi9YsEAHDxOgatI+CWIsU6aM3o+HZDcIIEqCEBg25uaVu1eqcevGqRPynqB2/L5DdZzTUbWd1fa4ref8njoVMrvDYEJBKwLMTDQ6AyQzbtq8UvUO5Su7g+uCksR9+/bVbWbHDEC4O1CIuAY9e/ZU1atX1+97jbuiJMGSfkKg7uOPP65rXXAfq1Wrpq0GpAgTmMm5ch2wIHkJgzoZMnw+WSMoIShDRvkjmJKqnNwLGyS7QQBREoTAsMluoFgSqy+yNsPUH6aqMWvG/GWbuHGiXl8hu8PDmnoBX3zxhS6aRCQ68MpCPVOnTtUDTCLYZDd4jW2WQdGiRbVywHlhMWAwYyDlGiAjmt7WBA+JZDcksk5CZthkN3Bfb7vtNh37Qblqc19xQ7Rv315Nnz5dp50mcq622Q2s2cBaHGQ3cG25xlxrMiqGDBmi74Etkt0gQB6yG3Zs3+o0BcE/yPnHBx+v9r2XkJ5J/QfbkrVewYI6d999d6QGgCBkNyiERiVMr8tHC9kLsSQIgZFIdoMgCIKQekRJEAKDQLjcQjJrN2SVdM5u8Jpk127IKjbZDV5jm93gNZLdIIAoCYLgA8ms3eAFtms3eIlNdoPXJLN2gxfYZDd4jW12g9dIdoMAoiQIgWGT3SAIQnog2Q0CiJIgBEYyazcIiZHO2Q1ek4p+bbIb/MA2u8FLJLtBAMluEAKDNfRZ8Mase2/Kw1KFjsI6Bi/lFLAhHYxFbwxB9NunTx9dddI9kCGnyM6PP/54XOler+W4HNzfh0WFICfKV61addz1N9cgSDlphdxnv+UGI+e7uPFaTpomy3hLdkMuRxZ4EoKiXLlyofz58+sFl9jCD0O9sZCMkXktDz8A9aJT0fJEPycZ+SuvvBIqXLhwRD5//nx9HTZv3uyrnH6NrHjx4loGfssrVqwYkXPdDX7KWTDMXP8TTzxRX/cg5Lwaefny5QORv/jiixF5yZIl9b6f8po1a8oCT0JILAlCYKSiToIgCIKQPBKTIAQGlejCiqnTEgRBENIdURKEwMCHbLOaoSAIgpAeiLtBEARBEISYiCVBEARBEISYiJIgBAbL2I4ZM8ZpCYIgCOmOKAlCYEjgoiAIQvZClARBEARBEGIiSoIQGNddd50qVKiQ0xIEQRDSHcluEARBEAQhJmJJEARBEAQhJqIkCIFxzz33qFdffdVpCYIgCOmOKAmCIAiCIMREYhKEwMCSUKtWLXX33Xc7Ev9hyd1//vOfTkupYsWKqSuuuELvz5kzR7+C13KWcZ47d646/fTTtZxlslu1aqWWLVumnnrqKS0Dr+XPP/985Pv87W9/U7Vr1/ZdzjmyZLWRI+M9v+Xbt2/XbeRly5bVSx77Lf/hhx/UmWeeGZHzXcBv+dKlSyO/t59++klfE/BTvnjxYpU3b96I3OC3/KabblJnnXWW0xJSTb4iRYo90avXQ05TEPzj999/VyeccIK65JJLHIn/LFy4UCsJPIx27typZdRqYJ8HI69+yHkA8sBnXX7kKEec99atW9Urr7wSOd5L+Y4dO9SLL76oFRRknPOll16qjx87dmzke3otnzlzplq0aJFav369lqMoMdAVL15cD3TmeC/lnOunn36q8uXLp+X58+dXhw4d0sejQHGcH/Jvv/1WD6KHDx/Wcr4Lx/C75p6Y472Uz58/X61cuVKVKFFCy3/++Wd14MABvb9p06bI79BrOUouv1/WW0FuNo797bffIsd7KX/33XfV+++/rzp16qT/LwlpAJYEQcipTJkyRa/JHzRlypQJ9e3b12kFw8iRI0PhQcVpBUfJkiVDQ4cOdVrBMHjw4FDp0qWdVnAUKVIkFFaUnFYwPPTQQ6EzzjjDaQVHWDkITZ8+3WkFw/333x+qV6+e0xLSAYlJEHI84Qe7sycIQjpTqVIlbcUR0gdREoTA6NChgzaRBwl+5PCs3mnlfFKhEBUuXNjZC5ZUFOZKlcKJGyJoUnVfcSEJ6YMoCUJg4EfGD5kbqFq1qqpSpYrTCgaUsF9++cVpBceWLVvUAw884LSCoXfv3jr2ImgIZmzTpo3TCoZnnnlGbdy40WkFx549e1TDhg2dVnD8+eefzp6QDoiSIAQGAVAELwbJhg0b1O7du52WIAiCkAiiJAiBQTrXRRdd5LSCIxVKArMhouHjcfToUR293rFjR3XBBRfolTLPPvtsbRUg7S8Usl81c9asWTq7wZbvv/9ePfjgg5F+eR08eHAk9c8W+pw+fbrTsodrxCyZvtm+/PJL5534TJkyJaFzNdeZNNzSpUvr/urXr68mTpyojhw54hwVH/qM9z0HDBgQOafMti5duqiDBw86f5Uxb7zxRpbuK78nLD3fffedc4Qd9Ll8+XKnlTnRfdapU0cNHz7c6vzckFGxZs0apyWkBZLdIORkspLd8PP+n0MXvn1hqN+Sfo7EHpvshj/++ENH6Yf/G8bczjrrrNCECRNC4QHO+YvMSSS7IaxQ6M+P1W/VqlVDK1eudI6MT7LZDYsWLTruO4QHCOed+CSS3cB1fvrpp0PFixc/7jzNxmdxjA022Q39+/eP2U/01rlz59CBAwecv8qYRLIbZs+eHapYsWLM/rjW3HdbbLMbMuvzzjvvDG3bts05Mj6S3ZB+iCVByPEkE2x2+Ohh1Xthb7VqzypH4j3kwT/33HN6/4YbbtAzKGa81BugTfzGsGHDPI/jwLJCv3wusRNYLJhNT5o0SZ122mnqq6++0u8nOgtMBPLvX3755UBiVD766CM9u//1119V165d1b59+3Q8Q5MmTfT7nCv3wisee+wxbQGK3ogrqFGjhj6GYkGtW7f2NDiQ82L2j8WA+8j95L5Sx4L+uNZPPvmkroPgFXwW15Y++S2tWLFCuxRHjRql61tQV4N92zgDyW5IP0RJEALlnHPOUV9//bXT8p9kshsOHDmges7rqcatHedI/IECORdffLF+gN96662qfPny2lTLd6YNmLYZtG2xUYhQEipUqKALMDFQXXbZZTqinAGMfeBhH54B6v14JDPQTZ48WY0fP95pJYdNdsPevXvVuHHjtILAIPbwww/rwSs8M1e33HKLuvrqq3XFP1sXS7LZDbieqFZpXBUM1qaaog022Q2Y/I2ygyvl2muv1ff1mmuuUbfffruWz5gxQ8fp2GBzXymixWcCFTkpuFWwYEH9+23atKmWo6xQWMwWyW5IL0RJEAKlffv26tlnn3Va3uClD3P5ruWq1oe11PBVw9VlpY4NmMlgk93Qrl07XTWQh/tdd93lSI/hflDanp9tdgNKCLEHVDG8//77Hekxv72Z8RFkapt2l2h2A+fLgMnAnSy22Q3MnrGUANUhTz31VL0PXHPiFIhvwHJjQ7LZDSh6b775pt6n35tvvlkrhDbYZjdwPdeuXav3UWaoEgn8ltwDvm1WiE12A1YvwymnnOLsKa2IofQC547SaYtkN6QXoiQIgfLII4/oksVerQbJIMvsl/UgYg2miWQ37Du8T3Wb2019u/tb9VSVp1Sfv/dx3gkWTMRYGQzuh69f4FoYOXJkZFZ4/fXXHzegegXnxsyeGTWzeGa5foJCYgZOzNjJWgKyAm4A6oNgmsdq1KNHD11i2WtOPvlkba4HyiqbgEwGXeM6wg1x/vnn630vsM1WcisTQvZClAQhUJg9Uf+eQd0LGjRooK688ko98DBTJHo9WllIJLvh8tKXq4XNFqpelXqpfHmSN3vyYLbJbogFAygR7cCMzPahnmh2g+HDDz/UgycKXKlSpfQs/7777rM2+9KnbXYDs0rjr+7Vq5eOhk8G2+wGZsMGFi3CxYFywu8Qk/zHH38cGUxtoM942Q3RYJJnPQJo0aKF/p0mgm12w3nnnRexiKDsff755/p3OHv27IgVg4XAbDOM6DNedgPuMgNWLGIvgN8+dVEMrNFgg2Q3pCGS3SCkkkcffVRHnu/fv9+RJM4nn3wSOumkk3Q0daFChXRUdrt27ULfffddlrIb3tvwXkiNUL5lN8RixYoVOruAc2Fr1qxZaNeuXc67mZPs2g3Dhw+P9MfWunXrUPhB7bwbH9vsBs6jZcuWuo/u3buHwoOIjvA3/fqR3eDONAjPoiP77s3r7AY34Zl2KKxw6X7oP6wkOe/Yk0h2A9kSw4YNC4WVvePOMayUhXr37h3auXOnc2R8bLIbNm7cGKpRo4bug9/twoULQ2GlS/+/I5vC9M99sEGyG9IPsSQIKYWZCNHX4YFGLVmyxJEqHfRkNma6hlhyrAlm1ov5kxX6mDEyYyIPPhUm5mT473//q+MKTKAis+22bdvqa+Mn9EE8Ai4Ogt3eeustdeedd0bM9F4QftboLANW+cMk3q1bt8DvC7NZrBj8RohVMNkNAwcO1LNtP8DdYT4by8WFF16o9/2C2TuBwWGFzJEcg3gFLHiJBBDaQA2GsBKj3Sj8bonDIRbixhtv1P8PE0WyG9IPURKElHLbbbepadOmafMkkdEG3BFmc5ORPPqBRIQ10fpE8GeHtRtWrVp1nIIAmP9tA+oMyQy8ZAlgfmcAC8/wtYzvgUnfBpso+HXr1mk3Btx7771Juxnc2GQ3uOM5GKTJaOC3wUBkMh0YQFFgbAa1RK8v8TcmcJLfI/0lg00QKUGVBKKOGTNGB86yTDruBsz3/I64nxRwslX+bLNWULZQxlu2bKnPr2LFijqt9KWXXnKOSAzJbkgzxN0gZHeeffZZbQYO/5xDJ554Yqhu3bqhmTNn6vcoChQe/PR+omTF3RB+cIY++OADp5U5fEe3iwHT8JAhQ7SpOmgw+ZvvYVvsJx6Y8nG98Jm4T0xxHT47WXeDLePHj8/wfFavXh0Kz1z1ey1atAjt2bPHeccbwopvqGfPnvrzcTWEFQbnHX+YNGlS5FxxIbmhKJd5D3dEEIwbNy7D75MRo0ePDoUnAE5LSAfEkiBkex599FE9Ew4rB3pGg/uCfUj3tRsI9urTp0/EgkDgIOVsMeEy400lzJq9mNVRq8C4kgjgY3bP/eLzR4wYoeVQs2ZNLU80MDAzCPokoj8ezJrz5vX2cYjpf9myZXofMzomeT8xFgsoVqyYs3cMd6aKbRBhVgiPLcdZLEi7FbInoiQI2Rp86RRoIj7BrRy4SYWSYJPdQFQ9aYcUmwEGEbI0KHCUzIBlm91AvEajRo10ESH3IA3h2bWzdyxehHoJ8aDPZNZuyAq22Q1cU5MWSBqeO9sB5cUUjCpbtqyVK4E+bZUYUh7NegkMktEDty222Q1uJcSdaQDu+hmmfkI86DNedgMxDp06ddL/73BlkHoJXGfzt7h53K7EzJDshvRDlAQhW8NgSqGWWMpBKnH7ojOCADMC6QBf7qBBg1Tjxo31bDoZ8PtTZCgezK4ZvJjlUq+CFD2ULR7qKC2A/7xevXp6Px5YcgiKywgWVCLuhEHLvTGgdO7c2Tnq2ACBnL7jQX+PP/6408oY+iYOAUgLRCmiJDT+e649AzmWBq67jdWEOAbbZZspMmVKIKOE2MRQxILfCb+NeFSuXDkSGPnOO+9o6xTKKjP60aNHaznnantfe/bsqbZu3eq0YoNitXnzZp1uyT1esGCBVo4JUDVpnwQx2sYF8f8g2esk+IMoCUKOx2aGmAq++OKLyNoFBM/dcccdWulBSXBv1Mb3EgYTBh0eyCYinQGSGTdtXqnyR+R6dofrR0nivn376na/fv30jB6XBwoR14DBsHr16vp9L3FXlAwiYp9sHhQnXFbcx2rVqmmrASW4CczkXLkOWJC8ggJOZMfw2fyWUUAY5I3yRyAlAbncBxv47Ul2Q3ohSoKQo0lm7YYgYBbtrqroFTYKEQ9sXBooKRRNIhodeEUhmTp1qh5gbLGNgvca2xln0aJFtXLAeWExYEBjIOUaIGOJY1sTfCIKp+0aCTbYZDdwX8kWIv6DMtnmvuKGoBw6LiFST23P1fa+smYDa3GQ3cB15fpynXEJDRkyRF//RJDshvQiD9kNO7ZnblIShOwKqYVUmfNjQM4M6jiQpmly8QVBiA/uL5RX4x4RUo9YEoQcTbpnNwiCIKQzoiQIOZ50zW7wmmTXbsgq9Jmu2Q1eQ59epmjaYJvd4DX0GS+7wWskuyH9ECVBEHzAJrvBa2yzG7wmXnaDH9hmN3hNItkNXmGb3eA1NtkNXkM8g2Q3pBeiJAg5nnTNbhAE4XgkuyH9ECVByNGka3aDX6RCIUr37AYvSZXCaZPd4DWpuq+S3ZBeSHaDkKOR7AZByD5IdkP6IZYEIceDr54iRWzMjkqUKKE3Sg77Jf/ss8/Uv//9b52TbuRUo4N27dr5KqegDTI2d+Ecv+UsaW3kbh+6n3LKWJvrz+vrr78eiLxcuXIROX70IOSsqmh+b2zsByE/6aSTInK+i5/yROo4CMEglgQhR0PVu+gFbUwN/VTIeThGfyev5aYUsMEscJQT5X5fy3SSG4zcLYOcJOcaCOmBKAmCIAiCIMRE3A2CIAiCIMRElARBEARBEGIiSoIgCIIgCDERJUEQBEEQhJiIkiAIgiAIQkxESRAEQRAEISaiJAiCIAiCEBNREgRBEARBiIkoCYIgCIIgxESUBEEQBEEQYiJKgiAIgiAIMRElQRAEQRCEmIiSIAiCIAhCTERJEARBEAQhJqIkCIIgCIIQE1ESBEEQBEGIiSgJgiAIgiDERJQEQRAEQRBiIkqCIAiCIAgxESVBEARBEISYiJIgCIIgCEJMREkQBEEQBCEmoiQIgiAIghATURIEQRAEQYiJKAmCIOQIDh48qLp06aLy5Mlz3PbGG284R/jDl19+qRo3bqx27tzpSLIO35nv7vXnCkKiiJIgCEK257vvvlPVqlVTI0aMcCT/o02bNmrAgAFOy1sYzGvWrOm0BCHnkaf0yaeGdmzf6jT/ynXXXefsBceGDRv067nnnqtfg+DIkSPqhx9+CLRP4Fzz58+vzjzzTEfiP7///rv66aefUnKuhQoVUqeffroj8Z/ffvtNbdu2LSXnWrRoUXXqqac6kuD4+OOPnb3cA0rA448/7rRiM3fuXFWjRg2n5Q0oCSghjRo10vulS5d23skafn2uICRKXCUBk9fVV1/ttIKBwZqBM8jB5M8//1SLFi0K/FwZTIoUKaLKlCnjSPzn8OHDatmyZapq1aqOJBhWrVql/va3v6mTTz7ZkfgPJuj//ve/6qqrrnIkwbBixQpVtmxZVbJkSUcSDJzrr7/+6rRyB9zjnj17aitC586d1bPPPqsKFy6s38PC0KpVK/XNN9+o/v37q8cee0zLDdHKRfTfY+q/44471PTp0/XnL126VL9eeuml6qKLLlJvv/22Ps7g/nt335DRgB993Lhx4/SrKAlCWoCSkBnhQ5y94AgP1KHGjRs7rWD48ccfQ2GFyGkFx2WXXRZq2bKl0wqGhQsXhvLly+e0guOcc84JdenSxWkFw6RJk0IFCxZ0WsERVvpCffv2dVrBMHLkyFCxYsWcVu7hwIEDofDgrJ9VbHPnznXeyZgdO3aEwgNw5G/cW6VKlUKrV6/O9Lj27dvrLVrO9+D78B2i32NzfzZkdJzZ6JvvIAipQmISBEHI1jBrv/POO52W0jECJmgxo1iEF198UVsHwoO2Cg/azIRUeDDWM3dm9FgDsFC4cR87atQovZlZP3/H3w8fPlyFlYRIv1gvOB4ZVgY++5133tHv8fljx47V++bvORa3iCCkC6IkCIKQ7SHWwAzYbnAloCyQ9WAGfVwIZCTAww8/rCpWrKj3Mekbd8SCBQu029NN8+bNI8dmBoqEUUBuvfVWLXMrMvTNd+Dz6Qd4z7gUOBeUC0FIB0RJEAQhR0DsQEYzceII/vWvf+l9Zuxbtx6Lwzr77LP1q4F4GQZ3Zvwc58Y2+PX777/Xr3zGBRdcELFqmCwI+o7+7OjvEXSgrSBkhCgJgiDkKJiJoyy4zfxgZvCCINjjm5IwceLEiAZtTHtec/ToUTV//nzVsWPHiMaORt6hQwetxfOQ8AtmCw8++GCkX14HDx6stm/f7hzhL2RjPPPMM75fYzDX+Z577tEmUfqrX7++vsekjnoJvlxzTpltbvOxl0TfV35PDzzwgI5A94voPuvUqaN9236cX06E3775XZAJ4AYz/xlnnKH3zQwea4HJJjKzfgPv8+zAmpBsFo6xCrhjGNzb119//Re3RfT3MGnggpBy/MhuWLlyZahq1aqRCF2baGM3NtkNf/zxRyg8KEf6iN7OOuus0IQJE0LhAc75i8xJJLth1qxZ+vNj9ct5c/62JJvdsGjRouO+QyLXOJHsBq7z008/HSpevPhx52k27gHH2GCT3dC/f/+Y/URvJoo8HolkN8yePTsUfnjH7I9rzX23xTa7IbM+77zzztC2bducI+OTW7MbwgN7hpkK7s39mzG/s/BAHjOTwRzrlo0bN04f5wYZ73EMx4L7b+jHYPo0n83GPjL393BnPLg/VxBSgedKwqpVq0INGzaM/MjZ/FASvvrqq9Bpp52mP/+GG24IrVmzRisE69ev123kNWrUCG3cuNH5i8yxVRJ27doVatasmf58FILwrCMUnk3rwch8H9sBDJJREn777bdQx44ddV9m80tJ+OCDDyIKQteuXUP79u3T16pJkyZaxjlzL2zISgok95H7SZ+JDNi2SsLevXtDrVq1ipwTf8d9nTlzZkQZq1+/fuinn35y/iJzbJQEPovP5LP5La1YsSL0+++/h0aNGhW55oMGDdLfw4bcqiSAe2DNaHP/H3EP5NFbRgN+LCUhul/zf98oD7E29/eI971FSRBSjWfuhvDgodOG8Ad+8sknjtQ/wrN1dfHFF6vwA1xHEJcvX16bGwn4MRHFmCHDA5je94rdu3erChUqqFq1aqnWrVur8CCvwgOuPm/2gUI6VPnzi8mTJ6vx48c7Lf8ID5w6YpziPBReIhI8PHhp8+0tt9yiC09dccUVvrtYDh06pJ5//vmIS+XJJ59UtWvX1vtegbmXQjmAK+Xaa6/V9/Waa65Rt99+u5bPmDHDUzMwxbv4TKCYziWXXKLCCo3+/TZt2lTLw8rKX6Lshb/C/7/w4ByJP3CDjPc4xoDbbNq0aX/JIuDY999/37p4Eb9/d5/8juiLIEpcDbgcDMb94P4e7Ecfx3fi/50gpAVeWBLQnNGgOZYtPGCHwgN4pO3WnG3IajEltxbvNvdlRlaLKWEWNrPCOnXqhLZs2eK8kzmJWhLcM2r3lsg1trUkYCXhXvL5HTp0CO3fv995JzmStSRgkjdWmrvuukvP+m2xtSS4Z3T8lvlNG4yZmC2snDnSzLGxJAwbNizyudGzVHefnIMNNpaEnTt3OnuCIAjx8TxwsVmzZnr2k6pFTwikw8pgOOWUU5w9/yDALPyAjswKr7/+el9q9nNuzDCYUTOLZ5brJ8yK1q5dq/dZW4Ly0UGDheqVV15RP//8s7Ya9ejRQ5UoUcJ51ztM6hswE+RaAwGiJoAwrKio888/X+97AWto2LB+/XpnL3ko2kOZcxZBEgRBsMUzJYGH7Hvvvafeeuutv+T8BgkDqIlwxjTu5UM9Fh9++KEePB955BFVqlQpbRa/7777tKnaa3CdUOWN8+rVq5eOhveTPXv2OHtKDzC4OFBOcOtgkmchITOY+gUmecy/0KJFC10z3w/OO+88dcMNN+h9lL3PP/9cKwizZ89Wb775ppZTTId6/V6Bu8zwyy+/6Mh3wL2yw5VHzyJVyYJygCvu/vvv1wpXvEWQBEEQ3HiiJJBmhJ+Yhyg+1VTB4ja9e/dWmzZt0m0GMnyGfsIM17Br1y6tpPjhQyYW4rnnntPn1rZtW8998rEw1xGoREcMhonxmDlzpraYDB061DdFgcESJYyYCGbx+Or9+n2xoNijjz6qhg0bpvtt0qSJltWrV0/fV35X/fr10791ryCGxfinKdW7ePFirZigpGCNywpu5WDdunX690MsCb5yQRAEW6xWgTQzHFswz5pV2WBugku0YhI96aSTElryFgWB+ghmEGO2zYOSh70NW7ZsUeXKldM1ARIBkzEDF8FH9957r56BEuRnHtLxwMRNzrSp5x4Lrj/WEUq3cryx1iR7jZmdc43jDe7uFfK4ngSmsjIds16sJQxkyJnpM5jGg6DSRo0aqZdeesmRZI57dTzO/YUXXtD9JQJKBsqFjWl/8+bNWlEYM2aMI/kfN954o74el19+uSPJHJQa6koMHDjQkcTmgw8+UP/4xz+OU8iAvzcKKIFs0asXxgIrE78JXF3cI7cFgiW6cRnxG88poLQl8lwRBCFxcoSSwBLEd99993GZDBQ2okANs0EbklUS3FBcCGsKMCPlGsTDRkkgLoBBkvN7+eWXtTLEoOe3ksBnU7QIiDUhNsAsfYzF5LrrrtOzfL4H17tAgQL6vYxIVElAMUIpAYoLuaPIbbFVEsjQMJHtKHn/+c9/VOXKlXU8AOf30UcfJaT82SoJ/N9i2W6uH9H2uHW6deum4y9MhkOiSkLXrl3Vu+++q7NTsCAA96ZBgwZWv8nsAoqPKAmC4DN+FFOKznYgcjwREsluiC7cFJ5phoYMGaLzzRPBi6WiOU/zPaIj5DMiXnYDhYqIkuczqc9giutk5RrbZjcQyZ/R+VD4Jazg6PdatGgR2rNnj/NOxiSS3XDo0KFQeEDTnx8ecEOLFy923kkM2+wGjjPnGlZIHOkxKMpl3iMjwYasLhXtztCJ/j4ZEZ3dMHr0aH3Nw4qd/py8efNa1w0RBEEA38oyBwEm1T59+kQsCAQOMuN86KGHUhobAQQzehG8yGxwyZIlep9ZLtkaWHf4fGNFALM8rqkl4AUEfTIjjgd++vAA5LS8gcA9ZtiAtYWZtZ/g0jCEB1pn7xjuTJWsBBHaEv5/GckqgWQX+8G6Rl0HFjYKKwt65t29e3fnXUEQhPhkWyUBUzlphybAi0GE9ECC67wesNwQ4Y/JnIBI9yANxCUYiFyPZ35Pd7imDNCA2d2d7YDyYgpGlS1b1vP0SPzxZr0EBsnogdtr3EqIO9MAaBts3Vc2EODaqVMnVbduXe3WIfUSuM7Lly/X+wTfUmQpK+D2QFkYNGhQylKTgwRFGYWZjesqa2AIQvJkWyWBRVLwwQLBbDwAGzdurB8MfsLsmsGLWe6rr76q/fvEMfBQR2kB/KQ2gXw2mMpwDFrujQEFH7qBmATkXvpo6ZvKikDEPUrR/v37tf+ea89AjqWB6+51yicxIiZwDyWEWbCfEH9w4YUX6n3iQ7BOkWnAjH706NFazrl6dV8BxYpgSYJduccLFizQmRXEE5i0TwImzWJEWYVMh//3//6f08q5fPbZZ86e0tdUKlYKQvJkWyXhiy++iESEEzxHahcWBDODMBsR6V7CYIJCgmLCQFKlShU9QDLjps0rqzOmslaEV3D9KEnct29f3SaanBk9Lg8UIq4BgXDVq1fX73sJ99RAVL7fUP+ATA5cVtxHAjuxGlCCm6BFzpXr4GVKLbVFSGfls/kto4CgDBnlj0GdIFXug2AHS0G7XW64kUgtFQQhObKlksAs2l1VMUh4YOPSQEkhDdAs+corCsnUqVP1AJNTKFq0qFYOOC8sBgxoDKRcA2SJZJAkQtBL5XJfb7vtNh3/wdLQ5r7ihm42vE0AAAK5SURBVGjfvr2aPn26zjrw+lxJ8WQtjpYtW+rryvXlOk+ZMkUNGTJEX3/BHiwy3CtcgkbZIiMF5cENbWN5JGMItwT7pLiiJGb0nnGBkXmDzL2ZIm7uzzYyQ2bvCUJa4kd2Q1bJ6toNyeBFdkMyJLp2gxcksgqkl2RlFchksc1u8JqsZjckQ3R2Q27DnfHD2hfuDJzo7B/36o7ujb/nWZDRe/ThzjyJ3swaHOYY8zcGkwHF9+L7CUK6k23dDYIgCG6IPSAGAQgGxU1FGXFwxylEg4uQoOPw81BnR7njX6Lfw4qJZQJMHBAyY7XAwkig5JVXXqn/NjomwnwPvlcQbjRByCqiJAiCkCMg9oAYBFwNrGtCai5LusOECRMiroJoKIBm3EvRRL/nDiQmSJj4h+h0ZDAKijsmwh0vwffyssS3IPiFKAmCIGR7GIDNDJ+YBIJC8fubip2ZBTBmVoci1nvuFMuMUkrdCoqxLmCRMPESxCUIQnZAlARBELI9ZgDOjFgBjImCNYI1Wgy4HNzuBjfRLgfjasACgUVCELIDoiQIgpDtySzmwIASgTKRFagEalwa7GdWlwQ3Be4KjmdxNONqIF5CELILoiQIgpCtcfv6WQyLeAH3xmDOoA42yoQNboVj6dKlf4lJMBiFgPeNq4F4CUHINtikQMomm2zZY8uNKZDulMToVEcDKZG8b1IP3SmQJm3RYPterC065TH6eL6HIGQn4loSwsfIJpts2WRzV6rMDRAQSGAgZDZLNzP6zAIYbSCW4LnnntOxBoawIqFjEyA65ZHj3S4JcTUI2Y08WBJ2bN/qNAVBEAQvoRIrJb9RYqiyKEGLQnZCYhIEQRB8gmwIajSAZDUI2RFREgRBEDwG5YC1HnB/4OLAPXHrrbc67wpC9kGUBEEQBJ954YUXMqzqKAjpi1L/H7yLddKns0EAAAAAAElFTkSuQmCC;" vertex="1" parent="1"><mxGeometry x="186.693349609375" y="886.2332682291665" width="521" height="735" as="geometry"/></mxCell></root></mxGraphModel></diagram></mxfile>